<svg xmlns="http://www.w3.org/2000/svg" width="24" height="24" viewBox="0 0 24 24">
  <defs>
    <style>
      .cls-1 {
        fill: #fff;
        fill-rule: evenodd;
      }
    </style>
  </defs>
  <path id="lock" class="cls-1" d="M18.481,23H5.519A2.4,2.4,0,0,1,3,20.734V12.371a2.339,2.339,0,0,1,2-2.217V10H19v0.154a2.339,2.339,0,0,1,2,2.217v8.363A2.4,2.4,0,0,1,18.481,23Zm-6.458-9.97A2.357,2.357,0,0,0,9.55,15.251a2.2,2.2,0,0,0,1.268,1.94v2.474a1.244,1.244,0,0,0,2.473,0V17.158a2.186,2.186,0,0,0,1.2-1.907A2.357,2.357,0,0,0,12.023,13.03ZM14.641,9V6.727h0c0-1.772-.6-2.213-2.572-2.213S9.5,4.955,9.5,6.727h0V9H5.7V6.727h0V6.685h0C5.728,3.547,8.573,1,12.069,1s6.341,2.547,6.366,5.685h0V9H14.641Z"/>
</svg>
