<svg id="Gameplay_Callouts" data-name="Gameplay Callouts" xmlns="http://www.w3.org/2000/svg" width="64" height="64" viewBox="0 0 64 64">
  <defs>
    <style>
      .cls-1 {
        fill: #fff;
      }

      .cls-1, .cls-2, .cls-3, .cls-4 {
        fill-rule: evenodd;
      }

      .cls-2 {
        fill: #0d414c;
      }

      .cls-3 {
        fill: #166273;
      }

      .cls-4 {
        fill: #2d899d;
      }
    </style>
  </defs>
  <path id="Assistance" class="cls-1" d="M-1041.24,234.543s-5.68,2.862-7.58,4.664a14.351,14.351,0,0,0-2.53,3.816,9.878,9.878,0,0,1-4.63,5.087,17.762,17.762,0,0,1-6.73,2.12l4.21,0.424s1.58,2.438-2.95,2.544c0,0-6.63.636-9.26-.424a1.213,1.213,0,0,1,.84-2.12l3.37-.848-0.84-.424s-5.06,0-8-2.968c0,0-3.37-.742-2.95-13.567l-3.41-13.136s-1.27-3.54,1.15-4.812a3.442,3.442,0,0,1,4.91,2.088l3.69,12.526s0.06,0.013.14,0.024a13.024,13.024,0,0,0-2.65,1.536l-1.05,1.064a51.38,51.38,0,0,1,8.51-1.572l8.19-.557v-1.064s-1.24-.2-2.89-0.378l2.87-15.253s2.46-3.013,4.88-2.589a4.242,4.242,0,0,1,2.05,5.428l-1.97,10.76a28.9,28.9,0,0,0-.42,5.088s-8.42,2.861-9.26,8.055c0,0,1.89-5.088,10.1-5.512a16.283,16.283,0,0,0,2.53,0s-1.69-.742.1-1.7c0,0,6.11-4.027,9.16-2.119C-1041.66,230.728-1038.29,232.211-1041.24,234.543Zm-25.92-6.193a13.427,13.427,0,0,0-3.63.782,0.889,0.889,0,0,0,.06-0.454l-0.81-16.7c0.16,0,1.18-2.568,3.27-2.8,0.74,0.083,3.81-.352,4.5,2.8l0.4,16.439A27.719,27.719,0,0,0-1067.16,228.35Zm-1.55,26.362h8.19a1.024,1.024,0,0,1,1.03,1.019v2.039a1.025,1.025,0,0,1-1.03,1.02s-0.85,1.019-4.1,1.019c-3.58,0-4.09-1.019-4.09-1.019a1.025,1.025,0,0,1-1.03-1.02v-2.039A1.024,1.024,0,0,1-1068.71,254.712Z"/>
  <path id="Pose" class="cls-1" d="M-1050.84,25.429c-2.49,4.948-4.97,14.256-4.97,14.256h-13.57c-1.97-3.917-2.9-14.256-2.9-14.256-0.82-7.319,4.72-7.422,4.72-7.422,2.9-.722,2.9,3.3,2.9,3.3-0.31,3.092.83,14.906,0.83,14.906-0.11.928-2.07,0.825-2.07,0.825l-0.42,1.412h6.21l-0.42-1.412a4.207,4.207,0,0,1-1.24-.412c-0.72-.1-0.41-0.237-0.41-0.237a122.04,122.04,0,0,1,3.31-12.607c2.17-5.773,6.78-4.123,6.78-4.123C-1048.36,20.481-1050.84,25.429-1050.84,25.429ZM-1069.03,48.9a7.2,7.2,0,0,1-5,2c-4.4.2-5.2-1-5-7s8-3,8-3A7.344,7.344,0,0,0-1069.03,48.9Zm0.89-.147h4.07s-3.62,3.3-1.25,6.185c0,0,0-4.432,3.31-6.185a5.875,5.875,0,0,0,3.72-2.062,11.344,11.344,0,0,1-5.37.825s-5.38.309-5.79-3.711c0,0-.62-2.474,2.48-2.474h10.34s5.37,0.412,5.37,7.01c0,0,.11,7.628-8.68,10.308,0,0,5.17,1.752,0,3.3,0,0-6.82.825-7.86,0.412,0,0-2.27-.412-1.65-2.062,0,0,3.72-.1,5.79-1.237,0,0-6,.206-8.27-0.825a6.532,6.532,0,0,1-4.96-5.36l6.27-.825S-1067.53,51.327-1068.14,48.756Zm1.26,15.334,8.17-.575a1.025,1.025,0,0,1,1.1.945l0.14,2.034a1.024,1.024,0,0,1-.95,1.089s-0.78,1.077-4.02,1.3c-3.57.252-4.16-.729-4.16-0.729a1.022,1.022,0,0,1-1.09-.945l-0.14-2.034A1.018,1.018,0,0,1-1066.88,64.09Z"/>
  <path id="Roger_THat" data-name="Roger THat" class="cls-1" d="M-1045.6-40.237c-0.93.972-1.47,0-3.96,0.991,0,0-10.31,1-11.06-6.106,0,0,.25-5.695,3.02-4.045a25.342,25.342,0,0,0,10.04,0,2.723,2.723,0,0,1,3.53,2.343S-1043.1-42.848-1045.6-40.237Zm-0.94-11.206s-6.54,2.284-11.06,0c0,0-5.91-2.284-1.01-7.106,0,0-3.15-.254-4.03,4.06a12.721,12.721,0,0,0,2.01,3.045s0.39,2.157-3.01,5.076a44.242,44.242,0,0,1-5.02,4.06s4.01-.127,6.02-2.03c0,0,.76,1.015-2,2.03,0,0-3.15,3.045-2.02,6.091,0,0-.24,3.3,1.01,4.06,0,0-4.27,0-7.03-6.091,0,0-1.01,1.776,0,3.045,0,0-.51,1.65-2.02,0,0,0-5.78-4.187-4.02-13.2,0,0,.63-3.68,2.01-2.03a7.474,7.474,0,0,0,2.01,6.091s-0.62-8.375,1.01-11.166a41.582,41.582,0,0,1,5.03-7.121s2.6-3.754,2-10.151a31.221,31.221,0,0,1,0-7.106s6.53-1.142,8.03,3.045a8.148,8.148,0,0,1,.01,9.136s-1.51,4.2-1.01,5.091c0,0-1.87,1.534,2.03,1,0,0,7.43-1.239,10.57.561C-1047.03-61.048-1042.14-55.249-1046.54-51.443Zm-31.49,15.383-4,1s-4.5-3-3-10a7.893,7.893,0,0,1,4-1S-1081.28-39.058-1078.03-36.059Zm17.41-5.217a13.53,13.53,0,0,0,7.04,4.06s5.2-1.234,4.02,2.015a3.6,3.6,0,0,1-1.1,3.968c-1.04.793-3.6,1.326-5.94,1.108,0,0-10.64.181-8.04-8.105C-1064.64-38.231-1063.26-43.814-1060.62-41.276Z"/>
  <path id="This_way" data-name="This way" class="cls-1" d="M-1066.51,131.726s3.91,2.09,11.43,1.277c0,0,10.25-1.335,12.69.464,0,0,4.02,2.032,3.26,6.036,0,0-.23,1.915-4.42,1.045,0,0-11.42-.813-16.43,1.625,0,0-.52.986,0.82,0.7a13.606,13.606,0,0,0,5.83.488s2.44,4.974-2.92,6.36a14.857,14.857,0,0,1-4.54.789s-0.35,1.706.35,1.532a3.923,3.923,0,0,0,3.26-.464s-0.29,8.183-14.91,4.179c0,0-9.73-3.192-10.37-9.634,0,0-1.34-8.647,2.33-12.768,0,0,4.08-4.062,5.01-4.875,0,0,2.21-1.973,2.56-3.6,0,0,1.75-4.7,2.57-7.312,0,0,.93-1.393,2.91-0.232,0,0,7.04,3.54,1.51,10.214l-1.52,3.134S-1067.56,131.2-1066.51,131.726Zm-12.57,15.321a43.536,43.536,0,0,0,5.71,2.09,0.754,0.754,0,0,1,.46,1.044s-0.11,1.649-1.51,1.184a41.907,41.907,0,0,1-5.48-3.157s-0.93-.464-0.46-1.161C-1080.36,147.047-1080.25,146.235-1079.08,147.047Zm-0.12-6.267s4.78,1.184,5.94,1.068a4.425,4.425,0,0,0,.7-1.765s-0.06-.638-1.05-0.58c0,0-4.13-.116-5.59-0.232a0.808,0.808,0,0,0-1.05.58A0.894,0.894,0,0,0-1079.2,140.78Zm0.12,2.553s5.59,1.219,8.04,1.393a0.93,0.93,0,0,1,1.05.929s0.05,1.764-1.52,1.532c0,0-5.88-1.649-8.04-2.461a0.852,0.852,0,0,1-.81-0.929S-1080.36,143.043-1079.08,143.333Zm-3.6-9.146s-4.18,5.365-.48,15.066c0,0-3.78,1.218-3.84-7.545C-1087,141.708-1087.46,132.446-1082.68,134.187Z"/>
  <path id="Pointer" class="cls-1" d="M-1070.66-140.951s0.51,0.465,1.03-.583c0,0,2.04-3.91,1.25-11.42,0,0-1.31-10.246.45-12.691,0,0,1.06-4.017,4.98-3.26,0,0,2.8.232,1.95,4.424,0,0,.7,10.673,1.59,16.418,0,0,.97.524,0.69-0.815a13.832,13.832,0,0,0,.47-5.832s5.99-.222,6.23,2.921a14.945,14.945,0,0,1,.77,4.541s1.67,0.349,1.5-.35a3.981,3.981,0,0,0-.45-3.26s8.01,0.291,4.09,14.9c0,0-3.13,9.722-9.43,10.363,0,0-8.47,1.339-12.5-2.329,0,0-3.98-4.075-4.78-5.007a27.362,27.362,0,0,1-1.96-6.138,21.731,21.731,0,0,1-.08-5.96l2.8-3.689S-1068.88-148.328-1070.66-140.951Zm16.03,11.983a44.062,44.062,0,0,0,2.04-5.705,0.747,0.747,0,0,1,1.03-.466,1.157,1.157,0,0,1,1.15,1.514,42.017,42.017,0,0,1-3.09,5.472s-0.45.932-1.13,0.466C-1054.63-127.687-1055.43-127.8-1054.63-128.968Zm-6.14.117s1.16-4.774,1.05-5.939a4.32,4.32,0,0,0-1.73-.7s-0.63.058-.57,1.048c0,0-.11,4.133-0.23,5.589a0.815,0.815,0,0,0,.57,1.048S-1060.83-127.687-1060.77-128.851Zm2.5-.117s1.19-5.589,1.36-8.034a0.927,0.927,0,0,1,.91-1.048,1.344,1.344,0,0,1,1.5,1.514s-1.61,5.88-2.41,8.034a0.843,0.843,0,0,1-.91.815S-1058.55-127.687-1058.27-128.968Zm-8.95,3.6s5.25,4.173,14.75.475c0,0,1.19,3.785-7.39,3.843C-1059.86-121.05-1068.93-120.594-1067.22-125.368Z"/>
  <g id="stats-reg">
    <g id="stat-penalty-color">
      <path id="foul3" class="cls-2" d="M25.04,52.263l-4.5-7.491L2.529,38.779l4.5,7.491Z"/>
      <path id="foul2" class="cls-3" d="M23.539,43.274L46.049,20.8s11.831-9.738,13.506,7.491c0,0-.429,16.48-12.005,16.48,0,0-5.477.375-7.5-3L28.041,50.765ZM51.294,24.127c2.9-1.26,5.245,1.267,5.245,5.643s-2.348,8.947-5.245,10.207-5.245-1.267-5.245-5.644S48.4,25.387,51.294,24.127Z"/>
      <path id="foul1" class="cls-4" d="M43.048,19.3a10.569,10.569,0,0,1,7.5-3L37.045,11.811a12.447,12.447,0,0,0-13.506,3L4.03,35.782l16.507,5.993ZM19.037,23.8l10.719,4.495L34.044,23.8,23.325,19.3Z"/>
    </g>
  </g>
</svg>
