<svg id="allstar_badge" data-name="allstar badge" xmlns="http://www.w3.org/2000/svg" width="40" height="40" viewBox="0 0 40 40">
  <defs>
    <style>
      .cls-1 {
        fill: #20d7e7;
      }

      .cls-1, .cls-2, .cls-3 {
        fill-rule: evenodd;
      }

      .cls-2 {
        fill: #fff;
      }

      .cls-3 {
        fill: #ec445f;
      }
    </style>
  </defs>
  <path id="stars" class="cls-1" d="M27.742,8.162L24.836,10.28a0.515,0.515,0,0,0-.052.4l0.666,3.454a4.657,4.657,0,0,1,.24,1.553,1.265,1.265,0,0,1-1.169,1.324,1.907,1.907,0,0,1-.825-0.231l-3.348-3.176a1.041,1.041,0,0,0-.338-0.129,1.04,1.04,0,0,0-.338.129l-3.348,3.176a1.907,1.907,0,0,1-.825.231,1.265,1.265,0,0,1-1.169-1.324,4.656,4.656,0,0,1,.24-1.553l0.666-3.454a0.516,0.516,0,0,0-.052-0.4L12.278,8.162a1.416,1.416,0,0,1-.267-0.99,1.477,1.477,0,0,1,.313-0.784,1.369,1.369,0,0,1,.834-0.442l3.758-.582a0.573,0.573,0,0,0,.42-0.252l1.585-3.323A1.3,1.3,0,0,1,20.01,1a1.3,1.3,0,0,1,1.089.792l1.585,3.323a0.573,0.573,0,0,0,.42.252l3.758,0.582a1.369,1.369,0,0,1,.834.442,1.477,1.477,0,0,1,.313.784A1.417,1.417,0,0,1,27.742,8.162Zm11.15,10.332a1.059,1.059,0,0,1-.678.526l-3.731.564a0.35,0.35,0,0,0-.22.243L33.3,22.457a2.976,2.976,0,0,1-.474,1.134,1.116,1.116,0,0,1-1.486.231,2.135,2.135,0,0,1-.551-0.581L29.535,21H30l-0.559-.169-0.381-.682a1.118,1.118,0,0,0-.21-0.26,1.079,1.079,0,0,0-.317-0.088l-2.106-.2-0.985-.985a3.483,3.483,0,0,0,1.063-.906A4.063,4.063,0,0,0,28.1,14.766L27.007,11.5a0.517,0.517,0,0,1,.073-0.5l0.709-.616,2.823,1.259a0.558,0.558,0,0,0,.437.033l2.687-1.513a1.243,1.243,0,0,1,1.241-.019,1.183,1.183,0,0,1,.551,1.094l-0.159,3.093a0.576,0.576,0,0,0,.235.386l2.88,2.336a1.38,1.38,0,0,1,.5.739A1.043,1.043,0,0,1,38.891,18.495ZM11.519,19.829a1.088,1.088,0,0,0-.317.088,1.117,1.117,0,0,0-.21.258L9.261,23.246a2.128,2.128,0,0,1-.552.577,1.126,1.126,0,0,1-1.49-.229,2.943,2.943,0,0,1-.475-1.127L5.78,19.856a0.348,0.348,0,0,0-.221-0.241l-3.739-.56a1.061,1.061,0,0,1-.68-0.523,1.028,1.028,0,0,1-.1-0.693A1.369,1.369,0,0,1,1.55,17.1l2.886-2.32A0.572,0.572,0,0,0,4.671,14.4l-0.16-3.072a1.171,1.171,0,0,1,.552-1.087,1.255,1.255,0,0,1,1.244.019L9,11.764a0.564,0.564,0,0,0,.438-0.033l2.724-1.2,1.2,0.973-1.093,3.266c0.115,2.5,1.046,3.619,2.053,4.087l-0.785.785Z"/>
  <path id="crown" class="cls-2" d="M32.55,28.065l3.407-4.219a15.979,15.979,0,0,1-31.914.009l3.4,4.21,6.639-6.427L20,17.006l5.915,4.631ZM19.993,19.011L11,28.388l8.994,8.623,8.995-8.623Z"/>
  <path id="red" class="cls-3" d="M20,23.009L24.991,28,20,32.991,15.009,28Z"/>
</svg>
