<?xml version="1.0" standalone="no"?>
<!DOCTYPE svg PUBLIC "-//W3C//DTD SVG 1.1//EN" "http://www.w3.org/Graphics/SVG/1.1/DTD/svg11.dtd" >
<svg xmlns="http://www.w3.org/2000/svg" xmlns:xlink="http://www.w3.org/1999/xlink" version="1.1">
<metadata>
Created by FontForge 20170910 at Fri Dec  7 21:58:33 2012
 By Jimmy Wärting
Copyright (c) 2012, Sorkin Type Co (www.sorkintype.com) with Reserved Font Name 'Denk'
</metadata>
<defs>
<font id="DenkOne-Regular" horiz-adv-x="0" >
  <font-face 
    font-family="Denk One"
    font-weight="400"
    font-stretch="normal"
    units-per-em="2048"
    panose-1="2 0 5 6 6 0 0 2 0 4"
    ascent="1638"
    descent="-410"
    x-height="1202"
    cap-height="1690"
    bbox="-121.538 -442 1913.03 2118"
    underline-thickness="157"
    underline-position="-179"
    unicode-range="U+0001-F6C3"
  />
<missing-glyph 
 />
    <glyph glyph-name=".notdef" 
 />
    <glyph glyph-name=".null" 
 />
    <glyph glyph-name=".null" 
 />
    <glyph glyph-name="nonmarkingreturn" unicode="&#xd;" 
 />
    <glyph glyph-name="space" unicode=" " horiz-adv-x="500" 
 />
    <glyph glyph-name="n" unicode="n" horiz-adv-x="1079" 
d="M121 1129q0 21 4.5 35.5t20 22.5t46 11.5t81.5 3.5t81.5 -3.5t46 -11.5t20 -22.5t4.5 -35.5l-2 -61q28 32 57.5 58.5t63 46t71.5 30.5t83 11q61 0 113.5 -22t90 -64t58 -102t18.5 -136l-24 -833q0 -19 -5 -30t-19 -17t-39.5 -8t-67.5 -2t-67.5 2t-39 8t-18.5 17t-5 30
l-23 804q-1 39 -10 65t-24 41t-35.5 21t-44.5 6q-38 0 -67 -21t-50 -50l-25 -866q0 -19 -5 -30t-19 -17t-39.5 -8t-67.5 -2t-67.5 2t-39 8t-18.5 17t-5 30z" />
    <glyph glyph-name="i" unicode="i" horiz-adv-x="568" 
d="M289 1360q-49 0 -78.5 2t-45 8t-21 17t-5.5 30l-12 195q0 21 4.5 35.5t21.5 22.5t49.5 11.5t86.5 3.5t86.5 -3.5t49.5 -11.5t21.5 -22.5t4.5 -35.5l-11 -195q0 -19 -5.5 -30t-21.5 -17t-45.5 -8t-78.5 -2zM121 1129q0 21 4.5 35.5t21.5 22.5t49.5 11.5t86.5 3.5
t86.5 -3.5t49.5 -11.5t21.5 -22.5t4.5 -35.5l-31 -1072q0 -19 -5 -30t-19 -17t-39.5 -8t-67.5 -2t-67.5 2t-39 8t-18.5 17t-5 30z" />
    <glyph glyph-name="o" unicode="o" horiz-adv-x="1081" 
d="M111 910q-3 80 32.5 137.5t96 94.5t139.5 54.5t162 17.5t162 -17.5t139.5 -54.5t96 -94.5t32.5 -137.5l-23 -633q-3 -82 -38 -137.5t-91 -89t-128 -48t-149 -14.5q-78 0 -150 14.5t-128.5 48t-91.5 88.5t-38 137zM408 268q-1 -38 6.5 -64t24 -42t42 -23t60.5 -7
q70 0 102.5 30t30.5 107l-20 658q-1 42 -9.5 68t-23.5 40t-35 18.5t-45 4.5t-45 -4.5t-35 -18.5t-23.5 -40t-9.5 -68z" />
    <glyph glyph-name="A" unicode="A" horiz-adv-x="1079" 
d="M288 1605q4 28 13.5 46t35 28t73.5 13.5t130 3.5q81 0 129 -3.5t73.5 -13.5t34.5 -28t14 -46l265 -1527q4 -27 -0.5 -42.5t-20 -23.5t-42.5 -10t-66 -2q-48 0 -76.5 2t-44.5 10t-23.5 23.5t-11.5 42.5l-41 239h-381l-41 -239q-5 -27 -12 -42.5t-23 -23.5t-44.5 -10
t-76.5 -2q-39 0 -65.5 2t-42.5 10t-21 23.5t0 42.5zM697 507l-153 887h-9l-153 -887h315z" />
    <glyph glyph-name="O" unicode="O" horiz-adv-x="1208" 
d="M120 1365q-2 75 25 137t85.5 106t151 68.5t222.5 24.5q129 0 221.5 -24.5t151.5 -68.5t86 -106t25 -137l-29 -1060q-2 -65 -28 -123t-80.5 -101t-140 -68t-206.5 -25t-207 25t-140.5 68t-80.5 101t-28 123zM443 296q-1 -42 7.5 -70t28 -44.5t50.5 -23.5t75 -7t75 7
t50.5 23.5t28 44.5t7.5 70l-29 1100q-1 44 -10 70t-25.5 40t-40.5 18.5t-56 4.5t-56 -4.5t-40.5 -18.5t-25.5 -40t-10 -70z" />
    <glyph glyph-name="e" unicode="e" horiz-adv-x="1062" 
d="M111 910q-3 80 33.5 137.5t98 94.5t141 54.5t162.5 17.5q79 0 155 -17.5t135 -54.5t93.5 -94.5t31.5 -137.5l-15 -369q-1 -19 -6.5 -30t-20.5 -17t-42.5 -8t-72.5 -2h-390l-6 -216q-1 -38 7.5 -64t25.5 -42t42 -23t57 -7q64 0 94 28t30 99v31q0 19 5 31.5t19.5 20
t41.5 10.5t72 3q44 0 71 -3t41.5 -10.5t19 -19.5t4.5 -31v-44q0 -79 -34 -129t-89.5 -79t-127 -40t-146.5 -11q-76 0 -148 14.5t-128.5 48t-92 88.5t-38.5 137zM664 634l-10 293q-1 42 -9.5 68t-23 40t-34 18.5t-41.5 4.5q-25 0 -46 -4.5t-36.5 -18.5t-25 -40t-10.5 -68
l-9 -293h245z" />
    <glyph glyph-name="d" unicode="d" horiz-adv-x="1098" 
d="M121 883q-2 72 19 133t61.5 105t97.5 68.5t127 24.5q42 0 78 -11t66 -27.5t53.5 -36.5t40.5 -38l-11 550q0 21 4.5 35.5t21.5 22.5t49.5 11.5t86.5 3.5t86.5 -3.5t49.5 -11.5t21.5 -22.5t4.5 -35.5l-31 -1594q0 -19 -5 -30t-19 -17t-39.5 -8t-67.5 -2q-39 0 -62.5 2
t-36 8t-17 17t-4.5 30v38q-21 -19 -48.5 -38t-61.5 -34.5t-74 -25t-86 -9.5q-65 0 -116.5 18t-88 57.5t-57.5 103t-24 153.5zM415 320q-2 -74 34.5 -113.5t100.5 -39.5q42 0 75.5 15.5t56.5 35.5l-15 738q-24 20 -57 35.5t-67 15.5q-22 0 -42 -6.5t-35.5 -21t-25 -38.5
t-10.5 -58z" />
    <glyph glyph-name="H" unicode="H" horiz-adv-x="1231" 
d="M125 1607q-1 26 5 42t25.5 25t55.5 12.5t96 3.5q59 0 95 -3.5t55.5 -12.5t26 -25t5.5 -42l-21 -728h294l-20 728q-1 26 5 42t25.5 25t55.5 12.5t96 3.5q59 0 95 -3.5t55.5 -12.5t26 -25t5.5 -42l-44 -1539q-1 -23 -5.5 -36.5t-18.5 -20.5t-41 -9t-73 -2t-73.5 2t-41.5 9
t-18.5 20.5t-5.5 36.5l-17 621h-305l-18 -621q0 -23 -4.5 -36.5t-19 -20.5t-41.5 -9t-73 -2t-73.5 2t-41.5 9t-18.5 20.5t-5.5 36.5z" />
    <glyph glyph-name="I" unicode="I" horiz-adv-x="614" 
d="M125 1607q-1 26 5 42t25.5 25t55.5 12.5t96 3.5q59 0 95 -3.5t55.5 -12.5t26 -25t5.5 -42l-44 -1539q0 -23 -4.5 -36.5t-19 -20.5t-41.5 -9t-73 -2t-73.5 2t-41.5 9t-18.5 20.5t-5.5 36.5z" />
    <glyph glyph-name="l" unicode="l" horiz-adv-x="586" 
d="M131 1651q0 21 4.5 35.5t21.5 22.5t49.5 11.5t86.5 3.5t86.5 -3.5t49.5 -11.5t21.5 -22.5t4.5 -35.5l-31 -1594q0 -19 -5 -30t-19 -17t-39.5 -8t-67.5 -2t-67.5 2t-39 8t-18.5 17t-5 30z" />
    <glyph glyph-name="dotlessi" unicode="&#x131;" horiz-adv-x="566" 
d="M121 1129q0 21 4.5 35.5t21.5 22.5t49.5 11.5t86.5 3.5t86.5 -3.5t49.5 -11.5t21.5 -22.5t4.5 -35.5l-31 -1072q0 -19 -5 -30t-19 -17t-39.5 -8t-67.5 -2t-67.5 2t-39 8t-18.5 17t-5 30z" />
    <glyph glyph-name="D" unicode="D" horiz-adv-x="1222" 
d="M125 1607q-1 26 5 42t25.5 25t55.5 12.5t96 3.5h22h270q134 0 230 -23t156.5 -68t88 -111.5t24.5 -153.5l-29 -1010q-2 -75 -30.5 -135t-85.5 -102t-144 -64.5t-207 -22.5h-321q-37 0 -59 3t-34 10t-15.5 20.5t-4.5 34.5zM612 163q47 0 79 7.5t51.5 24.5t27 45.5
t6.5 70.5l-29 1071q-1 43 -9.5 70t-24.5 41t-40 19t-56 5h-131l-39 -1354h165z" />
    <glyph glyph-name="S" unicode="S" horiz-adv-x="1158" 
d="M144 415q-1 30 4 48.5t20.5 28t43.5 12.5t74 3t77 -3t49.5 -12.5t26 -28t6.5 -48.5l-4 -119q-2 -42 6.5 -70t28 -44.5t50.5 -23.5t75 -7q45 0 76.5 7t50.5 23.5t27 44.5t8 70l-1 65q0 35 -3 63.5t-12.5 51.5t-28 41t-51.5 32l-347 148q-57 25 -95 56t-60.5 71t-32.5 90
t-12 112l-10 339q-2 75 24.5 137t85.5 106t151.5 68.5t222.5 24.5t222.5 -24.5t151 -68.5t85.5 -106t25 -137l-10 -400q-1 -30 -9 -48.5t-27 -28t-50.5 -12.5t-77.5 -3q-47 0 -78.5 3t-50.5 12.5t-27 28t-9 48.5l-12 431q-1 44 -10 70t-25.5 40t-41 18.5t-56.5 4.5
t-56.5 -4.5t-41 -18.5t-25.5 -40t-10 -70l-11 -399q-1 -38 3.5 -66.5t17 -50.5t33.5 -39t54 -31l324 -136q53 -22 88.5 -47.5t56.5 -61.5t28.5 -86t3.5 -122l-2 -56q-2 -65 -28 -122t-81 -99.5t-140.5 -67t-206.5 -24.5t-206.5 25t-140 68t-80.5 101t-27 123z" />
    <glyph glyph-name="E" unicode="E" horiz-adv-x="901" 
d="M125 1607q-1 26 5 42t25.5 25t55.5 12.5t96 3.5h32.5t29.5 -1h401q26 0 40.5 -4t21 -15t8 -30t1.5 -49t-1.5 -49.5t-8 -30t-21 -14.5t-40.5 -4h-284l-18 -614h241q26 0 40.5 -4t21 -14.5t8 -29t1.5 -47.5t-1.5 -47.5t-8 -29t-21 -14.5t-40.5 -4h-246l-15 -503h285
q26 0 40.5 -4.5t21 -15t8 -28.5t1.5 -45t-1.5 -45t-8 -28.5t-21 -15t-40.5 -4.5h-400h-26q-46 0 -73.5 2t-41.5 9t-18.5 20.5t-5.5 36.5z" />
    <glyph glyph-name="N" unicode="N" horiz-adv-x="1234" 
d="M125 1607q-1 26 4 42t21.5 25t48 12.5t84.5 3.5q39 0 66.5 -2t44.5 -7.5t26.5 -14.5t12.5 -24l373 -1015h8l-47 980q-1 26 4.5 42t23 25t50 12.5t85.5 3.5q59 0 95 -3.5t54.5 -12.5t24.5 -25t5 -42l-44 -1509q-1 -23 -5 -41t-16 -31t-35.5 -19.5t-62.5 -6.5q-38 0 -62 5
t-35 25l-2 -2l-405 1035h-11l-8 -995q-1 -23 -5 -36.5t-16 -20.5t-35.5 -9t-62.5 -2q-45 0 -71.5 2t-40.5 9t-18.5 20.5t-5.5 36.5z" />
    <glyph glyph-name="period" unicode="." horiz-adv-x="600" 
d="M138 252q-2 21 3 35.5t22 22.5t50 11.5t87 3.5t86.5 -3.5t50 -11.5t22 -22.5t3.5 -35.5l-11 -195q-1 -19 -6.5 -30t-21.5 -17t-45 -8t-78 -2t-78 2t-44.5 8t-21 17t-6.5 30z" />
    <glyph glyph-name="exclam" unicode="!" horiz-adv-x="620" 
d="M310 600q-47 0 -74 2t-41.5 9t-19 21t-5.5 37l-44 971q-1 26 5.5 42.5t26 25.5t56 12.5t96.5 3.5t96.5 -3.5t56 -12.5t26 -25.5t5.5 -42.5l-44 -971q-1 -23 -5.5 -37t-19 -21t-42 -9t-73.5 -2zM148 252q-2 21 3 35.5t22 22.5t50 11.5t87 3.5t86.5 -3.5t50 -11.5t22 -22.5
t3.5 -35.5l-11 -195q-1 -19 -6.5 -30t-21.5 -17t-45 -8t-78 -2t-78 2t-44.5 8t-21 17t-6.5 30z" />
    <glyph glyph-name="q" unicode="q" horiz-adv-x="1078" 
d="M111 883q-2 72 19 133t61.5 105t97.5 68.5t127 24.5q43 0 80.5 -11.5t67.5 -29t53.5 -38t40.5 -39.5v33q-1 21 3.5 35.5t20.5 22.5t46.5 11.5t81.5 3.5t81.5 -3.5t46.5 -11.5t20.5 -22.5t3.5 -35.5l-32 -1492q0 -19 -5 -30t-19 -17t-39 -8t-67 -2t-67.5 2t-39 8t-18 17
t-4.5 30l-10 437q-43 -33 -104 -59.5t-142 -26.5q-65 0 -116.5 18t-88 57.5t-57.5 103t-24 153.5zM405 320q-2 -74 34.5 -113.5t100.5 -39.5q35 0 65 11.5t53 28.5l-17 761q-23 17 -51 28t-57 11q-22 0 -42 -6.5t-35.5 -21t-25 -38.5t-10.5 -58z" />
    <glyph glyph-name="r" unicode="r" horiz-adv-x="952" 
d="M121 1129q0 21 4.5 35.5t20 22.5t46 11.5t81.5 3.5t81 -3.5t46 -11.5t20.5 -22.5t4.5 -35.5v-59q28 31 57.5 57.5t62 45.5t69 30t78.5 11q48 0 89.5 -14t71 -45t45.5 -80.5t14 -120.5l-7 -230q0 -19 -5.5 -30t-20.5 -17t-42.5 -8t-72.5 -2t-72 2t-41.5 8t-19 17t-5.5 30
l-4 137q-1 39 -7 65t-16.5 41t-24.5 21t-32 6q-29 0 -55.5 -22t-47.5 -49l-25 -866q0 -19 -5 -30t-19 -17t-39.5 -8t-67.5 -2t-67.5 2t-39 8t-18.5 17t-5 30z" />
    <glyph glyph-name="F" unicode="F" horiz-adv-x="901" 
d="M125 1607q-1 26 5 42t25.5 25t55.5 12.5t96 3.5h32.5t29.5 -1h401q26 0 40.5 -4t21 -15t8 -30t1.5 -49t-1.5 -49.5t-8 -30t-21 -14.5t-40.5 -4h-284l-18 -614h241q26 0 40.5 -4t21 -14.5t8 -29t1.5 -47.5t-1.5 -47.5t-8 -29t-21 -14.5t-40.5 -4h-246l-18 -626
q0 -20 -4.5 -32t-19 -19t-41.5 -9.5t-73 -2.5t-73.5 2t-41.5 9t-18.5 20.5t-5.5 36.5z" />
    <glyph glyph-name="L" unicode="L" horiz-adv-x="820" 
d="M125 1607q-1 26 5 42t25.5 25t55.5 12.5t96 3.5q59 0 95 -3.5t55.5 -12.5t26 -25t5.5 -42l-41 -1421h261q26 0 40.5 -4.5t21 -15t8 -28.5t1.5 -45t-1.5 -45t-8 -28.5t-21 -15t-40.5 -4.5h-402q-46 0 -73.5 2t-41.5 9t-18.5 20.5t-5.5 36.5z" />
    <glyph glyph-name="b" unicode="b" horiz-adv-x="1100" 
d="M131 1651q0 21 4.5 35.5t21.5 22.5t49.5 11.5t86.5 3.5t86.5 -3.5t49.5 -11.5t21.5 -22.5t4.5 -35.5l-11 -551q17 18 40.5 38.5t53.5 37t66.5 27.5t79.5 11q70 0 127 -24.5t97.5 -68.5t61.5 -105t19 -133l-18 -563q-3 -90 -24 -153.5t-57.5 -103t-88.5 -57.5t-116 -18
q-47 0 -87 9.5t-74 25t-61.5 34.5t-48.5 38v-38q0 -19 -4.5 -30t-17.5 -17t-36.5 -8t-62.5 -2q-42 0 -67.5 2t-39 8t-18.5 17t-5 30zM428 218q23 -20 56.5 -35.5t75.5 -15.5q64 0 100.5 39.5t34.5 113.5l-15 563q-1 34 -10.5 58t-25 38.5t-35.5 21t-42 6.5q-35 0 -68.5 -16
t-56.5 -36z" />
    <glyph glyph-name="m" unicode="m" horiz-adv-x="1619" 
d="M121 1129q0 21 4.5 35.5t20 22.5t46 11.5t81.5 3.5t81.5 -3.5t46 -11.5t20 -22.5t4.5 -35.5l-2 -61q28 32 57.5 58.5t63 46t71.5 30.5t83 11q85 0 151 -42t100 -120q30 35 60.5 64.5t65.5 51.5t75 34t88 12q61 0 113.5 -22t90 -64t58 -102t18.5 -136l-24 -833
q0 -19 -5 -30t-19 -17t-39.5 -8t-67.5 -2t-67.5 2t-39 8t-18.5 17t-5 30l-23 804q-1 39 -10 65t-24 41t-35.5 21t-44.5 6q-38 0 -67.5 -21.5t-50.5 -51.5v-31l-24 -833q0 -19 -5 -30t-19 -17t-39.5 -8t-67.5 -2t-67.5 2t-39 8t-18.5 17t-5 30l-23 804q-1 39 -10 65t-24 41
t-35.5 21t-44.5 6q-38 0 -67 -21t-50 -50l-25 -866q0 -19 -5 -30t-19 -17t-39.5 -8t-67.5 -2t-67.5 2t-39 8t-18.5 17t-5 30z" />
    <glyph glyph-name="j" unicode="j" horiz-adv-x="571" 
d="M123 1129q-1 21 4 35.5t22 22.5t49.5 11.5t86.5 3.5t86.5 -3.5t49.5 -11.5t22 -22.5t4 -35.5l-32 -1492q0 -19 -5 -30t-19 -17t-39 -8t-67 -2t-67.5 2t-39 8t-18 17t-4.5 30zM289 1360q-49 0 -78.5 2t-45 8t-21 17t-5.5 30l-12 195q0 21 4.5 35.5t21.5 22.5t49.5 11.5
t86.5 3.5t86.5 -3.5t49.5 -11.5t21.5 -22.5t4.5 -35.5l-11 -195q0 -19 -5.5 -30t-21.5 -17t-45.5 -8t-78.5 -2z" />
    <glyph glyph-name="c" unicode="c" horiz-adv-x="1062" 
d="M111 910q-3 80 32.5 137.5t96 94.5t139.5 54.5t162 17.5q85 0 164 -17.5t139 -54.5t95 -94.5t32 -137.5l-10 -311q-1 -19 -7 -30t-22 -17t-45 -8t-75 -2q-47 0 -76 2t-45 8t-21.5 17t-6.5 30l-9 328q-1 42 -9.5 68t-23.5 40t-35 18.5t-45 4.5t-45 -4.5t-35 -18.5
t-23.5 -40t-9.5 -68l-20 -659q-1 -38 6.5 -64t24 -42t42 -23t60.5 -7q70 0 101.5 28t31.5 99v31q0 19 5 31.5t19.5 20t41.5 10.5t72 3q44 0 71 -3t41.5 -10.5t19.5 -19.5t5 -31v-24q0 -79 -35 -132.5t-92 -86t-130 -46.5t-150 -14q-78 0 -150 14.5t-128.5 48t-91.5 88.5
t-38 137z" />
    <glyph glyph-name="dotlessj" unicode="&#x237;" horiz-adv-x="571" 
d="M123 1129q-1 21 4 35.5t22 22.5t49.5 11.5t86.5 3.5t86.5 -3.5t49.5 -11.5t22 -22.5t4 -35.5l-32 -1492q0 -19 -5 -30t-19 -17t-39 -8t-67 -2t-67.5 2t-39 8t-18 17t-4.5 30z" />
    <glyph glyph-name="T" unicode="T" horiz-adv-x="954" 
d="M298 1494h-187q-26 0 -40.5 4t-21 14.5t-8 30t-1.5 49.5t1.5 49t8 30t21 15t40.5 4h343h23h366q26 0 40.5 -4t21.5 -15t8.5 -30t1.5 -49t-1.5 -49.5t-8.5 -30t-21.5 -14.5t-40.5 -4h-187l-40 -1431q-1 -20 -5.5 -32t-18.5 -19t-41.5 -9.5t-73.5 -2.5t-73 2t-41.5 9
t-18.5 20.5t-5 36.5z" />
    <glyph glyph-name="p" unicode="p" horiz-adv-x="1087" 
d="M121 1129q-1 21 3.5 35.5t20.5 22.5t46.5 11.5t81.5 3.5t81.5 -3.5t46.5 -11.5t20.5 -22.5t3.5 -35.5l-1 -35q24 24 51 45.5t58 38t65 26.5t73 10q70 0 127 -24.5t97.5 -68.5t61.5 -105t19 -133l-18 -563q-3 -90 -24 -153.5t-57.5 -103t-88.5 -57.5t-116 -18
q-83 0 -145 27.5t-105 61.5l-9 -440q0 -19 -5 -30t-19 -17t-39 -8t-67 -2t-67.5 2t-39 8t-18 17t-4.5 30zM425 209q23 -17 53.5 -29.5t68.5 -12.5q64 0 100.5 39.5t34.5 113.5l-15 563q-1 34 -10.5 58t-25 38.5t-35.5 21t-42 6.5q-30 0 -59.5 -12t-52.5 -29z" />
    <glyph glyph-name="g" unicode="g" horiz-adv-x="1068" 
d="M101 883q-2 72 19 133t61.5 105t97.5 68.5t127 24.5q42 0 77.5 -11t65.5 -27.5t53.5 -36t40.5 -37.5v27q0 21 4.5 35.5t21 22.5t47 11.5t81.5 3.5t81.5 -3.5t46 -11.5t20 -22.5t4.5 -35.5l-26 -1260q-2 -82 -31.5 -137.5t-83 -89t-129.5 -48t-171 -14.5q-70 0 -111 3.5
t-67 8.5q-12 2 -19.5 6.5t-11 13.5t-5 24.5t-1.5 39.5q0 51 7 71.5t30 18.5q24 -2 61.5 -6.5t103.5 -4.5q43 0 74 7t50 23t27 42.5t7 64.5l-5 181q-42 -33 -102.5 -59t-140.5 -26q-65 0 -116.5 18t-88 57.5t-57.5 103t-24 153.5zM395 320q-2 -74 34.5 -113.5t100.5 -39.5
q35 0 64 11t51 27l-18 766q-23 15 -50 25.5t-54 10.5q-22 0 -42 -6.5t-35.5 -21t-25 -38.5t-10.5 -58z" />
    <glyph glyph-name="C" unicode="C" horiz-adv-x="1198" 
d="M120 1365q-2 75 25 137t85.5 106t151 68.5t222.5 24.5q129 0 221.5 -24.5t151.5 -68.5t86 -106t25 -137l-12 -486q-1 -30 -9 -48.5t-27 -28t-50.5 -12.5t-77.5 -3q-47 0 -78 3t-49.5 12.5t-26.5 28t-9 48.5l-13 517q-1 44 -10 70t-25.5 40t-40.5 18.5t-56 4.5t-56 -4.5
t-40.5 -18.5t-25.5 -40t-10 -70l-29 -1100q-1 -42 7.5 -70t28 -44.5t50.5 -23.5t75 -7t75.5 7t51 23.5t27.5 44.5t7 70l-4 119q-1 30 6.5 48.5t26 28t49.5 12.5t77 3q45 0 73.5 -3t44 -12.5t20.5 -28t4 -48.5l-3 -112q-2 -65 -28 -122.5t-80.5 -100.5t-140 -67.5
t-206.5 -24.5t-207 25t-140.5 68t-80.5 101t-28 123z" />
    <glyph glyph-name="u" unicode="u" horiz-adv-x="1086" 
d="M101 1129q0 21 4.5 35.5t21.5 22.5t49.5 11.5t86.5 3.5t86.5 -3.5t49.5 -11.5t21.5 -22.5t4.5 -35.5l-23 -816q-1 -44 10 -72t29.5 -44.5t41.5 -23t47 -6.5q43 0 77 18.5t60 41.5l-26 902q0 21 4.5 35.5t21.5 22.5t49.5 11.5t86.5 3.5t86.5 -3.5t49.5 -11.5t21.5 -22.5
t4.5 -35.5l-31 -1072q0 -19 -5 -30t-19 -17t-39.5 -8t-67.5 -2q-39 0 -62.5 2t-36 8t-17 17t-4.5 30l-2 47q-22 -20 -50 -41t-63.5 -37.5t-78 -27t-93.5 -10.5q-124 0 -195 71t-75 209z" />
    <glyph glyph-name="t" unicode="t" horiz-adv-x="638" 
d="M168 926h-56q-26 0 -40.5 4t-21.5 15t-8.5 30.5t-1.5 50.5q0 28 1.5 45.5t8.5 27.5t21.5 13.5t40.5 3.5h51l-6 279q0 21 4.5 35.5t21.5 22.5t49.5 11.5t86.5 3.5t86.5 -3.5t49.5 -11.5t21.5 -22.5t4.5 -35.5l-7 -279h52q26 0 40.5 -3.5t21.5 -13.5t8.5 -27.5t1.5 -45.5
q0 -31 -1.5 -50.5t-8.5 -30.5t-21.5 -15t-40.5 -4h-56l-20 -869q0 -19 -5 -30t-19 -17t-39.5 -8t-67.5 -2t-67.5 2t-39 8t-18.5 17t-5 30z" />
    <glyph glyph-name="U" unicode="U" horiz-adv-x="1201" 
d="M110 1607q-1 26 5 42t25.5 25t56 12.5t95.5 3.5t95 -3.5t55.5 -12.5t26 -25t5.5 -42l-34 -1311q-1 -42 7.5 -70t28 -44.5t50.5 -23.5t75 -7t75 7t50.5 23.5t28 44.5t7.5 70l-35 1311q-1 26 5 42t25.5 25t55.5 12.5t96 3.5q59 0 95 -3.5t55.5 -12.5t26 -25t5.5 -42
l-35 -1302q-2 -65 -28 -123t-80.5 -101t-140 -68t-206.5 -25t-207 25t-140.5 68t-80.5 101t-27 123z" />
    <glyph glyph-name="k" unicode="k" horiz-adv-x="1005" 
d="M131 1651q0 21 4.5 35.5t21.5 22.5t49.5 11.5t86.5 3.5t86.5 -3.5t49.5 -11.5t21.5 -22.5t4.5 -35.5l-31 -1594q0 -19 -5 -30t-19 -17t-39.5 -8t-67.5 -2t-67.5 2t-39 8t-18.5 17t-5 30zM499 542l150 595q5 21 14 33.5t27.5 19.5t51 9.5t83.5 2.5q46 0 74 -1.5t42.5 -6.5
t19 -15t4.5 -26q0 -11 -4 -25.5t-10 -33.5l-184 -552l168 -455q17 -46 17 -55q0 -10 -4.5 -16.5t-17 -10t-36.5 -4.5t-63 -1t-62.5 2t-37.5 8t-21.5 17t-14.5 30z" />
    <glyph glyph-name="x" unicode="x" horiz-adv-x="978" 
d="M81 32q0 9 17 55l180 503l-220 504q-8 18 -13 33t-5 26q0 16 6 26t22.5 15t44 6.5t71.5 1.5q54 0 86 -2t50 -8.5t26 -18.5t14 -32l123 -422h14l121 422q6 20 14 32t26 18.5t50 8.5t86 2q43 0 71 -1.5t44.5 -6.5t22.5 -15t6 -26q0 -11 -5 -26t-13 -33l-220 -504l180 -503
q17 -43 17 -55q0 -10 -4.5 -16.5t-17 -10t-36.5 -4.5t-63 -1t-62.5 2t-37.5 8t-21.5 17t-14.5 30l-143 397h-14l-145 -397q-7 -19 -14.5 -30t-21.5 -17t-37.5 -8t-62.5 -2t-63 1t-36.5 4.5t-17 10t-4.5 16.5z" />
    <glyph glyph-name="y" unicode="y" horiz-adv-x="958" 
d="M24 1129q-6 21 -1.5 35t22.5 22.5t52.5 12t88.5 3.5t85 -3.5t47 -11.5t21.5 -22.5t8.5 -35.5l133 -889h24l105 889q3 21 8.5 35.5t21.5 22.5t47 11.5t85 3.5t88.5 -3.5t52.5 -12t22.5 -22.5t-1.5 -35l-228 -1010l-14 -62l-90 -403q-5 -21 -12 -35.5t-20.5 -22.5
t-37 -11.5t-61.5 -3.5q-68 0 -88.5 16t-13.5 57l70 346h-43q-30 0 -49.5 2t-32.5 8.5t-20 17.5t-12 29z" />
    <glyph glyph-name="z" unicode="z" horiz-adv-x="823" 
d="M419 992h-317q-26 0 -40.5 4t-21.5 15t-8.5 30.5t-1.5 50.5q0 34 1.5 55.5t8.5 33.5t21.5 16.5t40.5 4.5h614q30 0 47 -10t24 -27t5 -38.5t-11 -45.5l-409 -901h318q26 0 40.5 -3.5t21.5 -13.5t8.5 -27.5t1.5 -45.5t-1.5 -45.5t-8.5 -27.5t-21.5 -13.5t-40.5 -3.5h-522
q-42 0 -66 9.5t-33.5 25t-7.5 36.5t11 45z" />
    <glyph glyph-name="f" unicode="f" horiz-adv-x="635" 
d="M144 926h-34q-26 0 -40.5 4t-21.5 15t-8.5 30.5t-1.5 50.5q0 28 1.5 45.5t8.5 27.5t21.5 13.5t40.5 3.5h30l-5 268q-1 65 17 126t55.5 108.5t95.5 76.5t137 29h132q26 0 40.5 -3.5t21.5 -13.5t8.5 -27.5t1.5 -45.5q0 -25 -1 -42.5t-6.5 -28t-16.5 -15t-30 -4.5h-40
q-15 0 -32 -5.5t-32 -20t-25 -40t-11 -65.5l-6 -297h80q26 0 40.5 -3.5t21.5 -13.5t8.5 -27.5t1.5 -45.5q0 -31 -1.5 -50.5t-8.5 -30.5t-21.5 -15t-40.5 -4h-84l-17 -869q0 -19 -5 -30t-19 -17t-39.5 -8t-67.5 -2t-67.5 2t-39 8t-18.5 17t-5 30z" />
    <glyph glyph-name="kgreenlandic" unicode="&#x138;" horiz-adv-x="1005" 
d="M659 1137q5 20 13.5 33t26.5 20t48 9.5t78 2.5q46 0 74 -1.5t42.5 -6.5t19 -15t4.5 -26q0 -11 -4 -25.5t-10 -33.5l-206 -634l184 -359q13 -25 20 -41.5t7 -27.5q0 -9 -4.5 -15t-17 -10t-36.5 -5.5t-63 -1.5t-62 2.5t-37.5 8.5t-23 17t-17.5 29l-214 403zM121 1129
q0 21 4.5 35.5t21.5 22.5t49.5 11.5t86.5 3.5t86.5 -3.5t49.5 -11.5t21.5 -22.5t4.5 -35.5l-31 -1072q0 -19 -5 -30t-19 -17t-39.5 -8t-67.5 -2t-67.5 2t-39 8t-18.5 17t-5 30z" />
    <glyph glyph-name="thorn" unicode="&#xfe;" horiz-adv-x="1087" 
d="M120 1651q0 21 4.5 35.5t21.5 22.5t49.5 11.5t86.5 3.5q55 0 87 -3t49 -11.5t21.5 -22.5t4.5 -35l-9 -547q23 22 49.5 42t55.5 35t62 23.5t69 8.5q70 0 127 -24.5t97.5 -68.5t61.5 -105t19 -133l-18 -563q-3 -90 -24 -153.5t-57.5 -103t-88.5 -57.5t-116 -18
q-42 0 -79 7.5t-68.5 20.5t-57.5 29.5t-47 33.5l-7 -441q0 -19 -5 -30t-18.5 -17t-39 -8t-67.5 -2t-67.5 1.5t-39.5 7.5t-18.5 17t-4.5 30zM422 212q23 -18 54.5 -31.5t70.5 -13.5q64 0 100.5 39.5t34.5 113.5l-15 563q-1 34 -10.5 58t-25 38.5t-35.5 21t-42 6.5
q-33 0 -65 -14.5t-56 -33.5z" />
    <glyph glyph-name="G" unicode="G" horiz-adv-x="1145" 
d="M125 1357q-2 73 24.5 134t86.5 105t156 69t233 25h298q34 0 52 -3.5t26.5 -15.5t9.5 -34t1 -59q0 -30 -3 -48t-9.5 -28t-18 -13t-29.5 -3h-328q-37 1 -64.5 -2.5t-45.5 -17.5t-27 -40.5t-10 -70.5l-30 -1059q-1 -42 6.5 -70t24.5 -44.5t44.5 -23.5t66.5 -7t66.5 7
t45 23.5t24.5 44.5t6 70l-18 642q-1 30 6 48.5t26.5 28t53.5 12.5t86 3t84 -3t48.5 -12.5t21.5 -28t4 -48.5l-18 -635q-2 -65 -27 -122.5t-77 -100.5t-134 -67.5t-198 -24.5t-198 25t-134 68t-77 101t-27 123z" />
    <glyph glyph-name="J" unicode="J" horiz-adv-x="1015" 
d="M50 696q0 30 6.5 48.5t24 28t47.5 12.5t76 3q52 0 84.5 -3t50 -12.5t23.5 -28t5 -48.5l-9 -400q-1 -42 4 -70t17.5 -44.5t32 -23.5t48.5 -7t49 7t32 23.5t17 44.5t4 70l-36 1311q-1 26 5 42t25.5 25t55.5 12.5t96 3.5q59 0 95 -3.5t55.5 -12.5t26 -25t5.5 -42l-36 -1302
q-2 -65 -24 -123t-69 -101t-121 -68t-180 -25q-105 0 -180 24.5t-123 67.5t-71 100.5t-25 122.5z" />
    <glyph glyph-name="M" unicode="M" horiz-adv-x="1545" 
d="M125 1607q-1 26 7 42t28.5 25t56 12.5t90.5 3.5q50 0 84 -2.5t55.5 -8.5t33 -17t16.5 -27l278 -850h11l274 850q4 16 15 27t32 17t53 8.5t79 2.5q59 0 95 -3.5t56 -12.5t26.5 -25t5.5 -42l-44 -1539q-1 -23 -5 -36.5t-17.5 -20.5t-38.5 -9t-68 -2q-42 0 -67.5 2t-38.5 9
t-17.5 20.5t-4.5 36.5l7 1077h-13l-230 -799q-6 -19 -12.5 -31t-18.5 -18.5t-32.5 -8.5t-54.5 -2q-30 0 -48 2.5t-28.5 9t-16.5 18t-12 30.5l-227 799h-13l5 -1077q0 -23 -4.5 -36.5t-18 -20.5t-38.5 -9t-68 -2t-68 2t-38.5 9t-17.5 20.5t-5 36.5z" />
    <glyph glyph-name="K" unicode="K" horiz-adv-x="1100" 
d="M528 719l183 881q7 29 16.5 46.5t29 27.5t52 13t85.5 3q87 0 129.5 -10.5t42.5 -47.5q0 -13 -1 -23t-3.5 -20t-5.5 -20.5t-7 -23.5l-245 -826l227 -577q14 -36 21.5 -58.5t7.5 -38.5q0 -12 -4 -20.5t-17.5 -14t-38.5 -8t-66 -2.5q-35 0 -56.5 3.5t-35 12.5t-23 24.5
t-19.5 39.5zM125 1607q-1 26 5 42t25.5 25t55.5 12.5t96 3.5q59 0 95 -3.5t55.5 -12.5t26 -25t5.5 -42l-44 -1539q0 -23 -4.5 -36.5t-19 -20.5t-41.5 -9t-73 -2t-73.5 2t-41.5 9t-18.5 20.5t-5.5 36.5z" />
    <glyph glyph-name="R" unicode="R" horiz-adv-x="1140" 
d="M125 1607q-1 26 5 42t25.5 25t55.5 12.5t96 3.5h25h228q103 0 191.5 -18.5t153.5 -58t101.5 -101t33.5 -148.5l-13 -475q-1 -38 -11.5 -77t-32.5 -74.5t-56.5 -66.5t-84.5 -54l187 -475q14 -36 21.5 -58.5t7.5 -38.5q0 -12 -4 -20.5t-17.5 -14t-38.5 -8t-66 -2.5
q-40 0 -64.5 3.5t-40.5 12.5t-26.5 24.5t-22.5 39.5l-209 490h-110l-14 -502q0 -23 -4.5 -36.5t-19 -20.5t-41.5 -9t-73 -2t-73.5 2t-41.5 9t-18.5 20.5t-5.5 36.5zM539 733q48 0 80 7.5t50.5 24.5t26 45.5t6.5 70.5l-14 515q-1 39 -8 62.5t-25 36.5t-48.5 17.5t-78.5 4.5
h-42l-22 -784h75z" />
    <glyph glyph-name="B" unicode="B" horiz-adv-x="1140" 
d="M125 1607q-1 26 5 42t25.5 25t55.5 12.5t96 3.5h25h228q103 0 191.5 -18.5t153.5 -58t101 -101t34 -148.5l-6 -277q-1 -42 -13.5 -86.5t-39 -85t-69 -74.5t-103.5 -57q98 -39 155.5 -111.5t53.5 -178.5l-6 -177q-2 -57 -24.5 -113.5t-74 -102t-136 -73.5t-209.5 -28h-243
h-18q-46 0 -73.5 2t-41.5 9t-18.5 20.5t-5.5 36.5zM539 872q48 0 80 7t50.5 24.5t26 45.5t6.5 70l-14 377q-1 39 -8 62.5t-25 36.5t-48.5 17.5t-78.5 4.5h-42l-18 -645h71zM554 163q48 0 80.5 7.5t51.5 24.5t26.5 45.5t5.5 70.5l-6 260q-2 39 -10.5 63.5t-27.5 38.5
t-50.5 19t-79.5 5h-81l-16 -534h107z" />
    <glyph glyph-name="Q" unicode="Q" horiz-adv-x="1208" 
d="M120 1365q-2 75 25 137t85.5 106t151 68.5t222.5 24.5q129 0 221.5 -24.5t151.5 -68.5t86 -106t25 -137l-29 -1060q-2 -83 -44 -152.5t-132 -112.5l123 -184q24 -35 39 -58.5t15 -38.5q0 -12 -3.5 -20.5t-16 -14t-36.5 -8t-65 -2.5q-39 0 -61.5 2.5t-37.5 10.5t-27 22.5
t-30 38.5l-147 201q-8 -1 -16 -1h-16q-121 0 -207 25t-140.5 68t-80.5 101t-28 123zM443 296q-1 -42 7.5 -70t28 -44.5t50.5 -23.5t75 -7t75 7t50.5 23.5t28 44.5t7.5 70l-29 1100q-1 44 -10 70t-25.5 40t-40.5 18.5t-56 4.5t-56 -4.5t-40.5 -18.5t-25.5 -40t-10 -70z" />
    <glyph glyph-name="V" unicode="V" horiz-adv-x="1121" 
d="M34 1607q-6 25 -0.5 41t25 25.5t55.5 13t92 3.5q63 0 99.5 -3.5t56 -12.5t26.5 -25.5t10 -41.5l154 -1208h32l150 1208q3 25 9.5 41.5t25 25.5t53 12.5t94.5 3.5q56 0 92 -3.5t55.5 -13t24.5 -25.5t0 -41l-333 -1539q-6 -22 -15.5 -35.5t-29.5 -20.5t-53.5 -9.5
t-86.5 -2.5q-56 0 -91 2.5t-56 9.5t-31.5 20.5t-16.5 35.5z" />
    <glyph glyph-name="W" unicode="W" horiz-adv-x="1764" 
d="M53 1607q-6 25 0 41t27.5 25.5t62 13t103.5 3.5t100 -3.5t57.5 -12.5t27 -25t7.5 -42l63 -1320h30l195 1320q3 25 9 41.5t22.5 25.5t47 12.5t83.5 3.5q56 0 88.5 -3.5t49.5 -12.5t23.5 -25.5t10.5 -41.5l196 -1320h30l62 1320q1 25 7.5 41.5t25.5 25.5t54.5 12.5
t95.5 3.5q59 0 96.5 -3.5t57.5 -12.5t26 -25.5t2 -41.5l-265 -1539q-5 -22 -13 -35.5t-25 -20.5t-45 -9.5t-72 -2.5q-59 0 -96 2t-59.5 9.5t-33 20.5t-16.5 36l-190 1124h-21l-189 -1124q-5 -23 -15 -36t-31.5 -20.5t-57 -9.5t-91.5 -2q-50 0 -81.5 2.5t-50.5 9.5t-28 20.5
t-15 35.5z" />
    <glyph glyph-name="X" unicode="X" horiz-adv-x="1124" 
d="M92 53q0 15 5.5 34t16.5 55l207 648l-270 755q-9 28 -15 47.5t-6 39.5q0 19 8 30.5t29 17.5t57 8t91 2t88 -2t52.5 -10.5t28.5 -26t16 -49.5l152 -686h20l151 686q7 32 16 49.5t28 26t52 10.5t89 2q55 0 91 -2t57 -8t29.5 -17.5t8.5 -30.5q0 -20 -6.5 -39t-16.5 -48
l-265 -755l207 -648l16.5 -55.5t5.5 -33.5q0 -12 -4 -22t-16.5 -16.5t-35.5 -10.5t-61 -4q-40 0 -66 3t-42.5 12t-26.5 24.5t-19 40.5l-191 552h-20l-191 -552q-9 -25 -19 -40.5t-26.5 -24.5t-42 -12t-65.5 -3q-38 0 -61 4t-35.5 10.5t-16.5 16.5t-4 22z" />
    <glyph glyph-name="Y" unicode="Y" horiz-adv-x="1124" 
d="M411 527l-360 1014q-9 27 -15 49t-6 42q0 19 8 30.5t29 17.5t57 8t91 2t88.5 -2t53 -10.5t28.5 -26t15 -49.5l151 -782h22l150 782q6 32 15 50t28 26.5t52.5 10t89.5 1.5q55 0 91 -2t57 -8t29.5 -17.5t8.5 -30.5q0 -20 -7 -41.5t-16 -49.5l-357 -1021l-13 -452
q-1 -23 -5.5 -36.5t-18.5 -20.5t-41.5 -9t-73.5 -2t-73 2t-41 9t-18.5 20.5t-5.5 36.5z" />
    <glyph glyph-name="Z" unicode="Z" horiz-adv-x="994" 
d="M102 98q0 28 1 46t6 29l441 1321h-419q-26 0 -40.5 4t-21.5 14.5t-8.5 30t-1.5 49.5t1.5 49t8.5 30t21.5 15t40.5 4h599h20h113q26 0 40.5 -4t21.5 -15t8.5 -30t1.5 -49q0 -29 -1 -47.5t-7 -29.5l-509 -1319h402q26 0 40.5 -4t21 -15t8 -30t1.5 -49t-1.5 -49t-8 -30
t-21 -15t-40.5 -4h-557h-16h-74q-26 0 -40.5 4t-21 15t-8 30t-1.5 49z" />
    <glyph glyph-name="v" unicode="v" horiz-adv-x="958" 
d="M24 1129q-6 21 -1.5 35t22.5 22.5t52.5 12t88.5 3.5t85 -3.5t47 -11.5t21.5 -22.5t8.5 -35.5l119 -889h24l119 889q3 21 8.5 35.5t21.5 22.5t47 11.5t85 3.5t88.5 -3.5t52.5 -12t22.5 -22.5t-1.5 -35l-272 -1072q-5 -18 -11 -29t-19.5 -17.5t-37 -8.5t-62.5 -2h-106
q-39 0 -62.5 2t-37 8.5t-19.5 17.5t-11 29z" />
    <glyph glyph-name="w" unicode="w" horiz-adv-x="1509" 
d="M34 1129q-5 21 -1 35t21 22.5t49 12t83 3.5q54 0 85.5 -3.5t48 -11.5t21.5 -22t7 -36l65 -889h24l151 889q4 21 11.5 35.5t24.5 22.5t48 11.5t82 3.5q54 0 86 -3.5t49.5 -11.5t24.5 -22.5t12 -35.5l151 -889h24l65 889q1 21 7 35.5t22.5 22.5t47 11.5t81.5 3.5t83 -3.5
t48.5 -12t20.5 -22.5t0 -35l-186 -1072q-4 -18 -10 -29.5t-19.5 -17.5t-37.5 -8t-63 -2h-104q-39 0 -62.5 2t-37 8t-20 17.5t-10.5 29.5l-168 811h-9l-167 -811q-5 -18 -11 -29t-19.5 -17.5t-37 -8.5t-62.5 -2h-102q-39 0 -62.5 2t-37 8.5t-19.5 17.5t-11 29z" />
    <glyph glyph-name="comma" unicode="," horiz-adv-x="619" 
d="M136 252q-2 21 3.5 35.5t25 22.5t56 11.5t97.5 3.5q58 0 92 -3.5t52 -11.5t23.5 -22.5t4.5 -35.5l-8 -163q-1 -16 -2 -27.5t-3 -21t-5.5 -19t-7.5 -21.5l-87 -237q-10 -26 -18 -41t-18.5 -22.5t-25.5 -10t-39 -2.5q-39 0 -59.5 6t-20.5 29q0 17 6 43.5t17 68.5l42 174
h-58q-36 0 -46.5 16t-12.5 41z" />
    <glyph glyph-name="zero" unicode="0" horiz-adv-x="1171" 
d="M121 1389q-2 75 29.5 133t91.5 98t147 60.5t196 20.5t196 -20.5t147.5 -60.5t92 -98t29.5 -133l-29 -1116q-2 -65 -32.5 -117.5t-87 -90t-136.5 -57.5t-180 -20q-101 0 -180.5 20t-135.5 57.5t-86.5 90t-32.5 117.5zM423 312q-2 -84 36 -118.5t126 -34.5t126.5 34.5
t36.5 118.5l-30 1077q-1 43 -10 69.5t-25.5 40t-41 18t-56.5 4.5t-56.5 -4.5t-41 -18t-25 -40t-9.5 -69.5z" />
    <glyph glyph-name="one" unicode="1" horiz-adv-x="684" 
d="M244 1278h-8l-138 -135q-16 -16 -32 -24.5t-27 -8.5q-6 0 -13 2t-12.5 8.5t-9 18.5t-3.5 33v172q0 23 2 40t7.5 30.5t14 25t21.5 24.5l188 197l1 1l3 3q16 15 51.5 20t101.5 5q53 0 89.5 -3.5t59 -12.5t32 -25t8.5 -42l-44 -1539q-1 -23 -8.5 -36.5t-25 -20.5t-44.5 -9
t-67 -2t-64 2t-37.5 9t-18.5 20.5t-5 36.5z" />
    <glyph glyph-name="two" unicode="2" horiz-adv-x="1170" 
d="M156 97q0 35 7.5 56.5t24.5 40.5l460 619q22 27 38 49t25.5 46t13.5 52t3 67l-11 362q-1 43 -10 69.5t-25.5 40t-41 18t-56.5 4.5t-56.5 -4.5t-41 -18t-25 -40t-9.5 -69.5l-12 -424q-1 -30 -9 -48.5t-26 -28t-48 -12.5t-74 -3t-73 3t-46 12.5t-24.5 28t-8.5 48.5l-30 416
q-2 75 29.5 134.5t93.5 100.5t152.5 63t207.5 22q114 0 203 -22t150 -63t92.5 -100.5t29.5 -134.5l-22 -426q-1 -34 -7.5 -63.5t-20 -57.5t-34.5 -56t-50 -58l-457 -526v-8h481q26 0 40.5 -6t21.5 -17.5t8.5 -27t1.5 -34.5q0 -28 -1.5 -47t-8.5 -31t-21.5 -17.5t-40.5 -5.5
h-721q-22 0 -36 2.5t-22 10t-11 20.5t-3 34v30z" />
    <glyph glyph-name="seven" unicode="7" horiz-adv-x="1029" 
d="M637 1485l-308 -1l-26 -213q0 -19 -4.5 -30t-17.5 -17t-36.5 -8t-62.5 -2q-45 0 -72.5 2t-42.5 8t-20 17t-5 30l-12 346q0 21 4.5 34.5t20 22t46 12.5t81.5 4h754q26 0 40.5 -4t21 -15t8 -30t2.5 -49q1 -32 -1 -50t-4 -26l-516 -1448q-8 -19 -15.5 -32t-20.5 -21
t-34 -11.5t-55 -3.5q-40 0 -66 2t-41 9.5t-19 20.5t1 36z" />
    <glyph glyph-name="eight" unicode="8" horiz-adv-x="1176" 
d="M145 482q-2 53 10.5 91t37.5 67.5t63 54.5t88 54v8q-66 28 -107 59.5t-64 66.5t-31.5 73.5t-9.5 79.5l-21 371q-1 55 19 98.5t55.5 76t82.5 55.5t100.5 37t109.5 20.5t109 6.5t109.5 -6.5t110 -20.5t101 -37t83 -55.5t55.5 -76t19 -98.5l-21 -371q-1 -41 -9.5 -79.5
t-31.5 -73.5t-64 -66.5t-107 -59.5v-8q50 -29 88 -54t63 -54.5t37 -67.5t11 -91l-7 -204q-2 -59 -23.5 -111.5t-72 -92t-134 -63t-207.5 -23.5q-123 0 -205.5 23.5t-133 63t-73 92t-23.5 111.5zM589 837q77 0 112 31.5t32 115.5l-14 405q-2 39 -9.5 64.5t-23 41t-40 21.5
t-59.5 6q-34 0 -58 -6t-39.5 -21.5t-23.5 -41t-9 -64.5l-14 -405q-2 -42 6 -70t26 -45.5t46.5 -24.5t67.5 -7zM423 307q-2 -80 38 -113t126 -33h2q85 0 125.5 33t38.5 113l-6 229q-1 39 -11 63.5t-29.5 38t-49.5 18.5t-70 5t-69.5 -5t-49 -18.5t-29 -38t-10.5 -63.5z" />
    <glyph glyph-name="three" unicode="3" horiz-adv-x="1176" 
d="M148 415q-1 30 4.5 48.5t21.5 28t43 12.5t70 3q40 0 67.5 -3t43.5 -12.5t22.5 -28t5.5 -48.5l-3 -108q-2 -80 38 -113t126 -33h2q85 0 125.5 33t38.5 113l-6 229q-1 39 -11 63.5t-29.5 38t-49.5 18.5t-70 5h-56q-26 0 -40.5 5t-21.5 15.5t-8.5 27.5t-1.5 41t1.5 41
t8.5 27.5t21.5 15t41.5 4.5h57q39 0 66.5 7t45.5 24t25.5 45t6.5 70l-14 405q-2 39 -9.5 64.5t-23 41t-40 21.5t-59.5 6q-34 0 -58 -6t-40 -21.5t-23.5 -41t-8.5 -64.5l-13 -345q-1 -31 -9 -49t-26 -27.5t-48 -12.5t-74 -3t-73 3t-46 12.5t-24.5 27.5t-8.5 49l-22 363
q-1 55 19 98.5t55.5 76t83 55.5t100.5 37t108.5 20.5t107.5 6.5t107.5 -6.5t108.5 -20.5t100 -37t81.5 -55.5t54.5 -76t19 -98.5l-14 -371q-2 -41 -10.5 -79.5t-31.5 -73.5t-63.5 -66.5t-106.5 -59.5v-8q50 -29 88 -54t63 -54.5t37 -67.5t11 -91l-7 -204
q-2 -59 -23.5 -111.5t-72 -92t-134 -63t-207.5 -23.5q-123 0 -205.5 23.5t-133 63t-72.5 92t-24 111.5z" />
    <glyph glyph-name="nine" unicode="9" horiz-adv-x="1166" 
d="M211 94q0 30 3 48t9.5 28t18 13t29.5 3h289q48 0 81 9t53 29t29 52t9 77v229q-19 -6 -39 -11.5t-44 -10t-54.5 -7t-69.5 -2.5q-37 0 -80.5 5t-87 16t-84.5 30t-73.5 47t-52.5 66t-21 88l-25 604q-1 55 19 98.5t55.5 76t82.5 55.5t100.5 37t109.5 20.5t109 6.5t109.5 -6.5
t110.5 -20.5t101.5 -37t83 -55.5t55.5 -76t18 -98.5l-51 -1117q-2 -59 -23.5 -111.5t-72.5 -92t-136 -63t-213 -23.5h-259q-31 0 -49 1t-27 9.5t-11 27.5t-2 56zM579 727q37 0 74.5 5t72.5 19l-17 638q-1 39 -9 64.5t-23.5 41t-40 21.5t-59.5 6q-34 0 -58 -6t-39.5 -21.5
t-23.5 -41t-9 -64.5l-14 -515q-2 -42 6 -70t26 -45.5t46.5 -24.5t67.5 -7z" />
    <glyph glyph-name="six" unicode="6" horiz-adv-x="1159" 
d="M111 1378q-2 75 30 133t93.5 98t150.5 60.5t201 20.5h339q31 0 49 -4t27 -16t11 -34t2 -59q0 -60 -12.5 -84t-47.5 -24h-369q-32 0 -56.5 -4t-41 -18t-25.5 -40t-10 -70l-6 -226q41 12 91.5 20t111.5 8q37 0 81 -5t89 -17t86.5 -31.5t74 -48t51 -67t17.5 -88.5l-27 -609
q-2 -65 -32.5 -117.5t-87 -90t-136.5 -57.5t-180 -20q-101 0 -180.5 20t-135.5 57.5t-86.5 90t-32.5 117.5zM423 312q-2 -84 36 -118.5t126 -34.5t126.5 34.5t36.5 118.5l-14 498q-1 42 -9.5 70t-26.5 44.5t-46 23.5t-67 7q-37 0 -72.5 -4.5t-70.5 -18.5z" />
    <glyph glyph-name="five" unicode="5" horiz-adv-x="1115" 
d="M122 417q-1 26 3.5 42t19.5 25t42.5 12.5t74.5 3.5q50 0 80 -3.5t45.5 -12.5t20.5 -25t4 -42l-3 -105q-2 -84 31.5 -118.5t110.5 -34.5t111 34.5t32 118.5l-14 506q-1 42 -9.5 69.5t-26.5 44t-46 23t-67 6.5h-201q-11 -1 -25 -1h-30q-47 0 -74 2t-41.5 9t-19 20.5
t-5.5 36.5l-24 579q-1 26 6 42t25.5 25t50.5 12.5t82 3.5h1h641q26 0 40.5 -5t21.5 -17.5t8.5 -34t1.5 -54.5t-1.5 -54.5t-8.5 -34t-21.5 -17.5t-40.5 -5h-484l-13 -321h315q37 0 86 -12t92.5 -41.5t73 -79t27.5 -124.5l-37 -617q-2 -65 -32 -117.5t-84.5 -90t-133 -57.5
t-176.5 -20t-176 20t-133 57.5t-84.5 90t-31.5 117.5z" />
    <glyph glyph-name="four" unicode="4" horiz-adv-x="1009" 
d="M124 365q-15 0 -34.5 3.5t-37 11t-29.5 19.5t-12 28v33q0 30 9.5 58t20.5 59l330 1019q10 31 24 49.5t36.5 28.5t55.5 13t83 3q118 0 158.5 -25t19.5 -76l-414 -1028h296l-10 356q-1 26 7.5 42t29 25t53 12.5t79.5 3.5q53 0 83.5 -3t45 -11.5t18 -25t2.5 -43.5l-24 -849
q-1 -23 -8.5 -36.5t-25 -20.5t-44.5 -9t-67 -2t-64 2t-37.5 9t-18.5 20.5t-5 36.5l-9 297h-481h-30v0z" />
    <glyph glyph-name="semicolon" unicode=";" horiz-adv-x="596" 
d="M298 843q-52 0 -84.5 2t-50.5 8t-25 17t-8 30l-9 228q-2 21 4 35.5t25 22.5t54.5 11.5t93.5 3.5t93 -3.5t54 -11.5t25 -22.5t5 -35.5l-9 -228q-1 -19 -8 -30t-25 -17t-50.5 -8t-84.5 -2zM136 252q-2 21 3.5 35.5t25 22.5t56 11.5t97.5 3.5q58 0 92 -3.5t52 -11.5
t23.5 -22.5t4.5 -35.5l-8 -163q-1 -16 -2 -27.5t-3 -21t-5.5 -19t-7.5 -21.5l-87 -237q-10 -26 -18 -41t-18.5 -22.5t-25.5 -10t-39 -2.5q-39 0 -59.5 6t-20.5 29q0 17 6 43.5t17 68.5l42 174h-58q-36 0 -46.5 16t-12.5 41z" />
    <glyph glyph-name="parenleft" unicode="(" horiz-adv-x="687" 
d="M101 1324q-3 142 34.5 249.5t102.5 180t150.5 109.5t177.5 37h41q21 0 33 -2.5t18 -11.5t7.5 -25.5t1.5 -43.5q0 -30 -2.5 -47.5t-9.5 -26.5t-18 -11.5t-29 -2.5q-67 0 -114 -16.5t-77 -53t-44.5 -94.5t-15.5 -139l-13 -1276q-2 -81 12.5 -136t44 -89.5t74 -49.5
t104.5 -15q16 0 27.5 -2t18.5 -10t10 -23.5t3 -42.5q0 -24 -2 -38.5t-8.5 -22t-18.5 -10t-31 -2.5h-49q-191 0 -298 135.5t-112 399.5z" />
    <glyph glyph-name="parenright" unicode=")" horiz-adv-x="687" 
d="M585.964 1324q3 142 -34.4971 249.5q-37.498 107.5 -102.494 180t-150.491 109.5q-85.4941 37 -177.489 37h-40.9971q-20.999 0 -32.998 -2.5t-17.999 -11.5q-5.99902 -9 -7.49902 -25.5t-1.5 -43.5q0 -30 2.5 -47.5q2.49902 -17.5 9.49902 -26.5t17.999 -11.5
t28.998 -2.5q66.9961 0 113.993 -16.5t76.9951 -53t44.4971 -94.5t15.499 -139l13 -1276q1.99902 -81 -12.5 -136t-43.9971 -89.5t-73.9951 -49.5t-104.494 -15q-15.999 0 -27.498 -2t-18.499 -10q-6.99902 -8 -9.99902 -23.5t-3 -42.5q0 -24 2 -38.5t8.49902 -22
q6.5 -7.5 18.499 -10t30.998 -2.5h48.9971q190.988 0 297.982 135.5q106.993 135.5 111.992 399.5z" />
    <glyph glyph-name="braceleft" unicode="{" horiz-adv-x="775" 
d="M259 497q-1 37 -11 62t-28 39t-43.5 20t-56.5 6h-18q-23 0 -35.5 5t-18.5 15.5t-7 27.5t-1 42t1 42.5t7 28t18.5 15t35.5 4.5h18q62 0 95 34.5t31 115.5l-15 586q-2 78 11 144.5t51.5 114.5t106.5 75.5t176 27.5h119q21 0 33 -3t18 -12t7.5 -25.5t1.5 -43.5
q0 -30 -2.5 -48.5t-9.5 -28.5t-18 -13t-29 -3h-54q-42 0 -68.5 -8.5t-42 -30t-21.5 -57t-7 -89.5l-9 -501q-1 -50 -5.5 -94.5t-19.5 -83.5t-45 -73.5t-81 -65.5v-8q50 -32 78.5 -60.5t42.5 -61.5t17 -73t2 -94l-9 -379q-1 -44 5.5 -77t24.5 -54.5t48 -32t75 -10.5h42
q19 0 30 -3.5t16.5 -12.5t7 -26t1.5 -44t-2.5 -43t-9.5 -24.5t-18.5 -10.5t-30.5 -2h-53q-96 0 -160 22t-103 65t-56.5 106.5t-19.5 146.5z" />
    <glyph glyph-name="braceright" unicode="}" horiz-adv-x="775" 
d="M148 -128q45 0 75 10.5t48 32t24.5 54.5t5.5 77l-9 379q-1 54 2 94t17 73t42.5 61.5t78.5 60.5v8q-51 31 -81 65.5t-45 73.5t-19.5 83.5t-5.5 94.5l-9 501q-1 54 -7 89.5t-21.5 57t-42 30t-68.5 8.5h-54q-18 0 -29 3t-18 13t-9.5 28.5t-2.5 48.5q0 27 1.5 43.5t7.5 25.5
t18 12t33 3h119q108 0 176 -27.5t106.5 -75.5t51.5 -114.5t11 -144.5l-15 -586q-2 -81 31 -115.5t95 -34.5h18q23 0 35.5 -4.5t18.5 -15t7 -28t1 -42.5t-1.5 -42t-7.5 -27.5t-18.5 -15.5t-34.5 -5h-18q-32 0 -57 -6t-43 -20t-28 -39t-11 -62l-12 -451q-2 -83 -19.5 -146.5
t-56.5 -106.5t-103 -65t-160 -22h-53q-19 0 -31 2t-18.5 10.5t-9 24.5t-2.5 43t1.5 44t7 26t16.5 12.5t30 3.5h42z" />
    <glyph glyph-name="bracketleft" unicode="[" horiz-adv-x="666" 
d="M126 1758q-2 49 3.5 77.5t23 43.5t49.5 19t83 4h311q21 0 33 -3t18 -12t7.5 -25.5t1.5 -43.5q0 -30 -2.5 -48.5t-9.5 -28.5t-18 -13t-29 -3l-189 -1l-37 -1852h199q19 0 30 -3.5t16.5 -12.5t7 -26t1.5 -44t-2.5 -43t-9.5 -24.5t-18.5 -10.5t-30.5 -2h-290q-28 0 -46 3
t-28.5 13t-14.5 28.5t-5 49.5z" />
    <glyph glyph-name="bracketright" unicode="]" horiz-adv-x="666" 
d="M295 -128l-37 1852l-189 1q-18 0 -29 3t-18 13t-9.5 28.5t-2.5 48.5q0 27 1.5 43.5t7.5 25.5t18 12t33 3h311q51 0 83 -4t49.5 -19t22.5 -43.5t4 -77.5l-54 -1958q-1 -31 -5.5 -49.5t-15 -28.5t-28 -13t-45.5 -3h-290q-19 0 -31 2t-18.5 10.5t-9 24.5t-2.5 43t1.5 44
t7 26t16.5 12.5t30 3.5h199z" />
    <glyph glyph-name="colon" unicode=":" horiz-adv-x="596" 
d="M298 843q-52 0 -84.5 2t-50.5 8t-25 17t-8 30l-9 228q-2 21 4 35.5t25 22.5t54.5 11.5t93.5 3.5t93 -3.5t54 -11.5t25 -22.5t5 -35.5l-9 -228q-1 -19 -8 -30t-25 -17t-50.5 -8t-84.5 -2zM138 252q-2 21 3 35.5t22 22.5t50 11.5t87 3.5t86.5 -3.5t50 -11.5t22 -22.5
t3.5 -35.5l-11 -195q-1 -19 -6.5 -30t-21.5 -17t-45 -8t-78 -2t-78 2t-44.5 8t-21 17t-6.5 30z" />
    <glyph glyph-name="germandbls" unicode="&#xdf;" horiz-adv-x="1105" 
d="M140 1440q-1 65 30.5 117.5t88.5 89.5t137 57t175 20q82 0 159 -17.5t137 -53.5t95.5 -91t35.5 -130l-9 -276q0 -44 -2 -78t-9.5 -64t-22.5 -59t-41 -64l-123 -163v-12l111 -87q62 -48 95.5 -99t32.5 -124l-3 -129q-1 -47 -16 -96t-49.5 -89.5t-91.5 -66t-142 -25.5h-107
q-21 0 -33 2.5t-18.5 11t-8.5 23.5t-2 40t2 40.5t8.5 24.5t18.5 12t33 3h15q36 0 59.5 7t37 23t18 42.5t3.5 64.5l-4 113q-1 33 -5 56.5t-11 41.5t-18.5 32t-27.5 28l-62 53q-13 11 -21.5 18.5t-13.5 14t-7 13.5t-2 18v36q0 16 2.5 24.5t14.5 25.5l58 89q14 20 21.5 34.5
t11.5 29.5t4.5 32.5t-0.5 44.5l-14 440q-2 37 -7.5 62t-17.5 40.5t-32 22.5t-50 7q-25 0 -46 -4t-37 -17t-25 -37.5t-10 -64.5l-31 -1562q0 -19 -5 -30t-19 -17t-39.5 -8t-67.5 -2t-67.5 2t-39 8t-18.5 17t-5 30z" />
    <glyph glyph-name="AE" unicode="&#xc6;" horiz-adv-x="1440" 
d="M385 1598q6 28 16 46t34 28t67 14t115 4h248h32h431q26 0 40.5 -4t21 -15t8 -30t1.5 -49t-1.5 -49.5t-8 -30t-21 -14.5t-40.5 -4h-285l-17 -614h240q26 0 40.5 -4t21 -14.5t8 -29t1.5 -47.5t-1.5 -47.5t-8 -29t-21 -14.5t-40.5 -4h-246l-14 -503h284q26 0 40.5 -4.5
t21 -15t8 -28.5t1.5 -45t-1.5 -45t-8 -28.5t-21 -15t-40.5 -4.5h-400h-26q-43 0 -68 2t-38 9t-17 20.5t-5 36.5l-7 248h-352l-61 -239q-7 -26 -14.5 -41.5t-22.5 -23.5t-40 -10.5t-67 -2.5q-39 0 -66 2t-42.5 10t-20.5 23.5t0 42.5zM723 507l-28 987h-17l-253 -987h298z" />
    <glyph glyph-name="OE" unicode="&#x152;" horiz-adv-x="1432" 
d="M120 1355q-2 75 25 136.5t85.5 106t151 68.5t222.5 24h717q26 0 40.5 -4t21 -15t8 -30t1.5 -49t-1.5 -49.5t-8 -30t-21 -14.5t-40.5 -4h-285l-17 -615h240q26 0 40.5 -4t21.5 -14.5t8.5 -29t1.5 -47.5t-1.5 -47.5t-8.5 -29t-21.5 -14.5t-40.5 -4h-246l-14 -503h284
q26 0 40.5 -4.5t21 -15t8 -28.5t1.5 -45t-1.5 -45t-8 -28.5t-21 -15t-40.5 -4.5h-400h-4v-1h-275q-121 0 -207 25t-140.5 68t-80.5 101t-28 123zM443 307q-1 -42 7.5 -70t28 -44.5t50.5 -23.5t75 -7h112l-39 1357h-73q-32 0 -56 -4.5t-40.5 -18t-25.5 -40t-10 -69.5z" />
    <glyph glyph-name="sterling" unicode="&#xa3;" horiz-adv-x="1215" 
d="M114 95q0 30 1.5 50.5t8.5 32.5t21.5 17.5t40.5 5.5h60q8 26 12.5 59t3.5 79l-5 141h-81q-26 0 -40.5 5t-21.5 16t-8.5 29.5t-1.5 45.5q0 30 1.5 50.5t8.5 33t21.5 17.5t40.5 5h73l-25 694q-3 75 26.5 134.5t87.5 100.5t144 63t197 22q228 0 342.5 -85t110.5 -235
l-10 -416q-1 -30 -8.5 -48.5t-24.5 -28t-46 -12.5t-73 -3t-74 3t-48 12.5t-26 28t-9 48.5l-12 424q-1 43 -9 69.5t-23.5 40t-37.5 18t-52 4.5t-52.5 -4.5t-38 -18t-23.5 -40t-9 -69.5l-26 -702h246q26 0 40.5 -5.5t21.5 -18t8.5 -33t1.5 -50.5q0 -27 -1.5 -45t-8.5 -29.5
t-21.5 -16t-40.5 -4.5h-254l-2 -74q-5 -69 -17 -118t-28 -87h549q26 0 40.5 -5.5t21.5 -18t8.5 -33t1.5 -50.5q0 -27 -1.5 -45t-8.5 -29.5t-21.5 -16t-40.5 -4.5h-838q-26 0 -40.5 5t-21.5 16t-8.5 29.5t-1.5 45.5z" />
    <glyph glyph-name="hyphen" unicode="-" horiz-adv-x="849" 
d="M196 480q-26 0 -40.5 5.5t-21.5 18t-8.5 33t-1.5 51.5q0 34 1.5 56.5t8.5 36t21.5 19.5t40.5 6h456q26 0 40.5 -6t21.5 -20t8.5 -36.5t1.5 -56.5q0 -31 -1.5 -51.5t-8.5 -33t-21.5 -17.5t-40.5 -5h-456v0z" />
    <glyph glyph-name="endash" unicode="&#x2013;" horiz-adv-x="1080" 
d="M182 480q-26 0 -40.5 5.5t-21.5 18t-8.5 33t-1.5 51.5q0 34 1.5 56.5t8.5 36t21.5 19.5t40.5 6h716q26 0 40.5 -6t21.5 -20t8.5 -36.5t1.5 -56.5q0 -31 -1.5 -51.5t-8.5 -33t-21.5 -17.5t-40.5 -5h-716v0z" />
    <glyph glyph-name="emdash" unicode="&#x2014;" horiz-adv-x="1620" 
d="M182 480q-26 0 -40.5 5.5t-21.5 18t-8.5 33t-1.5 51.5q0 34 1.5 56.5t8.5 36t21.5 19.5t40.5 6h1256q26 0 40.5 -6t21.5 -20t8.5 -36.5t1.5 -56.5q0 -31 -1.5 -51.5t-8.5 -33t-21.5 -17.5t-40.5 -5h-1256v0z" />
    <glyph glyph-name="exclamdown" unicode="&#xa1;" horiz-adv-x="620" 
d="M310 1375q-53 0 -86.5 1t-53.5 6.5t-28.5 17t-9.5 32.5l-6 205q-1 24 4 41t23.5 27t55.5 14.5t101 4.5t101 -4.5t55.5 -14.5t23.5 -26.5t4 -40.5l-6 -206q-1 -19 -8 -30t-26.5 -17t-54 -8t-89.5 -2zM143 1040q-1 26 5 42.5t24 25.5t51.5 12.5t86.5 3.5t86.5 -3.5
t51.5 -12.5t24 -25.5t5 -42.5l-30 -971q-1 -23 -5 -37t-18 -21t-41 -9t-73 -2q-47 0 -74.5 2t-42 9t-19 21t-5.5 37z" />
    <glyph glyph-name="periodcentered" unicode="&#xb7;" horiz-adv-x="600" 
d="M138 707q-2 21 3 35.5t22 22.5t50 11.5t87 3.5t86.5 -3.5t50 -11.5t22 -22.5t3.5 -35.5l-11 -195q-1 -19 -6.5 -30t-21.5 -17t-45 -8t-78 -2t-78 2t-44.5 8t-21 17t-6.5 30z" />
    <glyph glyph-name="ellipsis" unicode="&#x2026;" horiz-adv-x="1800" 
d="M1338 252q-2 21 3 35.5t22 22.5t50 11.5t87 3.5t86.5 -3.5t50 -11.5t22 -22.5t3.5 -35.5l-11 -195q-1 -19 -6.5 -30t-21.5 -17t-45 -8t-78 -2t-78 2t-44.5 8t-21 17t-6.5 30zM738 252q-2 21 3 35.5t22 22.5t50 11.5t87 3.5t86.5 -3.5t50 -11.5t22 -22.5t3.5 -35.5
l-11 -195q-1 -19 -6.5 -30t-21.5 -17t-45 -8t-78 -2t-78 2t-44.5 8t-21 17t-6.5 30zM138 252q-2 21 3 35.5t22 22.5t50 11.5t87 3.5t86.5 -3.5t50 -11.5t22 -22.5t3.5 -35.5l-11 -195q-1 -19 -6.5 -30t-21.5 -17t-45 -8t-78 -2t-78 2t-44.5 8t-21 17t-6.5 30z" />
    <glyph glyph-name="quoteright" unicode="&#x2019;" horiz-adv-x="520" 
d="M174 1086q-50 0 -72 7.5t-22 32.5q0 14 11.5 37.5t31.5 69.5l93 217h-57q-21 0 -34 5.5t-20 14.5t-9.5 21t-3.5 24l-10 136q-2 21 3.5 35.5t24 22.5t53 11.5t92.5 3.5q61 0 98 -3.5t56.5 -11.5t25 -22.5t4.5 -35.5l-7 -141q-1 -22 -2 -39.5t-4 -33.5t-7.5 -32t-13.5 -35
l-103 -216q-11 -22 -20.5 -35t-23 -20.5t-33.5 -10t-51 -2.5z" />
    <glyph glyph-name="quoteleft" unicode="&#x2018;" horiz-adv-x="520" 
d="M255 1086q-58 0 -90.5 3.5t-49 11.5t-21 22.5t-5.5 35.5l-8 171q-2 31 2.5 48.5t12.5 40.5l72 237q7 25 17.5 38.5t27 20t41.5 8t62 1.5q66 0 95 -7.5t29 -32.5q0 -14 -11.5 -38t-34.5 -69l-110 -217h67q21 0 34.5 -5.5t21 -14.5t10 -21t1.5 -24l-8 -136
q-1 -21 -6.5 -35.5t-21.5 -22.5t-46 -11.5t-81 -3.5z" />
    <glyph glyph-name="quotesinglbase" unicode="&#x201a;" horiz-adv-x="520" 
d="M174 -298q-50 0 -72 7.5t-22 32.5q0 14 11.5 37.5t31.5 69.5l93 217h-57q-21 0 -34 5.5t-20 14.5t-9.5 21t-3.5 24l-10 136q-2 21 3.5 35.5t24 22.5t53 11.5t92.5 3.5q61 0 98 -3.5t56.5 -11.5t25 -22.5t4.5 -35.5l-7 -141q-1 -22 -2 -39.5t-4 -33.5t-7.5 -32t-13.5 -35
l-103 -216q-11 -22 -20.5 -35t-23 -20.5t-33.5 -10t-51 -2.5z" />
    <glyph glyph-name="quotedblleft" unicode="&#x201c;" horiz-adv-x="962" 
d="M255 1086q-58 0 -90.5 3.5t-49 11.5t-21 22.5t-5.5 35.5l-8 171q-2 31 2.5 48.5t12.5 40.5l72 237q7 25 17.5 38.5t27 20t41.5 8t62 1.5q66 0 95 -7.5t29 -32.5q0 -14 -11.5 -38t-34.5 -69l-110 -217h67q21 0 34.5 -5.5t21 -14.5t10 -21t1.5 -24l-8 -136
q-1 -21 -6.5 -35.5t-21.5 -22.5t-46 -11.5t-81 -3.5zM697 1086q-58 0 -90.5 3.5t-49 11.5t-21 22.5t-5.5 35.5l-8 171q-2 31 2.5 48.5t12.5 40.5l72 237q7 25 17.5 38.5t27 20t41.5 8t62 1.5q66 0 95 -7.5t29 -32.5q0 -14 -11.5 -38t-34.5 -69l-110 -217h67q21 0 34.5 -5.5
t21 -14.5t10 -21t1.5 -24l-8 -136q-1 -21 -6.5 -35.5t-21.5 -22.5t-46 -11.5t-81 -3.5z" />
    <glyph glyph-name="quotedblright" unicode="&#x201d;" horiz-adv-x="962" 
d="M174 1086q-50 0 -72 7.5t-22 32.5q0 14 11.5 37.5t31.5 69.5l93 217h-57q-21 0 -34 5.5t-20 14.5t-9.5 21t-3.5 24l-10 136q-2 21 3.5 35.5t24 22.5t53 11.5t92.5 3.5q61 0 98 -3.5t56.5 -11.5t25 -22.5t4.5 -35.5l-7 -141q-1 -22 -2 -39.5t-4 -33.5t-7.5 -32t-13.5 -35
l-103 -216q-11 -22 -20.5 -35t-23 -20.5t-33.5 -10t-51 -2.5zM616 1086q-50 0 -72 7.5t-22 32.5q0 14 11.5 37.5t31.5 69.5l93 217h-57q-21 0 -34 5.5t-20 14.5t-9.5 21t-3.5 24l-10 136q-2 21 3.5 35.5t24 22.5t53 11.5t92.5 3.5q61 0 98 -3.5t56.5 -11.5t25 -22.5
t4.5 -35.5l-7 -141q-1 -22 -2 -39.5t-4 -33.5t-7.5 -32t-13.5 -35l-103 -216q-11 -22 -20.5 -35t-23 -20.5t-33.5 -10t-51 -2.5z" />
    <glyph glyph-name="quotedblbase" unicode="&#x201e;" horiz-adv-x="962" 
d="M174 -296q-50 0 -72 7.5t-22 32.5q0 14 11.5 37.5t31.5 69.5l93 217h-57q-21 0 -34 5.5t-20 14.5t-9.5 21t-3.5 24l-10 136q-2 21 3.5 35.5t24 22.5t53 11.5t92.5 3.5q61 0 98 -3.5t56.5 -11.5t25 -22.5t4.5 -35.5l-7 -141q-1 -22 -2 -39.5t-4 -33.5t-7.5 -32t-13.5 -35
l-103 -216q-11 -22 -20.5 -35t-23 -20.5t-33.5 -10t-51 -2.5zM616 -296q-50 0 -72 7.5t-22 32.5q0 14 11.5 37.5t31.5 69.5l93 217h-57q-21 0 -34 5.5t-20 14.5t-9.5 21t-3.5 24l-10 136q-2 21 3.5 35.5t24 22.5t53 11.5t92.5 3.5q61 0 98 -3.5t56.5 -11.5t25 -22.5
t4.5 -35.5l-7 -141q-1 -22 -2 -39.5t-4 -33.5t-7.5 -32t-13.5 -35l-103 -216q-11 -22 -20.5 -35t-23 -20.5t-33.5 -10t-51 -2.5z" />
    <glyph glyph-name="at" unicode="@" horiz-adv-x="2089" 
d="M190 1078q-1 102 30.5 186.5t89.5 151t138 115.5t176.5 81t204.5 48t222 16t222.5 -16t204.5 -48t176.5 -81t138.5 -115.5t89.5 -151t30.5 -186.5l-8 -796q-2 -82 -23 -136t-59 -86.5t-93 -46t-124 -13.5h-258q-29 0 -54 3.5t-45 14t-34 29.5t-20 49
q-51 -50 -113.5 -80.5t-137.5 -30.5q-56 0 -108 13.5t-92.5 47.5t-66 93t-27.5 149l-13 569q-2 72 17.5 129t58 96.5t94 60.5t124.5 21q41 0 74.5 -7.5t60 -20t47.5 -28t36 -31.5v3q-1 21 5 35.5t23 22.5t47 11.5t78 3.5t78.5 -3.5t47.5 -11.5t23 -22.5t5 -35.5l-26 -936
h165q49 0 76.5 31t25.5 107l-8 772q-2 120 -51.5 200.5t-135.5 130t-202 70.5t-249 21t-248.5 -21t-201.5 -70.5t-136 -130t-51 -200.5l-8 -922q-1 -80 20.5 -142.5t60 -109.5t91.5 -79.5t116.5 -53t134 -30t143.5 -9.5h270q22 0 34.5 -4t18.5 -12t7.5 -21t1.5 -32
q0 -23 -1.5 -38t-7.5 -25t-18.5 -14t-34.5 -4h-270q-162 0 -302.5 31t-244.5 99t-164.5 177.5t-62.5 266.5zM910 288q-1 -40 8.5 -66.5t27.5 -42t42.5 -22t53.5 -6.5q46 0 79 18t54 41l-22 736q-20 20 -48.5 35.5t-57.5 15.5q-62 0 -90.5 -35.5t-30.5 -104.5z" />
    <glyph glyph-name="cent" unicode="&#xa2;" horiz-adv-x="1062" 
d="M111 910q-3 67 22 118.5t69.5 88t104.5 59t128 31.5l-6 250q0 21 4 35.5t16.5 22.5t35.5 11.5t61 3.5t61 -3t35.5 -11.5t16.5 -22.5t4 -35l-6 -253q67 -10 125 -32.5t101 -59t66.5 -87t21.5 -116.5l-10 -311q-1 -19 -7 -30t-22 -17t-45 -8t-75 -2q-47 0 -76 2t-45 8
t-21.5 17t-6.5 30l-9 328q-1 42 -9.5 68t-23.5 40t-35 18.5t-45 4.5t-45 -4.5t-35 -18.5t-23.5 -40t-9.5 -68l-20 -659q-1 -38 6.5 -64t24 -42t42 -23t60.5 -7q70 0 101.5 28t31.5 99v31q0 19 5 31.5t19.5 20t41.5 10.5t72 3q44 0 71 -3t41.5 -10.5t19.5 -19.5t5 -31v-24
q0 -67 -25 -115t-68 -81t-100 -51.5t-120 -25.5l-4 -180q0 -19 -4 -30.5t-13.5 -17.5t-26 -8t-41.5 -2q-26 0 -42 1.5t-25.5 7.5t-13.5 17.5t-4 30.5l-5 180q-65 6 -122.5 25t-101 52.5t-70 84t-29.5 121.5z" />
    <glyph glyph-name="bar" unicode="|" horiz-adv-x="508" 
d="M137 1651q0 21 4 35.5t16.5 22.5t35.5 11.5t61 3.5t61 -3t35.5 -11.5t16.5 -22.5t4 -35l-31 -2014q0 -19 -4 -30.5t-13.5 -17.5t-26 -8t-41.5 -2q-26 0 -42 1.5t-25.5 7.5t-13.5 17.5t-4 30.5z" />
    <glyph glyph-name="dollar" unicode="$" horiz-adv-x="1170" 
d="M144 415q-1 30 4 48.5t20.5 28t43.5 12.5t74 3t77 -3t49.5 -12.5t26 -28t6.5 -48.5l-4 -119q-2 -42 6.5 -70t28 -44.5t50.5 -23.5t75 -7q45 0 76.5 7t50.5 23.5t27 44.5t8 70l-1 65q0 35 -3 63.5t-12.5 51.5t-28 41t-51.5 32l-347 148q-57 25 -95 56t-60.5 71t-32.5 90
t-12 112l-10 339q-2 67 18.5 123.5t67 99.5t119 71t174.5 37l-4 177q0 21 4 34.5t16.5 22t35.5 11.5t61 3t61 -3t35.5 -11t16.5 -21.5t4 -34.5l-4 -179q97 -11 166.5 -39.5t113.5 -71t64 -98t19 -121.5l-10 -400q-1 -30 -9 -48.5t-27 -28t-50.5 -12.5t-77.5 -3
q-47 0 -78.5 3t-50.5 12.5t-27 28t-9 48.5l-12 431q-1 44 -10 70t-25.5 40t-41 18.5t-56.5 4.5t-56.5 -4.5t-41 -18.5t-25.5 -40t-10 -70l-11 -399q-1 -38 3.5 -66.5t17 -50.5t33.5 -39t54 -31l324 -136q53 -22 88.5 -47.5t56.5 -61.5t28.5 -86t3.5 -122l-2 -56
q-2 -59 -23.5 -111t-65.5 -93t-112 -68.5t-164 -36.5l-4 -174q0 -18 -4 -29.5t-13.5 -17.5t-26 -8t-41.5 -2q-26 0 -42 1.5t-25.5 7.5t-13.5 17.5t-4 29.5l-5 175q-97 9 -165.5 37t-113 69.5t-65.5 94.5t-22 112z" />
    <glyph glyph-name="Euro" unicode="&#x20ac;" horiz-adv-x="1271" 
d="M259 372h-77q-26 0 -40.5 4.5t-21.5 14.5t-8.5 27t-1.5 41t1.5 40.5t8.5 26.5t21.5 14.5t40.5 4.5h73l-4 160h-65q-26 0 -40.5 4.5t-21.5 14.5t-8.5 26.5t-1.5 40.5q0 27 1.5 45.5t8.5 29.5t21.5 16t40.5 5h60l-12 473q-2 75 23 137t80 106t142.5 68.5t210.5 24.5
t210.5 -24.5t142.5 -68.5t78.5 -106t19.5 -137l-11 -273q-2 -31 -10 -49t-26 -27.5t-47 -12.5t-73 -3t-73 3t-46.5 12.5t-25.5 27.5t-9 49l-7 304q-2 44 -10.5 70t-23.5 40t-37 18.5t-52 4.5t-52.5 -4.5t-38 -18.5t-23.5 -40t-9 -70l-14 -504h252q26 0 40.5 -5t21.5 -16.5
t8.5 -30t1.5 -45.5q0 -24 -1.5 -40.5t-8.5 -26.5t-21.5 -14t-40.5 -4h-257l-5 -160h261q26 0 40.5 -4.5t21.5 -14.5t8.5 -27t1.5 -41t-1.5 -40.5t-8.5 -26.5t-21.5 -14.5t-40.5 -4.5h-266l-1 -49q-1 -42 7.5 -67.5t28 -39.5t51 -18.5t76.5 -4.5h248q26 0 40.5 -5t21.5 -16
t8.5 -30t1.5 -46t-1.5 -45.5t-8.5 -29.5t-21.5 -16t-40.5 -5h-248q-112 0 -193.5 21.5t-135.5 60t-80.5 91.5t-28.5 116z" />
    <glyph glyph-name="yen" unicode="&#xa5;" horiz-adv-x="1135" 
d="M230 307q-26 0 -40.5 4.5t-21.5 14.5t-8.5 26.5t-1.5 40.5t1.5 40.5t8.5 26.5t21.5 14.5t40.5 4.5h188l-3 151l-11 28h-190q-26 0 -40.5 4.5t-21.5 14.5t-8.5 26.5t-1.5 40.5q0 27 1.5 45.5t8.5 29.5t21.5 16t40.5 5h117l-279 701q-10 27 -16 49t-6 42q0 19 8 30.5
t28 17.5t55.5 8t91.5 2t89.5 -2t53 -10.5t29 -26t15.5 -49.5l167 -767h2l166 767q7 32 16 50t28.5 26.5t53 10t89.5 1.5q55 0 91 -2t56 -8t28 -17.5t8 -30.5q0 -20 -7 -41.5t-16 -49.5l-276 -701h143q26 0 40.5 -5t21.5 -16.5t8.5 -30t1.5 -45.5q0 -24 -1.5 -40.5
t-8.5 -26.5t-21.5 -14t-40.5 -4h-214l-14 -35l-4 -144h215q26 0 40.5 -4.5t21.5 -14.5t8.5 -26.5t1.5 -41.5q0 -24 -1.5 -40.5t-8.5 -26.5t-21.5 -14t-40.5 -4h-219l-5 -239q-1 -23 -5.5 -36.5t-19 -20.5t-42 -9t-73.5 -2q-47 0 -74 2t-41.5 9t-19 20.5t-5.5 36.5l-6 239
h-192v0z" />
    <glyph glyph-name="paragraph" unicode="&#xb6;" horiz-adv-x="1277" 
d="M866 1651q0 21 5 35.5t20.5 22.5t43.5 11.5t73 3.5q46 0 74 -3t43 -11.5t20 -22.5t5 -35l-38 -1594q-1 -19 -5.5 -30.5t-16 -17.5t-31 -8t-50.5 -2t-50.5 2t-31 8t-16 17t-4.5 30zM436 708q-101 14 -164.5 46t-100 73.5t-50.5 87.5t-15 88l-20 419q-2 56 17.5 100
t55.5 77.5t84 57t103 38t113 21t113 6.5q37 0 61.5 -3t39 -10.5t19.5 -21.5t5 -35l-38 -1594q0 -19 -5 -30.5t-16 -17.5t-31 -8t-50 -2q-31 0 -51 2t-31.5 8t-16 17t-4.5 30z" />
    <glyph glyph-name="ae" unicode="&#xe6;" horiz-adv-x="1606" 
d="M109 291q-1 56 24 98t65 74t89.5 54.5t98.5 39.5q66 21 138.5 36.5t141.5 26.5l-11 352q-7 44 -31.5 65t-73.5 21q-26 0 -47 -4t-36.5 -16t-24.5 -33t-10 -54l-7 -227q0 -19 -5.5 -30t-21.5 -17t-45.5 -8t-78.5 -2q-45 0 -73 2t-43 8t-20 17t-6 30l-8 234q-2 48 17 85.5
t51 66t74 48.5t87 32.5t89 18t80 5.5q99 0 179.5 -21t139.5 -59q53 37 124 58.5t166 21.5q60 0 127.5 -17.5t123 -54.5t91 -94.5t32.5 -137.5l-15 -369q-1 -19 -6.5 -30t-20.5 -17t-42.5 -8t-72.5 -2h-392l-6 -234q-2 -63 35.5 -90.5t106.5 -27.5q32 0 55.5 4.5t38.5 17.5
t22.5 35t7.5 58v43q0 19 4.5 31.5t18 20t39 10.5t66.5 3q44 0 71 -3t41.5 -10.5t19 -19.5t4.5 -31v-44q0 -79 -34 -129t-89.5 -79t-127 -40t-146.5 -11q-44 0 -89.5 7.5t-90 24t-86.5 43t-77 63.5q-26 -24 -60 -48.5t-74.5 -44.5t-87 -32.5t-97.5 -12.5q-77 0 -135 19.5
t-97 53t-58.5 79t-20.5 97.5zM1208 634l-10 293q-1 42 -9.5 68t-23 40t-34 18.5t-41.5 4.5q-25 0 -46.5 -4.5t-37.5 -18.5t-26 -40t-11 -68l-9 -293h248zM383 267q0 -30 9 -51.5t24 -35t35.5 -20t44.5 -6.5q63 0 108 20.5t75 46.5l-9 255q-57 -10 -100.5 -22t-76.5 -26
q-50 -23 -80 -50.5t-30 -71.5v-39z" />
    <glyph glyph-name="oe" unicode="&#x153;" horiz-adv-x="1596" 
d="M111 910q-3 80 32.5 137.5t94.5 94.5t134.5 54.5t153.5 17.5q95 0 164.5 -22t128.5 -67q46 35 119.5 62t182.5 27q60 0 127.5 -17.5t123 -54.5t91 -94.5t32.5 -137.5l-15 -369q-1 -19 -6.5 -30t-20.5 -17t-42.5 -8t-72.5 -2h-392l-6 -234q-2 -63 35.5 -90.5t106.5 -27.5
q32 0 55.5 4.5t38.5 17.5t22.5 35t7.5 58v43q0 19 4.5 31.5t18 20t39 10.5t66.5 3q44 0 71 -3t41.5 -10.5t19 -19.5t4.5 -31v-44q0 -79 -34 -129t-89.5 -79t-127 -40t-146.5 -11q-71 0 -145 20t-140 67q-46 -34 -118 -60.5t-175 -26.5q-68 0 -131.5 14.5t-113.5 48
t-81.5 88.5t-34.5 137zM1198 634l-10 293q-1 42 -9.5 68t-23 40t-34 18.5t-41.5 4.5q-25 0 -46.5 -4.5t-37.5 -18.5t-26 -40t-11 -68l-9 -293h248zM408 268q-1 -38 6.5 -64t24 -42t42 -23t60.5 -7q19 0 41 3t40.5 13.5t31 31.5t14.5 56l-23 740q-5 26 -15.5 42t-25 25
t-31 12t-32.5 3q-25 0 -45 -4.5t-35 -18.5t-23.5 -40t-9.5 -68z" />
    <glyph glyph-name="hbar" unicode="&#x127;" horiz-adv-x="1087" 
d="M137 1334h-48q-26 0 -40.5 3.5t-21.5 13.5t-8.5 27.5t-1.5 45.5t1.5 45.5t8.5 27.5t21.5 13.5t40.5 3.5h45l-3 137q0 21 4.5 35.5t21.5 22.5t49.5 11.5t86.5 3.5t86.5 -3.5t49.5 -11.5t21.5 -22.5t4.5 -35.5l-3 -137h179q26 0 40.5 -3.5t21.5 -13.5t8.5 -27.5t1.5 -45.5
t-1.5 -45.5t-8.5 -27.5t-21.5 -13.5t-40.5 -3.5h-182l-5 -252q27 29 55 53t60 41.5t68 27.5t79 10q61 0 113.5 -22t90 -64t58 -102t18.5 -136l-24 -833q0 -19 -5 -30t-19 -17t-39.5 -8t-67.5 -2t-67.5 2t-39 8t-18.5 17t-5 30l-23 804q-1 39 -10 65t-24 41t-35.5 21t-44.5 6
q-41 0 -72 -24.5t-52 -56.5l-16 -856q0 -19 -5 -30t-19 -17t-39.5 -8t-67.5 -2t-67.5 2t-39 8t-18.5 17t-5 30z" />
    <glyph glyph-name="plus" unicode="+" horiz-adv-x="978" 
d="M378 664h-266q-26 0 -40 4t-21.5 14.5t-9 29.5t-1.5 48q0 32 1.5 52.5t9 32.5t21.5 16.5t40 4.5h259l-10 284q0 26 7 40.5t23 21.5t41.5 8.5t61.5 1.5q33 0 56.5 -1.5t37.5 -8.5t20.5 -21.5t6.5 -40.5l-10 -284h261q25 0 39.5 -4.5t22 -16.5t9 -33t1.5 -53
q0 -29 -1.5 -47.5t-9 -29t-22 -14.5t-39.5 -4h-268l-9 -268q0 -26 -5 -40.5t-16 -21.5t-29 -8.5t-46 -1.5q-31 0 -51 1.5t-32 8.5t-17.5 21.5t-5.5 40.5z" />
    <glyph glyph-name="plusminus" unicode="&#xb1;" horiz-adv-x="1058" 
d="M214 169q-26 0 -40.5 4t-21.5 14.5t-8.5 28t-1.5 43.5q0 29 1.5 48.5t9 31t21.5 16t40 4.5h630q26 0 40.5 -5t21.5 -16.5t8.5 -31t1.5 -48.5q0 -26 -1.5 -43.5t-9 -27.5t-22 -14t-39.5 -4h-630zM418 867h-266q-26 0 -40 4t-21.5 14.5t-9 29.5t-1.5 48q0 32 1.5 52.5
t9 32.5t21.5 16.5t40 4.5h259l-10 284q0 26 7 40.5t23 21.5t41.5 8.5t61.5 1.5q33 0 56.5 -1.5t37.5 -8.5t20.5 -21.5t6.5 -40.5l-10 -284h261q25 0 39.5 -4.5t22 -16.5t9 -33t1.5 -53q0 -29 -1.5 -47.5t-9 -29t-22 -14.5t-39.5 -4h-268l-9 -268q0 -26 -5 -40.5t-16 -21.5
t-29 -8.5t-46 -1.5q-31 0 -51 1.5t-32 8.5t-17.5 21.5t-5.5 40.5z" />
    <glyph glyph-name="multiply" unicode="&#xd7;" horiz-adv-x="1013" 
d="M188 340q-59 0 -81.5 7.5t-22.5 32.5q0 16 12.5 34.5t34.5 46.5l232 301l-269 318q-26 29 -40 45.5t-14 32.5q0 12 6.5 20.5t23 13.5t44 7t69.5 2q39 0 63 -1.5t40.5 -7.5t28.5 -18.5t26 -34.5l165 -234l166 234q14 22 26 34.5t28.5 18.5t40.5 7.5t63 1.5q42 0 69.5 -2
t44 -7t23 -13.5t6.5 -20.5q0 -16 -14.5 -32.5t-39.5 -45.5l-269 -318l234 -301q22 -28 33.5 -46.5t11.5 -34.5q0 -25 -22.5 -32.5t-81.5 -7.5h-36.5t-31.5 4t-29 13.5t-29 28.5l-193 231l-192 -231q-15 -19 -29 -28.5t-29 -13.5t-31.5 -4h-36.5z" />
    <glyph glyph-name="divide" unicode="&#xf7;" horiz-adv-x="976" 
d="M489 1002q-45 0 -73.5 2.5t-45 9t-22.5 18.5t-6 31l-9 183q-1 21 5 36t23 24t47.5 13t80.5 4q49 0 80 -4t48 -13t22.5 -24t4.5 -36l-11 -183q-1 -19 -7.5 -31t-23 -18.5t-44 -9t-69.5 -2.5zM112 664q-26 0 -40 4.5t-21.5 16t-9 31t-1.5 48.5q0 32 1.5 52t9 31t21.5 15
t40 4h752q25 0 39.5 -4t22 -15.5t9 -31.5t1.5 -52q0 -29 -1.5 -48.5t-9 -30.5t-22 -15.5t-39.5 -4.5h-752zM351 453q-1 21 2.5 35.5t17.5 22.5t42 11.5t76 3.5t75.5 -3.5t42 -11.5t18 -22.5t2.5 -35.5l-5 -156q-1 -19 -6 -30.5t-19 -18t-40 -9t-68 -2.5q-43 0 -68.5 2.5
t-39.5 9t-18.5 18t-5.5 30.5z" />
    <glyph glyph-name="minus" unicode="&#x2212;" horiz-adv-x="878" 
d="M102 660q-26 0 -40 4.5t-21.5 16t-9 31t-1.5 48.5q0 32 1.5 53.5t9 34t21.5 17.5t40 5h674q25 0 39.5 -5.5t22 -18t9 -34t1.5 -53.5q0 -29 -1.5 -48.5t-9 -30.5t-22 -15.5t-39.5 -4.5h-674v0z" />
    <glyph glyph-name="underscore" unicode="_" horiz-adv-x="1243" 
d="M1253 -100v-157h-1263v157h1263z" />
    <glyph glyph-name="brokenbar" unicode="&#xa6;" horiz-adv-x="508" 
d="M255 820q-32 0 -52 2t-32 8t-17 17.5t-5 30.5l-12 773q0 21 4 35.5t16.5 22.5t35.5 11.5t61 3.5t61 -3t35.5 -11.5t16.5 -22.5t4 -35l-12 -774q0 -19 -4.5 -30.5t-16 -17.5t-32 -8t-51.5 -2zM154 324q-1 24 3 38.5t15.5 22t31 10t50.5 2.5t51 -2t31.5 -9.5t15.5 -22
t3 -38.5l-8 -687q0 -19 -5 -30.5t-16 -17.5t-28.5 -8t-42.5 -2q-26 0 -43 2t-28 8t-16 17t-5 30z" />
    <glyph glyph-name="equal" unicode="=" horiz-adv-x="938" 
d="M132 831q-26 0 -40 4.5t-21.5 16t-9 31t-1.5 48.5q0 32 1.5 53.5t9 34t21.5 17.5t40 5h674q25 0 39.5 -5.5t22 -18t9 -34t1.5 -53.5q0 -29 -1.5 -48.5t-9 -30.5t-22 -15.5t-39.5 -4.5h-674zM132 428q-26 0 -40 4.5t-21.5 16t-9 31t-1.5 48.5q0 32 1.5 53.5t9 34
t21.5 17.5t40 5h674q25 0 39.5 -5.5t22 -18t9 -34t1.5 -53.5q0 -29 -1.5 -48.5t-9 -30.5t-22 -15.5t-39.5 -4.5h-674z" />
    <glyph glyph-name="question" unicode="?" horiz-adv-x="1170" 
d="M468 622q-2 36 4 59t25 40l140 119q32 29 50.5 51.5t28 47.5t11.5 57.5t1 82.5l-11 299q-1 45 -10 71.5t-25.5 40.5t-41 18.5t-56.5 4.5t-56.5 -4.5t-41 -18.5t-25 -40.5t-9.5 -71.5l-12 -350q-1 -31 -9 -49.5t-26 -28.5t-48 -13t-74 -3t-73 3t-46 13t-24.5 28.5
t-8.5 49.5l-10 342q-4 153 113 240t350 87q114 0 201.5 -22.5t146.5 -64.5t89 -103t28 -137l-12 -314q-1 -35 -6.5 -62.5t-18.5 -52t-34 -49t-53 -51.5l-201 -173l-10 -134q-2 -26 -7.5 -40.5t-19 -21.5t-35.5 -8.5t-56 -1.5q-35 0 -57.5 1.5t-36 8.5t-19 21.5t-5.5 40.5z
M433 252q-2 21 3 35.5t22 22.5t50 11.5t87 3.5t86.5 -3.5t50 -11.5t22 -22.5t3.5 -35.5l-11 -195q-1 -19 -6.5 -30t-21.5 -17t-45 -8t-78 -2t-78 2t-44.5 8t-21 17t-6.5 30z" />
    <glyph glyph-name="questiondown" unicode="&#xbf;" horiz-adv-x="1189" 
d="M578 1399q-49 0 -78 2t-44.5 8t-21 17t-6.5 30l-12 195q-2 21 3 35.5t22 22.5t50 11.5t87 3.5t86.5 -3.5t50 -11.5t22 -22.5t3.5 -35.5l-11 -195q-1 -19 -6.5 -30t-21.5 -17t-45 -8t-78 -2zM121 642q-1 34 7.5 62t25.5 52.5t42 49t57 51.5l206 177l-10 160q-2 26 6 40.5
t25 21.5t42.5 8.5t59.5 1.5q40 0 67.5 -1.5t44 -8.5t22.5 -22t5 -41l-6 -122q-3 -36 -8 -55.5t-24 -35.5l-156 -135q-33 -28 -51 -48.5t-26 -43.5t-10.5 -54t-3.5 -80l-9 -324q-1 -45 10.5 -72.5t33 -42.5t53 -20.5t70.5 -5.5q40 0 71 6t51 22t29.5 44t7.5 73l-10 371
q-1 31 6 49.5t25 28.5t47.5 13t73.5 3q47 0 78.5 -3t51 -13t27.5 -28.5t7 -49.5l-8 -347q-2 -77 -30 -138.5t-84 -105.5t-141 -67.5t-202 -23.5q-114 0 -200 23t-144.5 65.5t-88.5 103.5t-32 138z" />
    <glyph glyph-name="quotesingle" unicode="'" horiz-adv-x="498" 
d="M249 1086q-35 0 -55 2t-31.5 9t-15.5 21t-6 37l-40 485q-1 26 4.5 42.5t22 25.5t45.5 12.5t76 3.5t76 -3.5t45.5 -12.5t22 -25.5t4.5 -42.5l-40 -485q-2 -23 -6 -37t-15.5 -21t-32 -9t-54.5 -2z" />
    <glyph glyph-name="quotedbl" unicode="&#x22;" horiz-adv-x="976" 
d="M249 1086q-35 0 -55 2t-31.5 9t-15.5 21t-6 37l-40 485q-1 26 4.5 42.5t22 25.5t45.5 12.5t76 3.5t76 -3.5t45.5 -12.5t22 -25.5t4.5 -42.5l-40 -485q-2 -23 -6 -37t-15.5 -21t-32 -9t-54.5 -2zM727 1086q-35 0 -55 2t-31.5 9t-15.5 21t-6 37l-40 485q-1 26 4.5 42.5
t22 25.5t45.5 12.5t76 3.5t76 -3.5t45.5 -12.5t22 -25.5t4.5 -42.5l-40 -485q-2 -23 -6 -37t-15.5 -21t-32 -9t-54.5 -2z" />
    <glyph glyph-name="less" unicode="&#x3c;" horiz-adv-x="802" 
d="M100 597q-23 20 -31.5 36t-8.5 32t7 30t27 38l307 366q17 21 32.5 33t35 18.5t46 8.5t64.5 2q42 0 69.5 -2t44 -7t23 -13.5t6.5 -20.5q0 -16 -10.5 -32.5t-35.5 -45.5l-353 -375l325 -302q28 -26 47.5 -45.5t19.5 -35.5q0 -12 -4 -20t-16 -12.5t-33.5 -6t-57.5 -1.5
q-23 0 -41.5 1t-35.5 5.5t-33.5 13.5t-35.5 26z" />
    <glyph glyph-name="greater" unicode="&#x3e;" horiz-adv-x="802" 
d="M701.957 597q22.999 20 31.498 36q8.5 16 8.5 32t-7 30t-26.998 38l-306.981 366q-16.999 21 -32.498 33t-34.998 18.5t-45.9971 8.5t-64.4961 2q-41.9971 0 -69.4961 -2q-27.498 -2 -43.9971 -7t-22.998 -13.5q-6.5 -8.5 -6.5 -20.5q0 -16 10.499 -32.5
q10.5 -16.5 35.498 -45.5l352.979 -375l-324.98 -302q-27.998 -26 -47.4971 -45.5q-19.498 -19.5 -19.498 -35.5q0 -12 3.99902 -20q4 -8 15.999 -12.5q12 -4.5 33.498 -6q21.499 -1.5 57.4971 -1.5q22.998 0 41.4971 1t35.498 5.5t33.498 13.5t35.4971 26z" />
    <glyph glyph-name="logicalnot" unicode="&#xac;" horiz-adv-x="939" 
d="M112 660q-26 0 -40 4.5t-21.5 16t-9 31t-1.5 48.5q0 32 1.5 53.5t9 34t21.5 17.5t40 5h674q25 0 39.5 -5.5t22 -18t9 -34t1.5 -53.5h1l-3 -390q0 -19 -5 -30.5t-16 -17.5t-28.5 -8t-42.5 -2q-26 0 -43 2t-28 8t-16 17t-5 30l-3 292h-557v0z" />
    <glyph glyph-name="Thorn" unicode="&#xde;" horiz-adv-x="1180" 
d="M125 1607q-1 26 5 42t25.5 25t55.5 12.5t96 3.5q59 0 95 -3.5t55.5 -12.5t26 -25t5.5 -42l-6 -189h117q102 0 191 -18.5t154 -57.5t101.5 -100.5t33.5 -148.5l-14 -476q-2 -57 -24.5 -114t-74 -102t-135.5 -73.5t-209 -28.5h-172l-6 -231q0 -23 -4.5 -36.5t-19 -20.5
t-41.5 -9t-73 -2t-73.5 2t-41.5 9t-18.5 20.5t-5.5 36.5zM578 462q48 0 80 7.5t51 24.5t26.5 45.5t6.5 70.5l-14 514q-1 39 -8 63t-25 37t-49 17.5t-79 4.5h-89l-22 -784h122z" />
    <glyph glyph-name="copyright" unicode="&#xa9;" horiz-adv-x="1865" 
d="M151 1299q-1 102 27.5 186.5t80.5 151t125 115.5t160 81t185.5 48t202.5 16t202.5 -16t186 -48t160.5 -81t125 -115.5t80.5 -151t27.5 -186.5l-8 -656q-2 -157 -62.5 -266t-164.5 -177t-244.5 -98.5t-302.5 -30.5t-302 30.5t-244 98.5t-164.5 177t-62.5 266zM367 643
q-1 -80 20 -142t59.5 -109t92 -79.5t116.5 -53t133.5 -29.5t143.5 -9t144 9t134 29.5t116.5 53t92 79.5t59.5 109t20 142l-8 632q-2 120 -46 200.5t-119 130t-176.5 70.5t-216.5 21t-216 -21t-176 -70.5t-119.5 -130t-45.5 -200.5zM586 1235q-1 45 18.5 83t61.5 66t108 44
t159 16t159 -16t108 -44t61.5 -66t18.5 -83l-7 -267q0 -18 -7 -29t-22 -17t-39.5 -7.5t-59.5 -1.5q-37 0 -61 1.5t-38.5 7.5t-20.5 17t-6 29l-9 254q-1 26 -6 41.5t-14.5 24t-23.5 11t-33 2.5t-33.5 -2.5t-24 -11t-14.5 -24t-5 -41.5l-19 -570q-1 -51 21 -70t75 -19t75 19
t20 70l-2 36q-1 19 5 30t20.5 17t39 8t60.5 2q37 0 59.5 -2t35 -8t16 -17t3.5 -30l-2 -57q-1 -39 -20 -73t-58.5 -60t-102 -41t-149.5 -15t-149.5 15t-102 41t-58.5 61t-20 74z" />
    <glyph glyph-name="registered" unicode="&#xae;" horiz-adv-x="1865" 
d="M151 1299q-1 102 27.5 186.5t80.5 151t125 115.5t160 81t185.5 48t202.5 16t202.5 -16t186 -48t160.5 -81t125 -115.5t80.5 -151t27.5 -186.5l-8 -656q-2 -157 -62.5 -266t-164.5 -177t-244.5 -98.5t-302.5 -30.5t-302 30.5t-244 98.5t-164.5 177t-62.5 266zM367 643
q-1 -80 20 -142t59.5 -109t92 -79.5t116.5 -53t133.5 -29.5t143.5 -9t144 9t134 29.5t116.5 53t92 79.5t59.5 109t20 142l-8 632q-2 120 -46 200.5t-119 130t-176.5 70.5t-216.5 21t-216 -21t-176 -70.5t-119.5 -130t-45.5 -200.5zM593 1367q0 21 4.5 35t19.5 22t42 11t71 3
h25h257q66 0 118.5 -14t88.5 -46t54 -83t15 -124l-6 -169q-1 -33 -9 -64t-25 -56.5t-44 -45t-66 -31.5l125 -263q19 -39 19 -57q0 -7 -4 -13.5t-14.5 -11t-30 -7t-50.5 -2.5q-25 0 -42 2t-29 7t-20.5 14.5t-17.5 23.5l-165 293h-57l-7 -283q0 -19 -5 -30.5t-18 -17.5t-35 -8
t-56 -2q-35 0 -57 2t-35 8t-18.5 17.5t-5.5 30.5zM936 903q56 0 76 22.5t18 71.5l-12 225q-1 22 -5 37.5t-14.5 24.5t-28 13t-45.5 4h-60l-10 -398h81z" />
    <glyph glyph-name="bullet" unicode="&#x2022;" horiz-adv-x="763" 
d="M379 480q-60 0 -107 10.5t-80.5 35t-52.5 64.5t-22 99l-7 147q-5 110 65.5 159.5t203.5 49.5t203.5 -49.5t65.5 -159.5l-7 -147q-3 -59 -22 -99t-52.5 -64.5t-80.5 -35t-107 -10.5z" />
    <glyph glyph-name="ring" unicode="&#x2da;" horiz-adv-x="796" 
d="M398 1341q-59 0 -111 12t-90.5 36.5t-60.5 62.5t-22 90v57q0 52 22 90t60.5 62.5t90.5 36.5t111 12t111 -12t90.5 -36.5t60.5 -62.5t22 -90v-57q0 -52 -22 -90t-60.5 -62.5t-90.5 -36.5t-111 -12zM398 1461q46 0 68 22t22 60v55q0 38 -22 60t-68 22t-68 -22t-22 -60v-55
q0 -38 22 -60t68 -22z" />
    <glyph glyph-name="slash" unicode="/" horiz-adv-x="964" 
d="M616 1686q7 20 13.5 33.5t21 22t39.5 12t68 3.5t69.5 -4t40 -12t15.5 -21.5t-5 -32.5l-589 -1639q-6 -17 -15 -27t-22.5 -15t-32 -6t-45.5 -1q-66 1 -84 12.5t-2 45.5z" />
    <glyph glyph-name="backslash" unicode="\" horiz-adv-x="964" 
d="M347.979 1686q-6.99902 20 -13.499 33.5q-6.49902 13.5 -20.999 22q-14.499 8.5 -39.4971 12q-24.999 3.5 -67.9961 3.5t-69.4961 -4q-26.498 -4 -39.9971 -12t-15.499 -21.5t5 -32.5l588.964 -1639q5.99902 -17 14.999 -27q8.99902 -10 22.498 -15q13.5 -5 31.998 -6
q18.499 -1 45.498 -1q65.9951 1 83.9941 12.5t2 45.5z" />
    <glyph glyph-name="mu" unicode="&#xb5;" horiz-adv-x="1092" 
d="M105 1129q-1 21 4 35.5t22 22.5t49.5 11.5t86.5 3.5q51 0 81.5 -3.5t46 -11.5t20 -22.5t4.5 -35.5l-21 -881q23 -23 56 -39.5t81 -16.5q58 0 96 19.5t67 45.5l-25 872q-1 21 3.5 35.5t19.5 22.5t43 11.5t76 3.5q54 0 86.5 -3.5t49.5 -11.5t22 -22.5t4 -35.5l-36 -939h50
q26 0 40.5 -3.5t21.5 -13.5t8.5 -27.5t1.5 -45.5q0 -31 -1.5 -50.5t-8.5 -30.5t-21.5 -15t-40.5 -4h-125h-24q-33 0 -55.5 10t-36 27t-19 40t-5.5 49h-10q-40 -63 -83 -94.5t-98 -31.5q-47 0 -89.5 24.5t-77.5 65.5h-10v-337q0 -29 -3.5 -49t-15 -33t-32.5 -19t-55 -6
q-33 0 -53 6t-31 19t-15 33t-5 49z" />
    <glyph glyph-name="currency" unicode="&#xa4;" horiz-adv-x="1360" 
d="M162 199q0 16 13 34t34 47l131 175q-25 40 -26 89l-6 261q-1 27 7 51t22 44l-164 189q-26 29 -35.5 45.5t-9.5 32.5q0 12 6.5 20.5t23 13.5t44 7t69.5 2q39 0 63 -1.5t40.5 -8t28 -19t26.5 -33.5l96 -140q75 18 157 18q78 0 151 -17l96 139q15 21 26.5 33.5t28 19t40.5 8
t63 1.5q42 0 69.5 -2t44 -7t23 -13.5t6.5 -20.5q0 -16 -9.5 -32.5t-35.5 -45.5l-164 -188q14 -20 22 -43.5t7 -50.5l-6 -261q-1 -26 -8 -47.5t-18 -41.5l131 -176q21 -29 34 -47t13 -34q0 -12 -4 -20t-14.5 -12.5t-29 -6t-48.5 -1.5q-20 0 -36.5 0.5t-31.5 4.5t-29 13.5
t-29 27.5l-119 143q-41 -12 -85.5 -17.5t-90.5 -5.5t-90.5 5.5t-85.5 16.5l-119 -143q-15 -18 -29.5 -27.5t-29 -13.5t-31 -4.5t-36.5 -0.5q-30 0 -48.5 1.5t-29 6t-14.5 12.5t-4 20zM508 610q-1 -35 13 -59t38 -38.5t55 -21t65 -6.5q34 1 65 7.5t55 21.5t38 39t13 59
l-5 133q-1 39 -16.5 62.5t-39 36t-53 16.5t-57.5 4q-29 0 -58 -4t-52.5 -17t-39 -37t-16.5 -63z" />
    <glyph glyph-name="ampersand" unicode="&#x26;" horiz-adv-x="1237" 
d="M145 427q-2 53 10 91t37.5 67.5t63.5 54.5t88 54v8q-66 28 -106.5 59.5t-64 66.5t-32 73.5t-9.5 79.5l-11 421q-2 55 18 98.5t54.5 76t81 55.5t99 37t108 20.5t107.5 6.5t107 -6.5t107.5 -20.5t99 -37t81 -55.5t54 -76t17.5 -98.5l-14 -358q-1 -31 -8.5 -49t-25 -27.5
t-46 -12.5t-72.5 -3t-74 3t-48 12.5t-26 27.5t-9 49l-13 340q-2 39 -9.5 64.5t-23 41t-39.5 21.5t-58 6q-35 0 -59.5 -6t-40 -21.5t-23.5 -41t-9 -64.5l-14 -455q-2 -42 6 -70t26 -45t45.5 -24t66.5 -7h545q27 0 41.5 -4.5t21.5 -15t8.5 -27.5t1.5 -41t-1.5 -41t-8.5 -27.5
t-21.5 -15t-40.5 -4.5h-106l-3 -329q-2 -59 -24 -111.5t-72.5 -92t-133 -63t-205.5 -23.5q-124 0 -207 23.5t-133.5 63t-72.5 92t-24 111.5zM423 307q-2 -80 38 -113t126 -33h2q85 0 125.5 33t38.5 113l-9 300h-155q-41 0 -70.5 -5t-49 -19t-29.5 -38.5t-11 -63.5z" />
    <glyph glyph-name="asterisk" unicode="*" horiz-adv-x="1018" 
d="M290 1123q-21 15 -33 26.5t-16 23t-0.5 23.5t14.5 27l102 138l-176 44q-20 6 -33 12.5t-18 19.5t-2.5 35t13.5 58t21 56.5t22 30t27 9.5t35 -7l159 -61l-11 244q-1 21 3 35.5t17 22.5t36 11.5t61 3.5t61.5 -3t36 -11.5t16.5 -22.5t3 -35l-11 -243l154 59q20 7 35 7
t27 -9.5t22 -30t21 -56.5t14 -58t-2.5 -35t-18 -20t-33.5 -12l-174 -43l103 -140q11 -15 14.5 -27t-0.5 -23t-16 -22.5t-33 -26.5t-35.5 -24t-26.5 -11.5t-22.5 3.5t-21.5 21l-114 162l-114 -162q-11 -15 -21.5 -21t-22.5 -3.5t-26.5 11.5t-35.5 24z" />
    <glyph glyph-name="asciitilde" unicode="~" horiz-adv-x="1335" 
d="M165 527q-58 0 -81.5 9.5t-23.5 33.5q0 18 8.5 39t25.5 55l173 333q13 27 27 42t31.5 22.5t41 9.5t56.5 2h60q31 0 51 -3.5t34.5 -10t26.5 -17.5t26 -26l180 -186q14 -15 27.5 -28.5t25.5 -13.5q13 0 24.5 19t25.5 48l78 159q10 20 18.5 32t23 18t39.5 7.5t67 1.5
q39 0 67 -1t45 -5t25 -12t8 -22q0 -20 -8.5 -44.5t-28.5 -59.5l-174 -314q-15 -26 -29 -43t-30.5 -27t-38 -13.5t-51.5 -3.5h-96q-29 0 -49 2t-38 9.5t-36 21t-41 37.5l-149 149q-23 23 -33.5 32t-19.5 9q-14 0 -23.5 -12.5t-26.5 -41.5l-84 -147q-12 -21 -22.5 -33t-26 -18
t-40 -7.5t-65.5 -1.5z" />
    <glyph glyph-name="cedilla" unicode="&#xb8;" horiz-adv-x="603" 
d="M489 86l-166 -378q-7 -17 -13 -26.5t-14 -14.5t-18 -6t-25 -1h-98q-23 0 -32 7.5t-9 23.5q0 9 6.5 24.5t13.5 35.5l119 335h236z" />
    <glyph glyph-name="circumflex" unicode="&#x2c6;" 
 />
    <glyph glyph-name="caron" unicode="&#x2c7;" horiz-adv-x="982" 
d="M481 1382q-35 0 -56.5 2.5t-36 9.5t-25.5 18t-25 29l-182 230q-14 17 -28 38.5t-14 37.5q0 10 4.5 17t17.5 11.5t37 6.5t62 2q42 0 67 -2t41 -9t26 -19t22 -32l66 -121q20 -38 34 -38q13 0 32 34l75 125q12 19 21 31.5t23.5 19t38.5 9t66 2.5q38 0 62 -2t37 -6.5
t17.5 -11.5t4.5 -17q0 -16 -14 -37.5t-28 -38.5l-184 -230q-14 -18 -25 -29t-25.5 -18t-36.5 -9.5t-58 -2.5h-16z" />
    <glyph glyph-name="acute" unicode="&#xb4;" horiz-adv-x="677" 
d="M210 1382q-51 0 -73.5 8.5t-22.5 28.5q0 19 14.5 42t34.5 61l107 200q10 20 21 32t27.5 19t42.5 9t68 2q41 0 67 -2.5t41 -7t20.5 -12t5.5 -17.5q0 -16 -12 -35.5t-30 -42.5l-172 -226q-14 -18 -24 -29.5t-23.5 -18t-34.5 -9t-57 -2.5z" />
    <glyph glyph-name="eth" unicode="&#xf0;" horiz-adv-x="1082" 
d="M111 910q-3 79 21.5 136t81.5 94t148 55t222 19l-134 195l-112 -66q-23 -13 -37 -17.5t-25 0.5t-21.5 19.5t-24.5 38.5t-22 39.5t-7 27.5t11.5 22.5t33.5 24.5l102 60l-114 167q-17 26 -31 46.5t-18 40.5q-4 19 6.5 30.5t33 17.5t56.5 8t78 2t75 -2t53.5 -10.5t38.5 -26
t30 -49.5q8 -20 17.5 -39l19.5 -39l119 71q22 13 36.5 17.5t25.5 -0.5t21.5 -19.5t24.5 -38.5t22 -40t7 -28t-12 -22.5t-33 -23.5l-122 -72q35 -58 71 -116t69.5 -115.5t62 -114t48.5 -111.5q19 -56 28.5 -107.5t4.5 -101.5q0 -1 1 -2l-19 -603q-3 -82 -38 -137.5t-91 -89
t-128 -48t-149 -14.5q-78 0 -150 14.5t-128.5 48t-91.5 88.5t-38 137zM408 268q-1 -38 6.5 -64t24 -42t42 -23t60.5 -7q70 0 102.5 30t30.5 107l-20 658q-1 42 -9.5 68t-23.5 40t-35 18.5t-45 4.5t-45 -4.5t-35 -18.5t-23.5 -40t-9.5 -68z" />
    <glyph glyph-name="guillemotleft" unicode="&#xab;" horiz-adv-x="1210" 
d="M624 525q-19 23 -25.5 37.5t-6.5 30.5t6.5 28t20.5 40l189 366q11 24 25.5 36.5t35.5 18t50 6.5t70 1q80 0 110.5 -9t30.5 -34q0 -8 -1.5 -15t-5.5 -15.5t-10.5 -20t-16.5 -27.5l-241 -375l229 -302q23 -31 34.5 -48t11.5 -33q0 -12 -4 -20t-16 -12.5t-33.5 -6
t-57.5 -1.5q-43 0 -75.5 6.5t-60.5 39.5zM82 525q-19 23 -25.5 37.5t-6.5 30.5t6 28.5t21 39.5l189 366q12 23 26.5 35.5t35.5 18.5t49.5 7t69.5 1q80 0 110.5 -9t30.5 -34q0 -8 -1.5 -15t-5.5 -15.5t-10.5 -20t-16.5 -27.5l-241 -375l229 -302q23 -31 34.5 -48t11.5 -33
q0 -12 -4 -20t-16 -12.5t-33.5 -6t-57.5 -1.5q-21 0 -40 1t-36 5.5t-32 13.5t-28 26z" />
    <glyph glyph-name="guilsinglright" unicode="&#x203a;" horiz-adv-x="668" 
d="M585.964 525q18.999 23 25.499 37.5q6.49902 14.5 6.49902 30.5t-5.99902 28.5q-6 12.5 -20.999 39.5l-188.988 366q-11.999 23 -26.498 35.5q-14.5 12.5 -35.498 18.5q-20.999 6 -49.4971 7t-69.4961 1q-79.9951 0 -110.493 -9t-30.498 -34q0 -8 1.5 -15t5.5 -15.5
q3.99902 -8.5 10.499 -20t16.499 -27.5l240.985 -375l-228.986 -302q-22.998 -31 -34.498 -48q-11.499 -17 -11.499 -33q0 -12 4 -20q3.99902 -8 15.999 -12.5q11.999 -4.5 33.498 -6q21.498 -1.5 57.4961 -1.5q20.999 0 39.998 1q18.998 1 35.9971 5.5t31.998 13.5
t27.999 26z" />
    <glyph glyph-name="guilsinglleft" unicode="&#x2039;" horiz-adv-x="668" 
d="M82 525q-19 23 -25.5 37.5t-6.5 30.5t6 28.5t21 39.5l189 366q12 23 26.5 35.5t35.5 18.5t49.5 7t69.5 1q80 0 110.5 -9t30.5 -34q0 -8 -1.5 -15t-5.5 -15.5t-10.5 -20t-16.5 -27.5l-241 -375l229 -302q23 -31 34.5 -48t11.5 -33q0 -12 -4 -20t-16 -12.5t-33.5 -6
t-57.5 -1.5q-21 0 -40 1t-36 5.5t-32 13.5t-28 26z" />
    <glyph glyph-name="guillemotright" unicode="&#xbb;" horiz-adv-x="1210" 
d="M585.964 525q18.999 23 25.499 37.5q6.49902 14.5 6.49902 30.5t-6.49902 28q-6.5 12 -20.499 40l-188.988 366q-10.999 24 -25.499 36.5q-14.499 12.5 -35.4971 18q-20.999 5.5 -49.9971 6.5t-69.9961 1q-79.9951 0 -110.493 -9t-30.498 -34q0 -8 1.5 -15t5.5 -15.5
q3.99902 -8.5 10.499 -20t16.499 -27.5l240.985 -375l-228.986 -302q-22.998 -31 -34.498 -48q-11.499 -17 -11.499 -33q0 -12 4 -20q3.99902 -8 15.999 -12.5q11.999 -4.5 33.498 -6q21.498 -1.5 57.4961 -1.5q42.9971 0 75.4951 6.5t60.4971 39.5zM1127.93 525
q18.998 23 25.498 37.5t6.5 30.5t-6 28.5t-20.999 39.5l-188.988 366q-11.999 23 -26.498 35.5t-35.498 18.5t-49.4971 7t-69.4961 1q-79.9951 0 -110.493 -9t-30.498 -34q0 -8 1.5 -15t5.5 -15.5q3.99902 -8.5 10.499 -20t16.499 -27.5l240.985 -375l-228.986 -302
q-22.998 -31 -34.498 -48q-11.499 -17 -11.499 -33q0 -12 4 -20t15.999 -12.5t33.498 -6q21.498 -1.5 57.4961 -1.5q20.999 0 39.998 1q18.998 1 35.9971 5.5t31.998 13.5t27.999 26z" />
    <glyph glyph-name="grave" unicode="`" horiz-adv-x="677" 
d="M467 1382q-36 0 -57 2.5t-34.5 9t-23.5 18t-24 29.5l-172 226q-18 23 -30 42.5t-12 35.5q0 10 5.5 17.5t20.5 12t41 7t67 2.5q42 0 68 -2t42.5 -9t27 -19t21.5 -32l107 -200q20 -38 34.5 -61t14.5 -42q0 -20 -22.5 -28.5t-73.5 -8.5z" />
    <glyph glyph-name="grave.cap" horiz-adv-x="655" 
d="M443 1770q-36 0 -57 2.5t-34.5 8.5t-24 17t-24.5 29l-144 178q-19 24 -32 43t-13 35q0 10 6.5 17t21.5 11t40.5 5.5t63.5 1.5q42 0 68 -2t42.5 -9t27 -19t21.5 -32l82 -146q21 -37 37.5 -63t16.5 -43q0 -20 -23.5 -27t-74.5 -7z" />
    <glyph glyph-name="dieresis" unicode="&#xa8;" horiz-adv-x="944" 
d="M687 1407q-42 0 -67 2t-38.5 8t-18.5 17t-6 30l-12 171q-2 21 2.5 35.5t19.5 22.5t43.5 11.5t76.5 3.5t76.5 -3.5t43.5 -11.5t19 -22.5t3 -35.5l-11 -171q-1 -19 -6 -30t-18.5 -17t-39 -8t-67.5 -2zM257 1407q-42 0 -67 2t-38.5 8t-18.5 17t-6 30l-12 171q-2 21 2.5 35.5
t19.5 22.5t43.5 11.5t76.5 3.5t76.5 -3.5t43.5 -11.5t19 -22.5t3 -35.5l-11 -171q-1 -19 -6 -30t-18.5 -17t-39 -8t-67.5 -2z" />
    <glyph glyph-name="dieresis.cap" horiz-adv-x="960" 
d="M703 1817q-42 0 -67 2t-38.5 8t-18.5 17t-6 30l-12 163q-2 21 2.5 35.5t19.5 22.5t43.5 11.5t76.5 3.5t76.5 -3.5t43.5 -11.5t19 -22.5t3 -35.5l-11 -163q-1 -19 -6 -30t-18.5 -17t-39 -8t-67.5 -2zM257 1817q-42 0 -67 2t-38.5 8t-18.5 17t-6 30l-12 163q-2 21 2.5 35.5
t19.5 22.5t43.5 11.5t76.5 3.5t76.5 -3.5t43.5 -11.5t19 -22.5t3 -35.5l-11 -163q-1 -19 -6 -30t-18.5 -17t-39 -8t-67.5 -2z" />
    <glyph glyph-name="Agrave" unicode="&#xc0;" horiz-adv-x="1079" 
d="M288 1605q4 28 13.5 46t35 28t73.5 13.5t130 3.5q81 0 129 -3.5t73.5 -13.5t34.5 -28t14 -46l265 -1527q4 -27 -0.5 -42.5t-20 -23.5t-42.5 -10t-66 -2q-48 0 -76.5 2t-44.5 10t-23.5 23.5t-11.5 42.5l-41 239h-381l-41 -239q-5 -27 -12 -42.5t-23 -23.5t-44.5 -10
t-76.5 -2q-39 0 -65.5 2t-42.5 10t-21 23.5t0 42.5zM697 507l-153 887h-9l-153 -887h315zM572 1770q-36 0 -57 2.5t-34.5 8.5t-24 17t-24.5 29l-144 178q-19 24 -32 43t-13 35q0 10 6.5 17t21.5 11t40.5 5.5t63.5 1.5q42 0 68 -2t42.5 -9t27 -19t21.5 -32l82 -146
q21 -37 37.5 -63t16.5 -43q0 -20 -23.5 -27t-74.5 -7z" />
    <glyph glyph-name="aring" unicode="&#xe5;" horiz-adv-x="1086" 
d="M109 291q-1 56 24 98.5t64.5 74.5t89.5 54.5t99 38.5q63 21 133.5 36t137.5 26l-9 331q-2 55 -27.5 81.5t-80.5 26.5q-26 0 -47 -4t-36.5 -16t-24.5 -33t-10 -54l-7 -227q0 -19 -5.5 -30t-21.5 -17t-45.5 -8t-78.5 -2q-45 0 -73 2t-43 8t-20 17t-6 30l-8 213
q-2 53 18 94.5t54.5 72t79 51.5t93 34.5t96.5 19t88 5.5q86 0 163.5 -19.5t135.5 -56.5t91.5 -90.5t31.5 -122.5l-31 -868q-1 -19 -5.5 -30t-18.5 -17t-39.5 -8t-67.5 -2q-39 0 -62.5 2t-36 8t-17 17t-4.5 30l-1 35q-27 -20 -59 -38.5t-68 -33t-76.5 -23.5t-84.5 -9
q-70 0 -123 19.5t-88.5 53t-53.5 79t-19 97.5zM383 267q0 -30 9 -51.5t24 -35t35.5 -20t44.5 -6.5q58 0 100 19t72 44l-7 257q-54 -9 -95 -20.5t-73 -25.5q-50 -23 -80 -50.5t-30 -71.5v-39zM540 1341q-59 0 -111 12t-90.5 36.5t-60.5 62.5t-22 90v57q0 52 22 90t60.5 62.5
t90.5 36.5t111 12t111 -12t90.5 -36.5t60.5 -62.5t22 -90v-57q0 -52 -22 -90t-60.5 -62.5t-90.5 -36.5t-111 -12zM540 1461q46 0 68 22t22 60v55q0 38 -22 60t-68 22t-68 -22t-22 -60v-55q0 -38 22 -60t68 -22z" />
    <glyph glyph-name="Aring" unicode="&#xc5;" horiz-adv-x="1061" 
d="M314 1688q-45 25 -71 63.5t-26 92.5v73q0 52 24.5 90t66.5 62.5t99.5 36.5t123.5 12t123.5 -12t99.5 -36.5t66.5 -62.5t24.5 -90v-73q0 -55 -26.5 -93.5t-71.5 -63.5l300 -1609q5 -27 0 -42.5t-20.5 -23.5t-42.5 -10t-66 -2q-48 0 -76.5 2t-44.5 10t-23.5 23.5
t-11.5 42.5l-40 239h-383l-40 -239q-5 -27 -12 -42.5t-23 -23.5t-44.5 -10t-76.5 -2q-39 0 -66 2t-42.5 10t-20.5 23.5t0 42.5zM531 1747q51 0 75.5 22t24.5 60v71q0 38 -24.5 60t-75.5 22t-75.5 -22t-24.5 -60v-71q0 -38 24.5 -60t75.5 -22zM690 507l-155 919h-9l-155 -919
h319z" />
    <glyph glyph-name="adieresis" unicode="&#xe4;" horiz-adv-x="1086" 
d="M109 291q-1 56 24 98.5t64.5 74.5t89.5 54.5t99 38.5q63 21 133.5 36t137.5 26l-9 331q-2 55 -27.5 81.5t-80.5 26.5q-26 0 -47 -4t-36.5 -16t-24.5 -33t-10 -54l-7 -227q0 -19 -5.5 -30t-21.5 -17t-45.5 -8t-78.5 -2q-45 0 -73 2t-43 8t-20 17t-6 30l-8 213
q-2 53 18 94.5t54.5 72t79 51.5t93 34.5t96.5 19t88 5.5q86 0 163.5 -19.5t135.5 -56.5t91.5 -90.5t31.5 -122.5l-31 -868q-1 -19 -5.5 -30t-18.5 -17t-39.5 -8t-67.5 -2q-39 0 -62.5 2t-36 8t-17 17t-4.5 30l-1 35q-27 -20 -59 -38.5t-68 -33t-76.5 -23.5t-84.5 -9
q-70 0 -123 19.5t-88.5 53t-53.5 79t-19 97.5zM383 267q0 -30 9 -51.5t24 -35t35.5 -20t44.5 -6.5q58 0 100 19t72 44l-7 257q-54 -9 -95 -20.5t-73 -25.5q-50 -23 -80 -50.5t-30 -71.5v-39zM752 1407q-42 0 -67 2t-38.5 8t-18.5 17t-6 30l-12 171q-2 21 2.5 35.5t19.5 22.5
t43.5 11.5t76.5 3.5t76.5 -3.5t43.5 -11.5t19 -22.5t3 -35.5l-11 -171q-1 -19 -6 -30t-18.5 -17t-39 -8t-67.5 -2zM322 1407q-42 0 -67 2t-38.5 8t-18.5 17t-6 30l-12 171q-2 21 2.5 35.5t19.5 22.5t43.5 11.5t76.5 3.5t76.5 -3.5t43.5 -11.5t19 -22.5t3 -35.5l-11 -171
q-1 -19 -6 -30t-18.5 -17t-39 -8t-67.5 -2z" />
    <glyph glyph-name="Adieresis" unicode="&#xc4;" horiz-adv-x="1079" 
d="M288 1605q4 28 13.5 46t35 28t73.5 13.5t130 3.5q81 0 129 -3.5t73.5 -13.5t34.5 -28t14 -46l265 -1527q4 -27 -0.5 -42.5t-20 -23.5t-42.5 -10t-66 -2q-48 0 -76.5 2t-44.5 10t-23.5 23.5t-11.5 42.5l-41 239h-381l-41 -239q-5 -27 -12 -42.5t-23 -23.5t-44.5 -10
t-76.5 -2q-39 0 -65.5 2t-42.5 10t-21 23.5t0 42.5zM697 507l-153 887h-9l-153 -887h315zM763 1817q-42 0 -67 2t-38.5 8t-18.5 17t-6 30l-12 163q-2 21 2.5 35.5t19.5 22.5t43.5 11.5t76.5 3.5t76.5 -3.5t43.5 -11.5t19 -22.5t3 -35.5l-11 -163q-1 -19 -6 -30t-18.5 -17
t-39 -8t-67.5 -2zM317 1817q-42 0 -67 2t-38.5 8t-18.5 17t-6 30l-12 163q-2 21 2.5 35.5t19.5 22.5t43.5 11.5t76.5 3.5t76.5 -3.5t43.5 -11.5t19 -22.5t3 -35.5l-11 -163q-1 -19 -6 -30t-18.5 -17t-39 -8t-67.5 -2z" />
    <glyph glyph-name="agrave" unicode="&#xe0;" horiz-adv-x="1086" 
d="M109 291q-1 56 24 98.5t64.5 74.5t89.5 54.5t99 38.5q63 21 133.5 36t137.5 26l-9 331q-2 55 -27.5 81.5t-80.5 26.5q-26 0 -47 -4t-36.5 -16t-24.5 -33t-10 -54l-7 -227q0 -19 -5.5 -30t-21.5 -17t-45.5 -8t-78.5 -2q-45 0 -73 2t-43 8t-20 17t-6 30l-8 213
q-2 53 18 94.5t54.5 72t79 51.5t93 34.5t96.5 19t88 5.5q86 0 163.5 -19.5t135.5 -56.5t91.5 -90.5t31.5 -122.5l-31 -868q-1 -19 -5.5 -30t-18.5 -17t-39.5 -8t-67.5 -2q-39 0 -62.5 2t-36 8t-17 17t-4.5 30l-1 35q-27 -20 -59 -38.5t-68 -33t-76.5 -23.5t-84.5 -9
q-70 0 -123 19.5t-88.5 53t-53.5 79t-19 97.5zM383 267q0 -30 9 -51.5t24 -35t35.5 -20t44.5 -6.5q58 0 100 19t72 44l-7 257q-54 -9 -95 -20.5t-73 -25.5q-50 -23 -80 -50.5t-30 -71.5v-39zM547 1382q-36 0 -57 2.5t-34.5 9t-23.5 18t-24 29.5l-172 226q-18 23 -30 42.5
t-12 35.5q0 10 5.5 17.5t20.5 12t41 7t67 2.5q42 0 68 -2t42.5 -9t27 -19t21.5 -32l107 -200q20 -38 34.5 -61t14.5 -42q0 -20 -22.5 -28.5t-73.5 -8.5z" />
    <glyph glyph-name="section" unicode="&#xa7;" horiz-adv-x="1347" 
d="M262 -117q0 28 5 46t19.5 28.5t41.5 15t71 4.5q45 0 72 -4.5t41.5 -15.5t19.5 -29t5 -46v-59q0 -28 7 -47t23.5 -30.5t43 -16.5t64.5 -5q71 0 99.5 27.5t28.5 91.5v76q0 40 -7.5 64.5t-25 41t-46.5 30t-72 31.5l-237 86q-49 18 -82.5 37t-54.5 47t-30.5 68t-9.5 101v164
q0 43 20.5 79t54 64.5t75.5 50t85 36.5l-75 33q-53 23 -88.5 47t-56.5 53.5t-30.5 66t-10.5 83.5l-11 334q-2 57 28 108.5t90.5 91.5t149.5 63.5t206 23.5q114 0 204 -22t151 -63t91 -100.5t25 -134.5l-21 -337q-2 -30 -11 -48.5t-28 -28t-50.5 -12.5t-77.5 -3
q-39 0 -65.5 2.5t-43 11.5t-24.5 26t-9 45l-15 351q-2 44 -10 70t-23 40t-38 18.5t-55 4.5t-56.5 -4.5t-41.5 -18.5t-26 -40t-10 -70l-11 -331q-1 -32 2.5 -55.5t14.5 -42t30 -33t49 -27.5l301 -135q39 -17 71.5 -36.5t55 -46.5t35 -65.5t12.5 -92.5v-158q0 -40 -18.5 -74.5
t-50 -64t-74 -52t-90.5 -38.5l86 -40q36 -19 59.5 -38t37 -41.5t19 -50t5.5 -63.5v-57q0 -75 -32 -129t-88.5 -89.5t-132 -52.5t-162.5 -17q-74 0 -145 13.5t-127.5 43.5t-91 78t-34.5 117v51zM519 400q0 -24 3.5 -43t13 -33.5t25.5 -25.5t41 -20l104 -35q54 6 83 33.5
t29 84.5v165q0 25 -1.5 45.5t-10 37.5t-27 31.5t-52.5 27.5l-114 48q-38 -6 -65.5 -31.5t-27.5 -80.5z" />
    <glyph glyph-name="ccedilla" unicode="&#xe7;" horiz-adv-x="1062" 
d="M111 910q-3 80 32.5 137.5t96 94.5t139.5 54.5t162 17.5q85 0 164 -17.5t139 -54.5t95 -94.5t32 -137.5l-10 -311q-1 -19 -7 -30t-22 -17t-45 -8t-75 -2q-47 0 -76 2t-45 8t-21.5 17t-6.5 30l-9 328q-1 42 -9.5 68t-23.5 40t-35 18.5t-45 4.5t-45 -4.5t-35 -18.5
t-23.5 -40t-9.5 -68l-20 -659q-1 -38 6.5 -64t24 -42t42 -23t60.5 -7q70 0 101.5 28t31.5 99v31q0 19 5 31.5t19.5 20t41.5 10.5t72 3q44 0 71 -3t41.5 -10.5t19.5 -19.5t5 -31v-24q0 -64 -23 -111t-63 -79.5t-92.5 -52t-112.5 -28.5l-126 -288q-7 -17 -13 -26.5t-14 -14.5
t-18 -6t-25 -1h-98q-23 0 -32 7.5t-9 23.5q0 9 6.5 24.5t13.5 35.5l87 245q-60 9 -113 28.5t-93 53.5t-64 82.5t-26 115.5z" />
    <glyph glyph-name="commaaccent" unicode="&#xf6c3;" horiz-adv-x="586" 
d="M323 -73q49 0 78.5 -2.5t45 -10t20.5 -20t5 -32.5v-48q0 -22 -4.5 -45t-25.5 -52l-80 -111q-21 -29 -37.5 -38.5t-45.5 -9.5h-82q-19 0 -32 6.5t-13 18.5q0 15 8.5 30.5t17.5 34.5l41 82h-52q-30 0 -41.5 17t-11.5 38v77q0 19 9 31.5t32.5 20t64 10.5t103.5 3z" />
    <glyph glyph-name="degree" unicode="&#xb0;" horiz-adv-x="849" 
d="M424 1020q-61 0 -118.5 9.5t-103 32.5t-74 62t-32.5 98l-16 241q-4 64 23 108.5t75.5 73t112.5 41.5t133 13t132 -13t111 -41.5t75.5 -73t23.5 -108.5l-14 -241q-3 -59 -32 -98t-74.5 -62t-103 -32.5t-118.5 -9.5zM424 1150q24 0 45 5.5t35.5 19t22 35t6.5 53.5l-9 200
q-3 58 -27.5 77t-72.5 19q-50 0 -74 -19t-27 -77l-9 -200q-2 -32 6 -53.5t22.5 -35t35.5 -19t46 -5.5z" />
    <glyph glyph-name="asciicircum" unicode="^" horiz-adv-x="1086" 
d="M156 323q-58 0 -80.5 15.5t-11.5 57.5l301 1199q6 24 16 40.5t29 27.5t49.5 16t78.5 5q51 0 83 -5t52 -16t30.5 -27.5t17.5 -40.5l301 -1199q11 -42 -13.5 -57.5t-88.5 -15.5q-37 0 -59 3.5t-35.5 12t-20.5 22.5t-13 35l-242 841h-24l-242 -841q-6 -21 -13 -35
t-20.5 -22.5t-35.5 -12t-59 -3.5z" />
    <glyph glyph-name="trademark" unicode="&#x2122;" horiz-adv-x="2027" 
d="M849 1606q-1 28 5.5 44.5t27.5 25.5t58.5 11.5t97.5 2.5q62 0 97 -2t53.5 -9t26 -22t14.5 -40l130 -470h7l127 470q7 25 15.5 40t28.5 22t56 9t96 2q59 0 94.5 -2.5t54 -11t24 -25t4.5 -44.5l-33 -867q-1 -21 -4.5 -33t-15 -18t-33 -7.5t-57.5 -1.5q-40 0 -63.5 1.5
t-36 7.5t-16.5 18t-4 33l5 591h-9l-142 -443q-3 -12 -8 -19t-16 -11t-30.5 -5t-50.5 -1q-28 0 -45 1.5t-26.5 5.5t-14 11.5t-7.5 19.5l-151 441h-10l3 -591q0 -21 -3.5 -33t-16 -18t-36.5 -7.5t-64 -1.5q-33 0 -52 1.5t-29.5 7.5t-14 18.5t-4.5 34.5zM302 1479h-125
q-21 0 -32.5 4.5t-17 16.5t-6.5 31.5t-1 49.5q0 29 1 49.5t6.5 34t17 19.5t32.5 6h516q21 0 32.5 -6t17.5 -19.5t7 -34t1 -49.5q0 -30 -1 -49.5t-7 -31.5t-17.5 -16.5t-32.5 -4.5h-125l-23 -761q-1 -23 -26.5 -30.5t-82.5 -7.5t-82.5 6.5t-26.5 34.5z" />
    <glyph glyph-name="a" unicode="a" horiz-adv-x="1086" 
d="M109 291q-1 56 24 98.5t64.5 74.5t89.5 54.5t99 38.5q63 21 133.5 36t137.5 26l-9 331q-2 55 -27.5 81.5t-80.5 26.5q-26 0 -47 -4t-36.5 -16t-24.5 -33t-10 -54l-7 -227q0 -19 -5.5 -30t-21.5 -17t-45.5 -8t-78.5 -2q-45 0 -73 2t-43 8t-20 17t-6 30l-8 213
q-2 53 18 94.5t54.5 72t79 51.5t93 34.5t96.5 19t88 5.5q86 0 163.5 -19.5t135.5 -56.5t91.5 -90.5t31.5 -122.5l-31 -868q-1 -19 -5.5 -30t-18.5 -17t-39.5 -8t-67.5 -2q-39 0 -62.5 2t-36 8t-17 17t-4.5 30l-1 35q-27 -20 -59 -38.5t-68 -33t-76.5 -23.5t-84.5 -9
q-70 0 -123 19.5t-88.5 53t-53.5 79t-19 97.5zM383 267q0 -30 9 -51.5t24 -35t35.5 -20t44.5 -6.5q58 0 100 19t72 44l-7 257q-54 -9 -95 -20.5t-73 -25.5q-50 -23 -80 -50.5t-30 -71.5v-39z" />
    <glyph glyph-name="uni0001" 
 />
    <glyph glyph-name="uni0002" 
 />
    <glyph glyph-name="uni0003" 
 />
    <glyph glyph-name="uni0019" 
 />
    <glyph glyph-name="uni0018" 
 />
    <glyph glyph-name="uni0017" 
 />
    <glyph glyph-name="uni0016" 
 />
    <glyph glyph-name="uni0015" 
 />
    <glyph glyph-name="uni0008" 
 />
    <glyph glyph-name="uni0007" 
 />
    <glyph glyph-name="uni0006" 
 />
    <glyph glyph-name="uni0005" 
 />
    <glyph glyph-name="uni0004" 
 />
    <glyph glyph-name="uni00AD" unicode="&#xad;" horiz-adv-x="1707" 
 />
    <glyph glyph-name="LF" unicode="&#xa;" 
 />
    <glyph glyph-name="HT" unicode="&#x9;" 
 />
    <glyph glyph-name="DLE" 
 />
    <glyph glyph-name="DC1" 
 />
    <glyph glyph-name="DC2" 
 />
    <glyph glyph-name="DC3" 
 />
    <glyph glyph-name="DC4" 
 />
    <glyph glyph-name="RS" 
 />
    <glyph glyph-name="US" 
 />
    <glyph glyph-name="DEL" 
 />
    <glyph glyph-name="nonbreakingspace" unicode="&#xa0;" horiz-adv-x="500" 
 />
    <glyph glyph-name="h" unicode="h" horiz-adv-x="1087" 
d="M131 1651q0 21 4.5 35.5t21.5 22.5t49.5 11.5t86.5 3.5t86.5 -3.5t49.5 -11.5t21.5 -22.5t4.5 -35.5l-11 -569q27 29 55 53t60 41.5t68 27.5t79 10q61 0 113.5 -22t90 -64t58 -102t18.5 -136l-24 -833q0 -19 -5 -30t-19 -17t-39.5 -8t-67.5 -2t-67.5 2t-39 8t-18.5 17
t-5 30l-23 804q-1 39 -10 65t-24 41t-35.5 21t-44.5 6q-41 0 -72 -24.5t-52 -56.5l-16 -856q0 -19 -5 -30t-19 -17t-39.5 -8t-67.5 -2t-67.5 2t-39 8t-18.5 17t-5 30z" />
    <glyph glyph-name="s" unicode="s" horiz-adv-x="1054" 
d="M126 291q0 19 5 31t19.5 19.5t41.5 10.5t71 3q45 0 72 -3t41.5 -10.5t19.5 -20t5 -31.5v-49q0 -61 35.5 -85t100.5 -24t90.5 27.5t25.5 91.5v49q0 25 -6.5 43t-19.5 31.5t-33.5 23.5t-47.5 19l-296 104q-71 25 -105.5 82t-37.5 140l-6 175q-3 80 33 136t97 91.5t140 52
t162 16.5q81 0 158 -14t136.5 -46.5t94 -86t31.5 -133.5l-8 -210q-1 -19 -6.5 -30t-20.5 -17t-42.5 -8t-72.5 -2q-49 0 -78.5 2t-45.5 8t-21.5 17t-5.5 30l-7 227q-1 33 -9.5 54t-23 33t-34.5 16t-45 4t-45.5 -4.5t-35.5 -16.5t-23.5 -32.5t-9.5 -52.5l-7 -217
q-2 -49 20.5 -80.5t74.5 -48.5l252 -90q51 -18 84 -39t52.5 -49t26.5 -63.5t5 -83.5l-2 -46q-3 -69 -35.5 -116t-86 -76.5t-122 -42t-143.5 -12.5q-73 0 -146.5 11.5t-132.5 41t-96 80t-37 129.5v41z" />
    <glyph glyph-name="oslash" unicode="&#xf8;" horiz-adv-x="1081" 
d="M111 910q-3 80 32.5 137.5t96 94.5t139.5 54.5t162 17.5q21 0 42.5 -1.5t41.5 -3.5l70 214q7 19 13.5 33t21 22.5t39.5 12t68 3.5t70 -4t40.5 -12.5t15 -21.5t-5.5 -32l-113 -284q60 -37 95 -94t32 -136l-23 -633q-3 -82 -38 -137.5t-91 -89t-128 -48t-149 -14.5
q-7 0 -13 0.5t-12 0.5l-87 -206q-7 -17 -16 -27t-22 -15t-31.5 -6t-45.5 -1q-33 0 -52.5 2.5t-29 9t-10 17.5t5.5 29l79 236q-37 15 -68.5 37.5t-54.5 53t-36.5 69.5t-14.5 88zM408 268q-1 -38 6.5 -64t24 -42t42 -23t60.5 -7q70 0 102.5 30t30.5 107l-20 658q-1 42 -9.5 68
t-23.5 40t-35 18.5t-45 4.5t-45 -4.5t-35 -18.5t-23.5 -40t-9.5 -68z" />
    <glyph glyph-name="Oslash" unicode="&#xd8;" horiz-adv-x="1208" 
d="M260 78q-57 44 -83.5 102t-28.5 125l-28 1060q-2 75 25 137t85.5 106t151 68.5t222.5 24.5q36 0 69.5 -2t64.5 -6l76 233q7 20 13.5 33.5t21 22t39.5 12t68 3.5q85 -1 110.5 -16t9.5 -54l-122 -304q72 -45 104 -110.5t30 -147.5l-29 -1060q-2 -65 -28 -123t-80.5 -101
t-140 -68t-206.5 -25q-81 0 -147 12l-88 -216q-7 -17 -16 -27t-22 -15t-31.5 -6t-45.5 -1q-66 1 -84 12.5t-2 45.5zM443 296q-1 -42 7.5 -70t28 -44.5t50.5 -23.5t75 -7t75 7t50.5 23.5t28 44.5t7.5 70l-29 1100q-1 44 -10 70t-25.5 40t-40.5 18.5t-56 4.5t-56 -4.5
t-40.5 -18.5t-25.5 -40t-10 -70z" />
    <glyph glyph-name="Ldot" unicode="&#x13f;" horiz-adv-x="884" 
d="M589 990q-2 21 2.5 35.5t21 22.5t47 11.5t81.5 3.5t81.5 -3.5t46.5 -11.5t20.5 -22.5t3.5 -35.5l-11 -195q-1 -19 -6 -30t-20 -17t-42.5 -8t-72.5 -2t-72.5 2t-42 8t-19.5 17t-6 30zM125 1607q-1 26 5 42t25.5 25t55.5 12.5t96 3.5q59 0 95 -3.5t55.5 -12.5t26 -25
t5.5 -42l-41 -1421h261q26 0 40.5 -4.5t21 -15t8 -28.5t1.5 -45t-1.5 -45t-8 -28.5t-21 -15t-40.5 -4.5h-402q-46 0 -73.5 2t-41.5 9t-18.5 20.5t-5.5 36.5z" />
    <glyph glyph-name="Lslash" unicode="&#x141;" horiz-adv-x="820" 
d="M153 603l-23 -13q-35 -21 -54.5 -29t-32.5 -8q-17 0 -23.5 12t-6.5 47v67q0 19 2 33t7 24.5t13 18.5t21 16l91 56l-22 780q-1 26 5 42t25.5 25t55.5 12.5t96 3.5q59 0 95 -3.5t55.5 -12.5t26 -25t5.5 -42l-17 -579l196 122q25 16 42 25t35 9q35 0 35 -49v-88
q0 -42 -8.5 -63t-38.5 -38l-268 -158l-17 -602h261q26 0 40.5 -4.5t21 -15t8 -28.5t1.5 -45t-1.5 -45t-8 -28.5t-21 -15t-40.5 -4.5h-402q-46 0 -73.5 2t-41.5 9t-18.5 20.5t-5.5 36.5z" />
    <glyph glyph-name="lslash" unicode="&#x142;" horiz-adv-x="693" 
d="M192 683l-63 -37q-35 -22 -54.5 -31t-32.5 -9q-17 0 -23.5 12t-6.5 47v69q0 19 2 33t7 24.5t13 18.5t21 16l133 82l-15 743q0 21 4.5 35.5t21.5 22.5t49.5 11.5t86.5 3.5t86.5 -3.5t49.5 -11.5t21.5 -22.5t4.5 -35.5l-11 -558l75 47q25 16 49.5 31t42.5 15t26 -11.5
t8 -49.5v-78q0 -21 -2 -36t-7 -26.5t-14 -20.5t-24 -18l-159 -93l-15 -796q0 -19 -5 -30t-19 -17t-39.5 -8t-67.5 -2t-67.5 2t-39 8t-18.5 17t-5 30z" />
    <glyph glyph-name="ldot" unicode="&#x140;" horiz-adv-x="854" 
d="M537 986q-2 21 2.5 35.5t21 22.5t47 11.5t81.5 3.5t81.5 -3.5t46.5 -11.5t20.5 -22.5t3.5 -35.5l-11 -195q-1 -19 -6 -30t-20 -17t-42.5 -8t-72.5 -2t-72.5 2t-42 8t-19.5 17t-6 30zM131 1651q0 21 4.5 35.5t21.5 22.5t49.5 11.5t86.5 3.5t86.5 -3.5t49.5 -11.5
t21.5 -22.5t4.5 -35.5l-31 -1594q0 -19 -5 -30t-19 -17t-39.5 -8t-67.5 -2t-67.5 2t-39 8t-18.5 17t-5 30z" />
    <glyph glyph-name="Eth" unicode="&#xd0;" horiz-adv-x="1222" 
d="M148 781h-59q-26 0 -40.5 3.5t-21.5 13.5t-8.5 27.5t-1.5 45.5t1.5 45.5t8.5 27.5t21.5 13.5t40.5 3.5h54l-18 646q-1 25 5 41.5t25 25.5t54.5 12.5t94.5 3.5h3h22h270q134 0 230 -23t156.5 -68t88 -111.5t24.5 -153.5l-29 -1010q-2 -75 -30.5 -135t-85.5 -102
t-144 -64.5t-207 -22.5h-269h-26h-26q-37 0 -59 3t-34 10t-15.5 20.5t-4.5 34.5zM612 163q47 0 79 7.5t51.5 24.5t27 45.5t6.5 70.5l-29 1071q-1 43 -9.5 70t-24.5 41t-40 19t-56 5h-131l-16 -556h108q26 0 40.5 -3.5t21.5 -13.5t8.5 -27.5t1.5 -45.5t-1.5 -45.5t-8.5 -27.5
t-21.5 -13.5t-40.5 -3.5h-113l-18 -618h165z" />
    <glyph glyph-name="Edieresis" unicode="&#xcb;" horiz-adv-x="901" 
d="M125 1607q-1 26 5 42t25.5 25t55.5 12.5t96 3.5h32.5t29.5 -1h401q26 0 40.5 -4t21 -15t8 -30t1.5 -49t-1.5 -49.5t-8 -30t-21 -14.5t-40.5 -4h-284l-18 -614h241q26 0 40.5 -4t21 -14.5t8 -29t1.5 -47.5t-1.5 -47.5t-8 -29t-21 -14.5t-40.5 -4h-246l-15 -503h285
q26 0 40.5 -4.5t21 -15t8 -28.5t1.5 -45t-1.5 -45t-8 -28.5t-21 -15t-40.5 -4.5h-400h-26q-46 0 -73.5 2t-41.5 9t-18.5 20.5t-5.5 36.5zM705 1817q-42 0 -67 2t-38.5 8t-18.5 17t-6 30l-12 163q-2 21 2.5 35.5t19.5 22.5t43.5 11.5t76.5 3.5t76.5 -3.5t43.5 -11.5t19 -22.5
t3 -35.5l-11 -163q-1 -19 -6 -30t-18.5 -17t-39 -8t-67.5 -2zM259 1817q-42 0 -67 2t-38.5 8t-18.5 17t-6 30l-12 163q-2 21 2.5 35.5t19.5 22.5t43.5 11.5t76.5 3.5t76.5 -3.5t43.5 -11.5t19 -22.5t3 -35.5l-11 -163q-1 -19 -6 -30t-18.5 -17t-39 -8t-67.5 -2z" />
    <glyph glyph-name="Egrave" unicode="&#xc8;" horiz-adv-x="901" 
d="M125 1607q-1 26 5 42t25.5 25t55.5 12.5t96 3.5h32.5t29.5 -1h401q26 0 40.5 -4t21 -15t8 -30t1.5 -49t-1.5 -49.5t-8 -30t-21 -14.5t-40.5 -4h-284l-18 -614h241q26 0 40.5 -4t21 -14.5t8 -29t1.5 -47.5t-1.5 -47.5t-8 -29t-21 -14.5t-40.5 -4h-246l-15 -503h285
q26 0 40.5 -4.5t21 -15t8 -28.5t1.5 -45t-1.5 -45t-8 -28.5t-21 -15t-40.5 -4.5h-400h-26q-46 0 -73.5 2t-41.5 9t-18.5 20.5t-5.5 36.5zM514 1770q-36 0 -57 2.5t-34.5 8.5t-24 17t-24.5 29l-144 178q-19 24 -32 43t-13 35q0 10 6.5 17t21.5 11t40.5 5.5t63.5 1.5
q42 0 68 -2t42.5 -9t27 -19t21.5 -32l82 -146q21 -37 37.5 -63t16.5 -43q0 -20 -23.5 -27t-74.5 -7z" />
    <glyph glyph-name="igrave" unicode="&#xec;" horiz-adv-x="566" 
d="M121 1129q0 21 4.5 35.5t21.5 22.5t49.5 11.5t86.5 3.5t86.5 -3.5t49.5 -11.5t21.5 -22.5t4.5 -35.5l-31 -1072q0 -19 -5 -30t-19 -17t-39.5 -8t-67.5 -2t-67.5 2t-39 8t-18.5 17t-5 30zM294 1382q-36 0 -57 2.5t-34.5 9t-23.5 18t-24 29.5l-172 226q-18 23 -30 42.5
t-12 35.5q0 10 5.5 17.5t20.5 12t41 7t67 2.5q42 0 68 -2t42.5 -9t27 -19t21.5 -32l107 -200q20 -38 34.5 -61t14.5 -42q0 -20 -22.5 -28.5t-73.5 -8.5z" />
    <glyph glyph-name="ograve" unicode="&#xf2;" horiz-adv-x="1081" 
d="M111 910q-3 80 32.5 137.5t96 94.5t139.5 54.5t162 17.5t162 -17.5t139.5 -54.5t96 -94.5t32.5 -137.5l-23 -633q-3 -82 -38 -137.5t-91 -89t-128 -48t-149 -14.5q-78 0 -150 14.5t-128.5 48t-91.5 88.5t-38 137zM408 268q-1 -38 6.5 -64t24 -42t42 -23t60.5 -7
q70 0 102.5 30t30.5 107l-20 658q-1 42 -9.5 68t-23.5 40t-35 18.5t-45 4.5t-45 -4.5t-35 -18.5t-23.5 -40t-9.5 -68zM551 1382q-36 0 -57 2.5t-34.5 9t-23.5 18t-24 29.5l-172 226q-18 23 -30 42.5t-12 35.5q0 10 5.5 17.5t20.5 12t41 7t67 2.5q42 0 68 -2t42.5 -9t27 -19
t21.5 -32l107 -200q20 -38 34.5 -61t14.5 -42q0 -20 -22.5 -28.5t-73.5 -8.5z" />
    <glyph glyph-name="odieresis" unicode="&#xf6;" horiz-adv-x="1081" 
d="M111 910q-3 80 32.5 137.5t96 94.5t139.5 54.5t162 17.5t162 -17.5t139.5 -54.5t96 -94.5t32.5 -137.5l-23 -633q-3 -82 -38 -137.5t-91 -89t-128 -48t-149 -14.5q-78 0 -150 14.5t-128.5 48t-91.5 88.5t-38 137zM408 268q-1 -38 6.5 -64t24 -42t42 -23t60.5 -7
q70 0 102.5 30t30.5 107l-20 658q-1 42 -9.5 68t-23.5 40t-35 18.5t-45 4.5t-45 -4.5t-35 -18.5t-23.5 -40t-9.5 -68zM756 1407q-42 0 -67 2t-38.5 8t-18.5 17t-6 30l-12 171q-2 21 2.5 35.5t19.5 22.5t43.5 11.5t76.5 3.5t76.5 -3.5t43.5 -11.5t19 -22.5t3 -35.5l-11 -171
q-1 -19 -6 -30t-18.5 -17t-39 -8t-67.5 -2zM326 1407q-42 0 -67 2t-38.5 8t-18.5 17t-6 30l-12 171q-2 21 2.5 35.5t19.5 22.5t43.5 11.5t76.5 3.5t76.5 -3.5t43.5 -11.5t19 -22.5t3 -35.5l-11 -171q-1 -19 -6 -30t-18.5 -17t-39 -8t-67.5 -2z" />
    <glyph glyph-name="IJ" unicode="&#x132;" horiz-adv-x="1232" 
d="M156 381q-1 30 4 48t21 28t44.5 13t75.5 3q52 0 83 -3t47 -12.5t20 -28t3 -48.5l-3 -101q-2 -38 7.5 -63t30.5 -39.5t53 -20.5t75 -6q47 0 78.5 7t50.5 23.5t26.5 44.5t6.5 70l-36 1311q-1 28 5 44.5t25.5 25t55.5 11t96 2.5q59 0 95 -3.5t55.5 -12.5t26 -25t5.5 -42
l-36 -1302q-2 -65 -27.5 -123t-80 -101t-140 -68t-206.5 -25q-114 0 -198.5 24t-141.5 65.5t-86.5 97t-31.5 117.5zM307 645q-46 0 -76 2t-47 9t-24 20.5t-8 36.5l-27 894q-1 26 5 42t25.5 25t55.5 12.5t96 3.5q59 0 95 -3.5t55.5 -12.5t25.5 -25t5 -42l-27 -894
q-1 -23 -7.5 -36.5t-24 -20.5t-47 -9t-75.5 -2z" />
    <glyph glyph-name="egrave" unicode="&#xe8;" horiz-adv-x="1062" 
d="M111 910q-3 80 33.5 137.5t98 94.5t141 54.5t162.5 17.5q79 0 155 -17.5t135 -54.5t93.5 -94.5t31.5 -137.5l-15 -369q-1 -19 -6.5 -30t-20.5 -17t-42.5 -8t-72.5 -2h-390l-6 -216q-1 -38 7.5 -64t25.5 -42t42 -23t57 -7q64 0 94 28t30 99v31q0 19 5 31.5t19.5 20
t41.5 10.5t72 3q44 0 71 -3t41.5 -10.5t19 -19.5t4.5 -31v-44q0 -79 -34 -129t-89.5 -79t-127 -40t-146.5 -11q-76 0 -148 14.5t-128.5 48t-92 88.5t-38.5 137zM664 634l-10 293q-1 42 -9.5 68t-23 40t-34 18.5t-41.5 4.5q-25 0 -46 -4.5t-36.5 -18.5t-25 -40t-10.5 -68
l-9 -293h245zM546 1382q-36 0 -57 2.5t-34.5 9t-23.5 18t-24 29.5l-172 226q-18 23 -30 42.5t-12 35.5q0 10 5.5 17.5t20.5 12t41 7t67 2.5q42 0 68 -2t42.5 -9t27 -19t21.5 -32l107 -200q20 -38 34.5 -61t14.5 -42q0 -20 -22.5 -28.5t-73.5 -8.5z" />
    <glyph glyph-name="edieresis" unicode="&#xeb;" horiz-adv-x="1062" 
d="M111 910q-3 80 33.5 137.5t98 94.5t141 54.5t162.5 17.5q79 0 155 -17.5t135 -54.5t93.5 -94.5t31.5 -137.5l-15 -369q-1 -19 -6.5 -30t-20.5 -17t-42.5 -8t-72.5 -2h-390l-6 -216q-1 -38 7.5 -64t25.5 -42t42 -23t57 -7q64 0 94 28t30 99v31q0 19 5 31.5t19.5 20
t41.5 10.5t72 3q44 0 71 -3t41.5 -10.5t19 -19.5t4.5 -31v-44q0 -79 -34 -129t-89.5 -79t-127 -40t-146.5 -11q-76 0 -148 14.5t-128.5 48t-92 88.5t-38.5 137zM664 634l-10 293q-1 42 -9.5 68t-23 40t-34 18.5t-41.5 4.5q-25 0 -46 -4.5t-36.5 -18.5t-25 -40t-10.5 -68
l-9 -293h245zM751 1407q-42 0 -67 2t-38.5 8t-18.5 17t-6 30l-12 171q-2 21 2.5 35.5t19.5 22.5t43.5 11.5t76.5 3.5t76.5 -3.5t43.5 -11.5t19 -22.5t3 -35.5l-11 -171q-1 -19 -6 -30t-18.5 -17t-39 -8t-67.5 -2zM321 1407q-42 0 -67 2t-38.5 8t-18.5 17t-6 30l-12 171
q-2 21 2.5 35.5t19.5 22.5t43.5 11.5t76.5 3.5t76.5 -3.5t43.5 -11.5t19 -22.5t3 -35.5l-11 -171q-1 -19 -6 -30t-18.5 -17t-39 -8t-67.5 -2z" />
    <glyph glyph-name="Ccedilla" unicode="&#xc7;" horiz-adv-x="1198" 
d="M120 1365q-2 75 25 137t85.5 106t151 68.5t222.5 24.5q129 0 221.5 -24.5t151.5 -68.5t86 -106t25 -137l-12 -486q-1 -30 -9 -48.5t-27 -28t-50.5 -12.5t-77.5 -3q-47 0 -78 3t-49.5 12.5t-26.5 28t-9 48.5l-13 517q-1 44 -10 70t-25.5 40t-40.5 18.5t-56 4.5t-56 -4.5
t-40.5 -18.5t-25.5 -40t-10 -70l-29 -1100q-1 -42 7.5 -70t28 -44.5t50.5 -23.5t75 -7t75.5 7t51 23.5t27.5 44.5t7 70l-4 119q-1 30 6.5 48.5t26 28t49.5 12.5t77 3q45 0 73.5 -3t44 -12.5t20.5 -28t4 -48.5l-3 -112q-2 -57 -21.5 -108t-60.5 -91.5t-104 -69t-152 -39.5
l-126 -287q-7 -17 -13 -26.5t-14 -14.5t-18 -6t-25 -1h-98q-23 0 -32 7.5t-9 23.5q0 9 6.5 24.5t13.5 35.5l86 244q-90 11 -154.5 39t-106 69.5t-62 93t-21.5 108.5z" />
    <glyph glyph-name="idieresis" unicode="&#xef;" horiz-adv-x="566" 
d="M482 1407q-42 0 -67 2t-38.5 8t-18.5 17t-6 30l-12 171q-2 21 2.5 35.5t19.5 22.5t43.5 11.5t76.5 3.5t76.5 -3.5t43.5 -11.5t19 -22.5t3 -35.5l-11 -171q-1 -19 -6 -30t-18.5 -17t-39 -8t-67.5 -2zM84 1407q-42 0 -67 2t-38.5 8t-18.5 17t-6 30l-12 171q-2 21 2.5 35.5
t19.5 22.5t43.5 11.5t76.5 3.5t76.5 -3.5t43.5 -11.5t19 -22.5t3 -35.5l-11 -171q-1 -19 -6 -30t-18.5 -17t-39 -8t-67.5 -2zM121 1129q0 21 4.5 35.5t21.5 22.5t49.5 11.5t86.5 3.5t86.5 -3.5t49.5 -11.5t21.5 -22.5t4.5 -35.5l-31 -1072q0 -19 -5 -30t-19 -17t-39.5 -8
t-67.5 -2t-67.5 2t-39 8t-18.5 17t-5 30z" />
    <glyph glyph-name="ugrave" unicode="&#xf9;" horiz-adv-x="1086" 
d="M101 1129q0 21 4.5 35.5t21.5 22.5t49.5 11.5t86.5 3.5t86.5 -3.5t49.5 -11.5t21.5 -22.5t4.5 -35.5l-23 -816q-1 -44 10 -72t29.5 -44.5t41.5 -23t47 -6.5q43 0 77 18.5t60 41.5l-26 902q0 21 4.5 35.5t21.5 22.5t49.5 11.5t86.5 3.5t86.5 -3.5t49.5 -11.5t21.5 -22.5
t4.5 -35.5l-31 -1072q0 -19 -5 -30t-19 -17t-39.5 -8t-67.5 -2q-39 0 -62.5 2t-36 8t-17 17t-4.5 30l-2 47q-22 -20 -50 -41t-63.5 -37.5t-78 -27t-93.5 -10.5q-124 0 -195 71t-75 209zM543 1382q-36 0 -57 2.5t-34.5 9t-23.5 18t-24 29.5l-172 226q-18 23 -30 42.5
t-12 35.5q0 10 5.5 17.5t20.5 12t41 7t67 2.5q42 0 68 -2t42.5 -9t27 -19t21.5 -32l107 -200q20 -38 34.5 -61t14.5 -42q0 -20 -22.5 -28.5t-73.5 -8.5z" />
    <glyph glyph-name="udieresis" unicode="&#xfc;" horiz-adv-x="1086" 
d="M101 1129q0 21 4.5 35.5t21.5 22.5t49.5 11.5t86.5 3.5t86.5 -3.5t49.5 -11.5t21.5 -22.5t4.5 -35.5l-23 -816q-1 -44 10 -72t29.5 -44.5t41.5 -23t47 -6.5q43 0 77 18.5t60 41.5l-26 902q0 21 4.5 35.5t21.5 22.5t49.5 11.5t86.5 3.5t86.5 -3.5t49.5 -11.5t21.5 -22.5
t4.5 -35.5l-31 -1072q0 -19 -5 -30t-19 -17t-39.5 -8t-67.5 -2q-39 0 -62.5 2t-36 8t-17 17t-4.5 30l-2 47q-22 -20 -50 -41t-63.5 -37.5t-78 -27t-93.5 -10.5q-124 0 -195 71t-75 209zM748 1407q-42 0 -67 2t-38.5 8t-18.5 17t-6 30l-12 171q-2 21 2.5 35.5t19.5 22.5
t43.5 11.5t76.5 3.5t76.5 -3.5t43.5 -11.5t19 -22.5t3 -35.5l-11 -171q-1 -19 -6 -30t-18.5 -17t-39 -8t-67.5 -2zM318 1407q-42 0 -67 2t-38.5 8t-18.5 17t-6 30l-12 171q-2 21 2.5 35.5t19.5 22.5t43.5 11.5t76.5 3.5t76.5 -3.5t43.5 -11.5t19 -22.5t3 -35.5l-11 -171
q-1 -19 -6 -30t-18.5 -17t-39 -8t-67.5 -2z" />
    <glyph glyph-name="Igrave" unicode="&#xcc;" horiz-adv-x="614" 
d="M125 1607q-1 26 5 42t25.5 25t55.5 12.5t96 3.5q59 0 95 -3.5t55.5 -12.5t26 -25t5.5 -42l-44 -1539q0 -23 -4.5 -36.5t-19 -20.5t-41.5 -9t-73 -2t-73.5 2t-41.5 9t-18.5 20.5t-5.5 36.5zM340 1770q-36 0 -57 2.5t-34.5 8.5t-24 17t-24.5 29l-144 178q-19 24 -32 43
t-13 35q0 10 6.5 17t21.5 11t40.5 5.5t63.5 1.5q42 0 68 -2t42.5 -9t27 -19t21.5 -32l82 -146q21 -37 37.5 -63t16.5 -43q0 -20 -23.5 -27t-74.5 -7z" />
    <glyph glyph-name="Idieresis" unicode="&#xcf;" horiz-adv-x="614" 
d="M125 1607q-1 26 5 42t25.5 25t55.5 12.5t96 3.5q59 0 95 -3.5t55.5 -12.5t26 -25t5.5 -42l-44 -1539q0 -23 -4.5 -36.5t-19 -20.5t-41.5 -9t-73 -2t-73.5 2t-41.5 9t-18.5 20.5t-5.5 36.5zM531 1817q-42 0 -67 2t-38.5 8t-18.5 17t-6 30l-12 163q-2 21 2.5 35.5
t19.5 22.5t43.5 11.5t76.5 3.5t76.5 -3.5t43.5 -11.5t19 -22.5t3 -35.5l-11 -163q-1 -19 -6 -30t-18.5 -17t-39 -8t-67.5 -2zM85 1817q-42 0 -67 2t-38.5 8t-18.5 17t-6 30l-12 163q-2 21 2.5 35.5t19.5 22.5t43.5 11.5t76.5 3.5t76.5 -3.5t43.5 -11.5t19 -22.5t3 -35.5
l-11 -163q-1 -19 -6 -30t-18.5 -17t-39 -8t-67.5 -2z" />
    <glyph glyph-name="Ograve" unicode="&#xd2;" horiz-adv-x="1208" 
d="M120 1365q-2 75 25 137t85.5 106t151 68.5t222.5 24.5q129 0 221.5 -24.5t151.5 -68.5t86 -106t25 -137l-29 -1060q-2 -65 -28 -123t-80.5 -101t-140 -68t-206.5 -25t-207 25t-140.5 68t-80.5 101t-28 123zM443 296q-1 -42 7.5 -70t28 -44.5t50.5 -23.5t75 -7t75 7
t50.5 23.5t28 44.5t7.5 70l-29 1100q-1 44 -10 70t-25.5 40t-40.5 18.5t-56 4.5t-56 -4.5t-40.5 -18.5t-25.5 -40t-10 -70zM636 1770q-36 0 -57 2.5t-34.5 8.5t-24 17t-24.5 29l-144 178q-19 24 -32 43t-13 35q0 10 6.5 17t21.5 11t40.5 5.5t63.5 1.5q42 0 68 -2t42.5 -9
t27 -19t21.5 -32l82 -146q21 -37 37.5 -63t16.5 -43q0 -20 -23.5 -27t-74.5 -7z" />
    <glyph glyph-name="Odieresis" unicode="&#xd6;" horiz-adv-x="1208" 
d="M120 1365q-2 75 25 137t85.5 106t151 68.5t222.5 24.5q129 0 221.5 -24.5t151.5 -68.5t86 -106t25 -137l-29 -1060q-2 -65 -28 -123t-80.5 -101t-140 -68t-206.5 -25t-207 25t-140.5 68t-80.5 101t-28 123zM443 296q-1 -42 7.5 -70t28 -44.5t50.5 -23.5t75 -7t75 7
t50.5 23.5t28 44.5t7.5 70l-29 1100q-1 44 -10 70t-25.5 40t-40.5 18.5t-56 4.5t-56 -4.5t-40.5 -18.5t-25.5 -40t-10 -70zM827 1817q-42 0 -67 2t-38.5 8t-18.5 17t-6 30l-12 163q-2 21 2.5 35.5t19.5 22.5t43.5 11.5t76.5 3.5t76.5 -3.5t43.5 -11.5t19 -22.5t3 -35.5
l-11 -163q-1 -19 -6 -30t-18.5 -17t-39 -8t-67.5 -2zM381 1817q-42 0 -67 2t-38.5 8t-18.5 17t-6 30l-12 163q-2 21 2.5 35.5t19.5 22.5t43.5 11.5t76.5 3.5t76.5 -3.5t43.5 -11.5t19 -22.5t3 -35.5l-11 -163q-1 -19 -6 -30t-18.5 -17t-39 -8t-67.5 -2z" />
    <glyph glyph-name="Ugrave" unicode="&#xd9;" horiz-adv-x="1201" 
d="M110 1607q-1 26 5 42t25.5 25t56 12.5t95.5 3.5t95 -3.5t55.5 -12.5t26 -25t5.5 -42l-34 -1311q-1 -42 7.5 -70t28 -44.5t50.5 -23.5t75 -7t75 7t50.5 23.5t28 44.5t7.5 70l-35 1311q-1 26 5 42t25.5 25t55.5 12.5t96 3.5q59 0 95 -3.5t55.5 -12.5t26 -25t5.5 -42
l-35 -1302q-2 -65 -28 -123t-80.5 -101t-140 -68t-206.5 -25t-207 25t-140.5 68t-80.5 101t-27 123zM632 1770q-36 0 -57 2.5t-34.5 8.5t-24 17t-24.5 29l-144 178q-19 24 -32 43t-13 35q0 10 6.5 17t21.5 11t40.5 5.5t63.5 1.5q42 0 68 -2t42.5 -9t27 -19t21.5 -32l82 -146
q21 -37 37.5 -63t16.5 -43q0 -20 -23.5 -27t-74.5 -7z" />
    <glyph glyph-name="Udieresis" unicode="&#xdc;" horiz-adv-x="1201" 
d="M110 1607q-1 26 5 42t25.5 25t56 12.5t95.5 3.5t95 -3.5t55.5 -12.5t26 -25t5.5 -42l-34 -1311q-1 -42 7.5 -70t28 -44.5t50.5 -23.5t75 -7t75 7t50.5 23.5t28 44.5t7.5 70l-35 1311q-1 26 5 42t25.5 25t55.5 12.5t96 3.5q59 0 95 -3.5t55.5 -12.5t26 -25t5.5 -42
l-35 -1302q-2 -65 -28 -123t-80.5 -101t-140 -68t-206.5 -25t-207 25t-140.5 68t-80.5 101t-27 123zM823 1817q-42 0 -67 2t-38.5 8t-18.5 17t-6 30l-12 163q-2 21 2.5 35.5t19.5 22.5t43.5 11.5t76.5 3.5t76.5 -3.5t43.5 -11.5t19 -22.5t3 -35.5l-11 -163q-1 -19 -6 -30
t-18.5 -17t-39 -8t-67.5 -2zM377 1817q-42 0 -67 2t-38.5 8t-18.5 17t-6 30l-12 163q-2 21 2.5 35.5t19.5 22.5t43.5 11.5t76.5 3.5t76.5 -3.5t43.5 -11.5t19 -22.5t3 -35.5l-11 -163q-1 -19 -6 -30t-18.5 -17t-39 -8t-67.5 -2z" />
    <glyph glyph-name="Ydieresis" unicode="&#x178;" horiz-adv-x="1124" 
d="M411 527l-360 1014q-9 27 -15 49t-6 42q0 19 8 30.5t29 17.5t57 8t91 2t88.5 -2t53 -10.5t28.5 -26t15 -49.5l151 -782h22l150 782q6 32 15 50t28 26.5t52.5 10t89.5 1.5q55 0 91 -2t57 -8t29.5 -17.5t8.5 -30.5q0 -20 -7 -41.5t-16 -49.5l-357 -1021l-13 -452
q-1 -23 -5.5 -36.5t-18.5 -20.5t-41.5 -9t-73.5 -2t-73 2t-41 9t-18.5 20.5t-5.5 36.5zM784 1817q-42 0 -67 2t-38.5 8t-18.5 17t-6 30l-12 163q-2 21 2.5 35.5t19.5 22.5t43.5 11.5t76.5 3.5t76.5 -3.5t43.5 -11.5t19 -22.5t3 -35.5l-11 -163q-1 -19 -6 -30t-18.5 -17
t-39 -8t-67.5 -2zM338 1817q-42 0 -67 2t-38.5 8t-18.5 17t-6 30l-12 163q-2 21 2.5 35.5t19.5 22.5t43.5 11.5t76.5 3.5t76.5 -3.5t43.5 -11.5t19 -22.5t3 -35.5l-11 -163q-1 -19 -6 -30t-18.5 -17t-39 -8t-67.5 -2z" />
    <glyph glyph-name="ydieresis" unicode="&#xff;" horiz-adv-x="958" 
d="M24 1129q-6 21 -1.5 35t22.5 22.5t52.5 12t88.5 3.5t85 -3.5t47 -11.5t21.5 -22.5t8.5 -35.5l133 -889h24l105 889q3 21 8.5 35.5t21.5 22.5t47 11.5t85 3.5t88.5 -3.5t52.5 -12t22.5 -22.5t-1.5 -35l-228 -1010l-14 -62l-90 -403q-5 -21 -12 -35.5t-20.5 -22.5
t-37 -11.5t-61.5 -3.5q-68 0 -88.5 16t-13.5 57l70 346h-43q-30 0 -49.5 2t-32.5 8.5t-20 17.5t-12 29zM694 1407q-42 0 -67 2t-38.5 8t-18.5 17t-6 30l-12 171q-2 21 2.5 35.5t19.5 22.5t43.5 11.5t76.5 3.5t76.5 -3.5t43.5 -11.5t19 -22.5t3 -35.5l-11 -171q-1 -19 -6 -30
t-18.5 -17t-39 -8t-67.5 -2zM264 1407q-42 0 -67 2t-38.5 8t-18.5 17t-6 30l-12 171q-2 21 2.5 35.5t19.5 22.5t43.5 11.5t76.5 3.5t76.5 -3.5t43.5 -11.5t19 -22.5t3 -35.5l-11 -171q-1 -19 -6 -30t-18.5 -17t-39 -8t-67.5 -2z" />
    <glyph glyph-name="kcommaaccent" unicode="&#x137;" horiz-adv-x="1005" 
d="M131 1651q0 21 4.5 35.5t21.5 22.5t49.5 11.5t86.5 3.5t86.5 -3.5t49.5 -11.5t21.5 -22.5t4.5 -35.5l-31 -1594q0 -19 -5 -30t-19 -17t-39.5 -8t-67.5 -2t-67.5 2t-39 8t-18.5 17t-5 30zM499 542l150 595q5 21 14 33.5t27.5 19.5t51 9.5t83.5 2.5q46 0 74 -1.5t42.5 -6.5
t19 -15t4.5 -26q0 -11 -4 -25.5t-10 -33.5l-184 -552l168 -455q17 -46 17 -55q0 -10 -4.5 -16.5t-17 -10t-36.5 -4.5t-63 -1t-62.5 2t-37.5 8t-21.5 17t-14.5 30zM600 -73q49 0 78.5 -2.5t45 -10t20.5 -20t5 -32.5v-48q0 -22 -4.5 -45t-25.5 -52l-80 -111
q-21 -29 -37.5 -38.5t-45.5 -9.5h-82q-19 0 -32 6.5t-13 18.5q0 15 8.5 30.5t17.5 34.5l41 82h-52q-30 0 -41.5 17t-11.5 38v77q0 19 9 31.5t32.5 20t64 10.5t103.5 3z" />
    <glyph glyph-name="macron" unicode="&#xaf;" 
 />
    <glyph glyph-name="rcommaaccent" unicode="&#x157;" horiz-adv-x="952" 
d="M121 1129q0 21 4.5 35.5t20 22.5t46 11.5t81.5 3.5t81 -3.5t46 -11.5t20.5 -22.5t4.5 -35.5v-59q28 31 57.5 57.5t62 45.5t69 30t78.5 11q48 0 89.5 -14t71 -45t45.5 -80.5t14 -120.5l-7 -230q0 -19 -5.5 -30t-20.5 -17t-42.5 -8t-72.5 -2t-72 2t-41.5 8t-19 17t-5.5 30
l-4 137q-1 39 -7 65t-16.5 41t-24.5 21t-32 6q-29 0 -55.5 -22t-47.5 -49l-25 -866q0 -19 -5 -30t-19 -17t-39.5 -8t-67.5 -2t-67.5 2t-39 8t-18.5 17t-5 30zM336 -73q49 0 78.5 -2.5t45 -10t20.5 -20t5 -32.5v-48q0 -22 -4.5 -45t-25.5 -52l-80 -111q-21 -29 -37.5 -38.5
t-45.5 -9.5h-82q-19 0 -32 6.5t-13 18.5q0 15 8.5 30.5t17.5 34.5l41 82h-52q-30 0 -41.5 17t-11.5 38v77q0 19 9 31.5t32.5 20t64 10.5t103.5 3z" />
    <glyph glyph-name="Rcommaaccent" unicode="&#x156;" horiz-adv-x="1140" 
d="M125 1607q-1 26 5 42t25.5 25t55.5 12.5t96 3.5h25h228q103 0 191.5 -18.5t153.5 -58t101.5 -101t33.5 -148.5l-13 -475q-1 -38 -11.5 -77t-32.5 -74.5t-56.5 -66.5t-84.5 -54l187 -475q14 -36 21.5 -58.5t7.5 -38.5q0 -12 -4 -20.5t-17.5 -14t-38.5 -8t-66 -2.5
q-40 0 -64.5 3.5t-40.5 12.5t-26.5 24.5t-22.5 39.5l-209 490h-110l-14 -502q0 -23 -4.5 -36.5t-19 -20.5t-41.5 -9t-73 -2t-73.5 2t-41.5 9t-18.5 20.5t-5.5 36.5zM539 733q48 0 80 7.5t50.5 24.5t26 45.5t6.5 70.5l-14 515q-1 39 -8 62.5t-25 36.5t-48.5 17.5t-78.5 4.5
h-42l-22 -784h75zM644 -73q49 0 78.5 -2.5t45 -10t20.5 -20t5 -32.5v-48q0 -22 -4.5 -45t-25.5 -52l-80 -111q-21 -29 -37.5 -38.5t-45.5 -9.5h-82q-19 0 -32 6.5t-13 18.5q0 15 8.5 30.5t17.5 34.5l41 82h-52q-30 0 -41.5 17t-11.5 38v77q0 19 9 31.5t32.5 20t64 10.5
t103.5 3z" />
    <glyph glyph-name="acute.cap" horiz-adv-x="655" 
d="M212 1770q-51 0 -74.5 7t-23.5 27q0 17 16.5 43t37.5 63l82 146q11 20 21.5 32t27 19t42.5 9t68 2q38 0 63.5 -1.5t40.5 -5.5t21.5 -11t6.5 -17q0 -16 -13 -35t-32 -43l-144 -178q-14 -18 -24.5 -29t-24 -17t-34.5 -8.5t-57 -2.5z" />
    <glyph glyph-name="aacute" unicode="&#xe1;" horiz-adv-x="1086" 
d="M109 291q-1 56 24 98.5t64.5 74.5t89.5 54.5t99 38.5q63 21 133.5 36t137.5 26l-9 331q-2 55 -27.5 81.5t-80.5 26.5q-26 0 -47 -4t-36.5 -16t-24.5 -33t-10 -54l-7 -227q0 -19 -5.5 -30t-21.5 -17t-45.5 -8t-78.5 -2q-45 0 -73 2t-43 8t-20 17t-6 30l-8 213
q-2 53 18 94.5t54.5 72t79 51.5t93 34.5t96.5 19t88 5.5q86 0 163.5 -19.5t135.5 -56.5t91.5 -90.5t31.5 -122.5l-31 -868q-1 -19 -5.5 -30t-18.5 -17t-39.5 -8t-67.5 -2q-39 0 -62.5 2t-36 8t-17 17t-4.5 30l-1 35q-27 -20 -59 -38.5t-68 -33t-76.5 -23.5t-84.5 -9
q-70 0 -123 19.5t-88.5 53t-53.5 79t-19 97.5zM383 267q0 -30 9 -51.5t24 -35t35.5 -20t44.5 -6.5q58 0 100 19t72 44l-7 257q-54 -9 -95 -20.5t-73 -25.5q-50 -23 -80 -50.5t-30 -71.5v-39zM506 1382q-51 0 -73.5 8.5t-22.5 28.5q0 19 14.5 42t34.5 61l107 200q10 20 21 32
t27.5 19t42.5 9t68 2q41 0 67 -2.5t41 -7t20.5 -12t5.5 -17.5q0 -16 -12 -35.5t-30 -42.5l-172 -226q-14 -18 -24 -29.5t-23.5 -18t-34.5 -9t-57 -2.5z" />
    <glyph glyph-name="eacute" unicode="&#xe9;" horiz-adv-x="1062" 
d="M111 910q-3 80 33.5 137.5t98 94.5t141 54.5t162.5 17.5q79 0 155 -17.5t135 -54.5t93.5 -94.5t31.5 -137.5l-15 -369q-1 -19 -6.5 -30t-20.5 -17t-42.5 -8t-72.5 -2h-390l-6 -216q-1 -38 7.5 -64t25.5 -42t42 -23t57 -7q64 0 94 28t30 99v31q0 19 5 31.5t19.5 20
t41.5 10.5t72 3q44 0 71 -3t41.5 -10.5t19 -19.5t4.5 -31v-44q0 -79 -34 -129t-89.5 -79t-127 -40t-146.5 -11q-76 0 -148 14.5t-128.5 48t-92 88.5t-38.5 137zM664 634l-10 293q-1 42 -9.5 68t-23 40t-34 18.5t-41.5 4.5q-25 0 -46 -4.5t-36.5 -18.5t-25 -40t-10.5 -68
l-9 -293h245zM505 1382q-51 0 -73.5 8.5t-22.5 28.5q0 19 14.5 42t34.5 61l107 200q10 20 21 32t27.5 19t42.5 9t68 2q41 0 67 -2.5t41 -7t20.5 -12t5.5 -17.5q0 -16 -12 -35.5t-30 -42.5l-172 -226q-14 -18 -24 -29.5t-23.5 -18t-34.5 -9t-57 -2.5z" />
    <glyph glyph-name="iacute" unicode="&#xed;" horiz-adv-x="566" 
d="M121 1129q0 21 4.5 35.5t21.5 22.5t49.5 11.5t86.5 3.5t86.5 -3.5t49.5 -11.5t21.5 -22.5t4.5 -35.5l-31 -1072q0 -19 -5 -30t-19 -17t-39.5 -8t-67.5 -2t-67.5 2t-39 8t-18.5 17t-5 30zM252 1382q-51 0 -73.5 8.5t-22.5 28.5q0 19 14.5 42t34.5 61l107 200q10 20 21 32
t27.5 19t42.5 9t68 2q41 0 67 -2.5t41 -7t20.5 -12t5.5 -17.5q0 -16 -12 -35.5t-30 -42.5l-172 -226q-14 -18 -24 -29.5t-23.5 -18t-34.5 -9t-57 -2.5z" />
    <glyph glyph-name="oacute" unicode="&#xf3;" horiz-adv-x="1081" 
d="M111 910q-3 80 32.5 137.5t96 94.5t139.5 54.5t162 17.5t162 -17.5t139.5 -54.5t96 -94.5t32.5 -137.5l-23 -633q-3 -82 -38 -137.5t-91 -89t-128 -48t-149 -14.5q-78 0 -150 14.5t-128.5 48t-91.5 88.5t-38 137zM408 268q-1 -38 6.5 -64t24 -42t42 -23t60.5 -7
q70 0 102.5 30t30.5 107l-20 658q-1 42 -9.5 68t-23.5 40t-35 18.5t-45 4.5t-45 -4.5t-35 -18.5t-23.5 -40t-9.5 -68zM510 1382q-51 0 -73.5 8.5t-22.5 28.5q0 19 14.5 42t34.5 61l107 200q10 20 21 32t27.5 19t42.5 9t68 2q41 0 67 -2.5t41 -7t20.5 -12t5.5 -17.5
q0 -16 -12 -35.5t-30 -42.5l-172 -226q-14 -18 -24 -29.5t-23.5 -18t-34.5 -9t-57 -2.5z" />
    <glyph glyph-name="uacute" unicode="&#xfa;" horiz-adv-x="1086" 
d="M101 1129q0 21 4.5 35.5t21.5 22.5t49.5 11.5t86.5 3.5t86.5 -3.5t49.5 -11.5t21.5 -22.5t4.5 -35.5l-23 -816q-1 -44 10 -72t29.5 -44.5t41.5 -23t47 -6.5q43 0 77 18.5t60 41.5l-26 902q0 21 4.5 35.5t21.5 22.5t49.5 11.5t86.5 3.5t86.5 -3.5t49.5 -11.5t21.5 -22.5
t4.5 -35.5l-31 -1072q0 -19 -5 -30t-19 -17t-39.5 -8t-67.5 -2q-39 0 -62.5 2t-36 8t-17 17t-4.5 30l-2 47q-22 -20 -50 -41t-63.5 -37.5t-78 -27t-93.5 -10.5q-124 0 -195 71t-75 209zM502 1382q-51 0 -73.5 8.5t-22.5 28.5q0 19 14.5 42t34.5 61l107 200q10 20 21 32
t27.5 19t42.5 9t68 2q41 0 67 -2.5t41 -7t20.5 -12t5.5 -17.5q0 -16 -12 -35.5t-30 -42.5l-172 -226q-14 -18 -24 -29.5t-23.5 -18t-34.5 -9t-57 -2.5z" />
    <glyph glyph-name="yacute" unicode="&#xfd;" horiz-adv-x="958" 
d="M24 1129q-6 21 -1.5 35t22.5 22.5t52.5 12t88.5 3.5t85 -3.5t47 -11.5t21.5 -22.5t8.5 -35.5l133 -889h24l105 889q3 21 8.5 35.5t21.5 22.5t47 11.5t85 3.5t88.5 -3.5t52.5 -12t22.5 -22.5t-1.5 -35l-228 -1010l-14 -62l-90 -403q-5 -21 -12 -35.5t-20.5 -22.5
t-37 -11.5t-61.5 -3.5q-68 0 -88.5 16t-13.5 57l70 346h-43q-30 0 -49.5 2t-32.5 8.5t-20 17.5t-12 29zM448 1382q-51 0 -73.5 8.5t-22.5 28.5q0 19 14.5 42t34.5 61l107 200q10 20 21 32t27.5 19t42.5 9t68 2q41 0 67 -2.5t41 -7t20.5 -12t5.5 -17.5q0 -16 -12 -35.5
t-30 -42.5l-172 -226q-14 -18 -24 -29.5t-23.5 -18t-34.5 -9t-57 -2.5z" />
    <glyph glyph-name="Aacute" unicode="&#xc1;" horiz-adv-x="1079" 
d="M288 1605q4 28 13.5 46t35 28t73.5 13.5t130 3.5q81 0 129 -3.5t73.5 -13.5t34.5 -28t14 -46l265 -1527q4 -27 -0.5 -42.5t-20 -23.5t-42.5 -10t-66 -2q-48 0 -76.5 2t-44.5 10t-23.5 23.5t-11.5 42.5l-41 239h-381l-41 -239q-5 -27 -12 -42.5t-23 -23.5t-44.5 -10
t-76.5 -2q-39 0 -65.5 2t-42.5 10t-21 23.5t0 42.5zM697 507l-153 887h-9l-153 -887h315zM521 1770q-51 0 -74.5 7t-23.5 27q0 17 16.5 43t37.5 63l82 146q11 20 21.5 32t27 19t42.5 9t68 2q38 0 63.5 -1.5t40.5 -5.5t21.5 -11t6.5 -17q0 -16 -13 -35t-32 -43l-144 -178
q-14 -18 -24.5 -29t-24 -17t-34.5 -8.5t-57 -2.5z" />
    <glyph glyph-name="Eacute" unicode="&#xc9;" horiz-adv-x="901" 
d="M125 1607q-1 26 5 42t25.5 25t55.5 12.5t96 3.5h32.5t29.5 -1h401q26 0 40.5 -4t21 -15t8 -30t1.5 -49t-1.5 -49.5t-8 -30t-21 -14.5t-40.5 -4h-284l-18 -614h241q26 0 40.5 -4t21 -14.5t8 -29t1.5 -47.5t-1.5 -47.5t-8 -29t-21 -14.5t-40.5 -4h-246l-15 -503h285
q26 0 40.5 -4.5t21 -15t8 -28.5t1.5 -45t-1.5 -45t-8 -28.5t-21 -15t-40.5 -4.5h-400h-26q-46 0 -73.5 2t-41.5 9t-18.5 20.5t-5.5 36.5zM463 1770q-51 0 -74.5 7t-23.5 27q0 17 16.5 43t37.5 63l82 146q11 20 21.5 32t27 19t42.5 9t68 2q38 0 63.5 -1.5t40.5 -5.5t21.5 -11
t6.5 -17q0 -16 -13 -35t-32 -43l-144 -178q-14 -18 -24.5 -29t-24 -17t-34.5 -8.5t-57 -2.5z" />
    <glyph glyph-name="Iacute" unicode="&#xcd;" horiz-adv-x="614" 
d="M125 1607q-1 26 5 42t25.5 25t55.5 12.5t96 3.5q59 0 95 -3.5t55.5 -12.5t26 -25t5.5 -42l-44 -1539q0 -23 -4.5 -36.5t-19 -20.5t-41.5 -9t-73 -2t-73.5 2t-41.5 9t-18.5 20.5t-5.5 36.5zM288 1770q-51 0 -74.5 7t-23.5 27q0 17 16.5 43t37.5 63l82 146q11 20 21.5 32
t27 19t42.5 9t68 2q38 0 63.5 -1.5t40.5 -5.5t21.5 -11t6.5 -17q0 -16 -13 -35t-32 -43l-144 -178q-14 -18 -24.5 -29t-24 -17t-34.5 -8.5t-57 -2.5z" />
    <glyph glyph-name="Nacute" unicode="&#x143;" horiz-adv-x="1234" 
d="M125 1607q-1 26 4 42t21.5 25t48 12.5t84.5 3.5q39 0 66.5 -2t44.5 -7.5t26.5 -14.5t12.5 -24l373 -1015h8l-47 980q-1 26 4.5 42t23 25t50 12.5t85.5 3.5q59 0 95 -3.5t54.5 -12.5t24.5 -25t5 -42l-44 -1509q-1 -23 -5 -41t-16 -31t-35.5 -19.5t-62.5 -6.5q-38 0 -62 5
t-35 25l-2 -2l-405 1035h-11l-8 -995q-1 -23 -5 -36.5t-16 -20.5t-35.5 -9t-62.5 -2q-45 0 -71.5 2t-40.5 9t-18.5 20.5t-5.5 36.5zM598 1770q-51 0 -74.5 7t-23.5 27q0 17 16.5 43t37.5 63l82 146q11 20 21.5 32t27 19t42.5 9t68 2q38 0 63.5 -1.5t40.5 -5.5t21.5 -11
t6.5 -17q0 -16 -13 -35t-32 -43l-144 -178q-14 -18 -24.5 -29t-24 -17t-34.5 -8.5t-57 -2.5z" />
    <glyph glyph-name="Oacute" unicode="&#xd3;" horiz-adv-x="1208" 
d="M120 1365q-2 75 25 137t85.5 106t151 68.5t222.5 24.5q129 0 221.5 -24.5t151.5 -68.5t86 -106t25 -137l-29 -1060q-2 -65 -28 -123t-80.5 -101t-140 -68t-206.5 -25t-207 25t-140.5 68t-80.5 101t-28 123zM443 296q-1 -42 7.5 -70t28 -44.5t50.5 -23.5t75 -7t75 7
t50.5 23.5t28 44.5t7.5 70l-29 1100q-1 44 -10 70t-25.5 40t-40.5 18.5t-56 4.5t-56 -4.5t-40.5 -18.5t-25.5 -40t-10 -70zM585 1770q-51 0 -74.5 7t-23.5 27q0 17 16.5 43t37.5 63l82 146q11 20 21.5 32t27 19t42.5 9t68 2q38 0 63.5 -1.5t40.5 -5.5t21.5 -11t6.5 -17
q0 -16 -13 -35t-32 -43l-144 -178q-14 -18 -24.5 -29t-24 -17t-34.5 -8.5t-57 -2.5z" />
    <glyph glyph-name="Racute" unicode="&#x154;" horiz-adv-x="1140" 
d="M125 1607q-1 26 5 42t25.5 25t55.5 12.5t96 3.5h25h228q103 0 191.5 -18.5t153.5 -58t101.5 -101t33.5 -148.5l-13 -475q-1 -38 -11.5 -77t-32.5 -74.5t-56.5 -66.5t-84.5 -54l187 -475q14 -36 21.5 -58.5t7.5 -38.5q0 -12 -4 -20.5t-17.5 -14t-38.5 -8t-66 -2.5
q-40 0 -64.5 3.5t-40.5 12.5t-26.5 24.5t-22.5 39.5l-209 490h-110l-14 -502q0 -23 -4.5 -36.5t-19 -20.5t-41.5 -9t-73 -2t-73.5 2t-41.5 9t-18.5 20.5t-5.5 36.5zM539 733q48 0 80 7.5t50.5 24.5t26 45.5t6.5 70.5l-14 515q-1 39 -8 62.5t-25 36.5t-48.5 17.5t-78.5 4.5
h-42l-22 -784h75zM572 1770q-51 0 -74.5 7t-23.5 27q0 17 16.5 43t37.5 63l82 146q11 20 21.5 32t27 19t42.5 9t68 2q38 0 63.5 -1.5t40.5 -5.5t21.5 -11t6.5 -17q0 -16 -13 -35t-32 -43l-144 -178q-14 -18 -24.5 -29t-24 -17t-34.5 -8.5t-57 -2.5z" />
    <glyph glyph-name="Uacute" unicode="&#xda;" horiz-adv-x="1201" 
d="M110 1607q-1 26 5 42t25.5 25t56 12.5t95.5 3.5t95 -3.5t55.5 -12.5t26 -25t5.5 -42l-34 -1311q-1 -42 7.5 -70t28 -44.5t50.5 -23.5t75 -7t75 7t50.5 23.5t28 44.5t7.5 70l-35 1311q-1 26 5 42t25.5 25t55.5 12.5t96 3.5q59 0 95 -3.5t55.5 -12.5t26 -25t5.5 -42
l-35 -1302q-2 -65 -28 -123t-80.5 -101t-140 -68t-206.5 -25t-207 25t-140.5 68t-80.5 101t-27 123zM581 1770q-51 0 -74.5 7t-23.5 27q0 17 16.5 43t37.5 63l82 146q11 20 21.5 32t27 19t42.5 9t68 2q38 0 63.5 -1.5t40.5 -5.5t21.5 -11t6.5 -17q0 -16 -13 -35t-32 -43
l-144 -178q-14 -18 -24.5 -29t-24 -17t-34.5 -8.5t-57 -2.5z" />
    <glyph glyph-name="Yacute" unicode="&#xdd;" horiz-adv-x="1124" 
d="M411 527l-360 1014q-9 27 -15 49t-6 42q0 19 8 30.5t29 17.5t57 8t91 2t88.5 -2t53 -10.5t28.5 -26t15 -49.5l151 -782h22l150 782q6 32 15 50t28 26.5t52.5 10t89.5 1.5q55 0 91 -2t57 -8t29.5 -17.5t8.5 -30.5q0 -20 -7 -41.5t-16 -49.5l-357 -1021l-13 -452
q-1 -23 -5.5 -36.5t-18.5 -20.5t-41.5 -9t-73.5 -2t-73 2t-41 9t-18.5 20.5t-5.5 36.5zM542 1770q-51 0 -74.5 7t-23.5 27q0 17 16.5 43t37.5 63l82 146q11 20 21.5 32t27 19t42.5 9t68 2q38 0 63.5 -1.5t40.5 -5.5t21.5 -11t6.5 -17q0 -16 -13 -35t-32 -43l-144 -178
q-14 -18 -24.5 -29t-24 -17t-34.5 -8.5t-57 -2.5z" />
    <glyph glyph-name="nacute" unicode="&#x144;" horiz-adv-x="1079" 
d="M121 1129q0 21 4.5 35.5t20 22.5t46 11.5t81.5 3.5t81.5 -3.5t46 -11.5t20 -22.5t4.5 -35.5l-2 -61q28 32 57.5 58.5t63 46t71.5 30.5t83 11q61 0 113.5 -22t90 -64t58 -102t18.5 -136l-24 -833q0 -19 -5 -30t-19 -17t-39.5 -8t-67.5 -2t-67.5 2t-39 8t-18.5 17t-5 30
l-23 804q-1 39 -10 65t-24 41t-35.5 21t-44.5 6q-38 0 -67 -21t-50 -50l-25 -866q0 -19 -5 -30t-19 -17t-39.5 -8t-67.5 -2t-67.5 2t-39 8t-18.5 17t-5 30zM518 1382q-51 0 -73.5 8.5t-22.5 28.5q0 19 14.5 42t34.5 61l107 200q10 20 21 32t27.5 19t42.5 9t68 2
q41 0 67 -2.5t41 -7t20.5 -12t5.5 -17.5q0 -16 -12 -35.5t-30 -42.5l-172 -226q-14 -18 -24 -29.5t-23.5 -18t-34.5 -9t-57 -2.5z" />
    <glyph glyph-name="Kcommaaccent" unicode="&#x136;" horiz-adv-x="1100" 
d="M528 719l183 881q7 29 16.5 46.5t29 27.5t52 13t85.5 3q87 0 129.5 -10.5t42.5 -47.5q0 -13 -1 -23t-3.5 -20t-5.5 -20.5t-7 -23.5l-245 -826l227 -577q14 -36 21.5 -58.5t7.5 -38.5q0 -12 -4 -20.5t-17.5 -14t-38.5 -8t-66 -2.5q-35 0 -56.5 3.5t-35 12.5t-23 24.5
t-19.5 39.5zM125 1607q-1 26 5 42t25.5 25t55.5 12.5t96 3.5q59 0 95 -3.5t55.5 -12.5t26 -25t5.5 -42l-44 -1539q0 -23 -4.5 -36.5t-19 -20.5t-41.5 -9t-73 -2t-73.5 2t-41.5 9t-18.5 20.5t-5.5 36.5zM648 -73q49 0 78.5 -2.5t45 -10t20.5 -20t5 -32.5v-48q0 -22 -4.5 -45
t-25.5 -52l-80 -111q-21 -29 -37.5 -38.5t-45.5 -9.5h-82q-19 0 -32 6.5t-13 18.5q0 15 8.5 30.5t17.5 34.5l41 82h-52q-30 0 -41.5 17t-11.5 38v77q0 19 9 31.5t32.5 20t64 10.5t103.5 3z" />
    <glyph glyph-name="P" unicode="P" horiz-adv-x="1126" 
d="M125 1607q-1 26 5 42t25.5 25t55.5 12.5t96 3.5h25h228q103 0 191.5 -18.5t153.5 -58t101.5 -101t33.5 -148.5l-13 -475q-2 -57 -24.5 -114t-74 -102.5t-136 -74t-209.5 -28.5h-124l-14 -502q0 -23 -4.5 -36.5t-19 -20.5t-41.5 -9t-73 -2t-73.5 2t-41.5 9t-18.5 20.5
t-5.5 36.5zM539 733q48 0 80 7.5t50.5 24.5t26 45.5t6.5 70.5l-14 515q-1 39 -8 62.5t-25 36.5t-48.5 17.5t-78.5 4.5h-42l-22 -784h75z" />
    <glyph glyph-name="numbersign" unicode="#" horiz-adv-x="1319" 
d="M243 341h-111q-26 0 -40.5 4.5t-21.5 15t-8.5 27t-1.5 41.5q0 28 1.5 46.5t8.5 30t21.5 16.5t40.5 5h142l52 322h-112q-26 0 -40.5 4.5t-21.5 15t-8.5 27t-1.5 41.5q0 28 1.5 46.5t8.5 30t21.5 16.5t40.5 5h142l49 298q7 20 14 33.5t21 22t40.5 12t72.5 3.5
q43 0 69.5 -3.5t40 -11.5t16 -21.5t-1.5 -33.5l-65 -299h218l49 298q3 21 9.5 35t22 22t43 11t73.5 3q43 0 69.5 -3.5t40 -11.5t16 -21.5t-1.5 -33.5l-65 -299h101q26 0 40.5 -5t21.5 -16.5t8.5 -30.5t1.5 -47q0 -25 -1.5 -41.5t-8.5 -26.5t-21.5 -14.5t-40.5 -4.5h-141
l-70 -322h103q26 0 40.5 -5t21.5 -16.5t8.5 -30.5t1.5 -47q0 -25 -1.5 -41.5t-8.5 -26.5t-21.5 -14.5t-40.5 -4.5h-144l-63 -293q-6 -17 -15 -27t-22.5 -15t-32 -6t-45.5 -1q-33 0 -51.5 2.5t-27.5 8.5t-9.5 17.5t2.5 29.5l46 284h-256l-63 -293q-6 -17 -15 -27t-22.5 -15
t-32 -6t-45.5 -1q-33 0 -51.5 2.5t-27.5 8.5t-9.5 17.5t2.5 29.5zM748 527l52 322h-228l-70 -322h246z" />
    <glyph glyph-name="tilde" unicode="&#x2dc;" horiz-adv-x="1039" 
d="M606 1382q-22 0 -37.5 1.5t-29 7t-27 16t-31.5 28.5l-59 60q-17 17 -25 24t-15 7q-11 0 -18 -9.5t-20 -31.5l-33 -57q-9 -16 -17 -25.5t-20 -14t-30.5 -5.5t-49.5 -1q-45 0 -62.5 7t-17.5 26q0 14 6.5 29.5t19.5 41.5l100 199q10 20 20.5 31.5t24 17.5t31.5 7.5t43 1.5
h46q23 0 38.5 -2.5t26.5 -8t20 -13.5t20 -20l82 -87q11 -11 21 -21.5t19 -10.5q10 0 18.5 14t19.5 37l32 67q7 15 13.5 24t18 13.5t30.5 6t51 1.5q60 0 85 -4.5t25 -26.5q0 -15 -6.5 -34t-21.5 -45l-105 -185q-11 -20 -21.5 -32.5t-23.5 -20t-29 -10.5t-39 -3h-73v0z" />
    <glyph glyph-name="percent" unicode="%" horiz-adv-x="1698" 
d="M1080 1628q7 20 14.5 33.5t22.5 22t42 12t73 3.5q43 0 69.5 -4t40 -12t15.5 -21.5t-5 -32.5l-802 -1581q-6 -17 -15 -27t-22.5 -15t-32 -6t-45.5 -1q-66 1 -84 12.5t-2 45.5zM424 940q-61 0 -118.5 9.5t-103 32.5t-74 62t-32.5 98l-16 321q-4 64 23 108.5t75.5 73
t112.5 41.5t133 13t132 -13t111 -41.5t75.5 -73t23.5 -108.5l-14 -321q-3 -59 -32 -98t-74.5 -62t-103 -32.5t-118.5 -9.5zM424 1070q49 0 80.5 25t28.5 88l-9 280q-3 58 -27.5 77t-72.5 19q-50 0 -74 -19t-27 -77l-9 -280q-2 -32 6 -53.5t22.5 -35t35.5 -19t46 -5.5z
M930 523q-4 64 23 108.5t75.5 73t112.5 41.5t133 13t132 -13t111 -41.5t75.5 -73t23.5 -108.5l-14 -321q-3 -59 -32 -98t-74.5 -62t-103 -32.5t-118.5 -9.5t-118.5 9.5t-103 32.5t-74 62t-32.5 98zM1164 243q-2 -32 6 -53.5t22.5 -35t35.5 -19t46 -5.5q24 0 45 5.5t35.5 19
t22 35t6.5 53.5l-9 280q-3 58 -27.5 77t-72.5 19q-50 0 -74 -19t-27 -77z" />
    <glyph glyph-name="itilde" unicode="&#x129;" horiz-adv-x="566" 
d="M121 1129q0 21 4.5 35.5t21.5 22.5t49.5 11.5t86.5 3.5t86.5 -3.5t49.5 -11.5t21.5 -22.5t4.5 -35.5l-31 -1072q0 -19 -5 -30t-19 -17t-39.5 -8t-67.5 -2t-67.5 2t-39 8t-18.5 17t-5 30zM380 1382q-22 0 -37.5 1.5t-29 7t-27 16t-31.5 28.5l-59 60q-17 17 -25 24t-15 7
q-11 0 -18 -9.5t-20 -31.5l-33 -57q-9 -16 -17 -25.5t-20 -14t-30.5 -5.5t-49.5 -1q-45 0 -62.5 7t-17.5 26q0 14 6.5 29.5t19.5 41.5l100 199q10 20 20.5 31.5t24 17.5t31.5 7.5t43 1.5h46q23 0 38.5 -2.5t26.5 -8t20 -13.5t20 -20l82 -87q11 -11 21 -21.5t19 -10.5
q10 0 18.5 14t19.5 37l32 67q7 15 13.5 24t18 13.5t30.5 6t51 1.5q60 0 85 -4.5t25 -26.5q0 -15 -6.5 -34t-21.5 -45l-105 -185q-11 -20 -21.5 -32.5t-23.5 -20t-29 -10.5t-39 -3h-73v0z" />
    <glyph glyph-name="icircumflex" unicode="&#xee;" horiz-adv-x="566" 
d="M121 1129q0 21 4.5 35.5t21.5 22.5t49.5 11.5t86.5 3.5t86.5 -3.5t49.5 -11.5t21.5 -22.5t4.5 -35.5l-31 -1072q0 -19 -5 -30t-19 -17t-39.5 -8t-67.5 -2t-67.5 2t-39 8t-18.5 17t-5 30z" />
    <glyph glyph-name="ntilde" unicode="&#xf1;" horiz-adv-x="1079" 
d="M121 1129q0 21 4.5 35.5t20 22.5t46 11.5t81.5 3.5t81.5 -3.5t46 -11.5t20 -22.5t4.5 -35.5l-2 -61q28 32 57.5 58.5t63 46t71.5 30.5t83 11q61 0 113.5 -22t90 -64t58 -102t18.5 -136l-24 -833q0 -19 -5 -30t-19 -17t-39.5 -8t-67.5 -2t-67.5 2t-39 8t-18.5 17t-5 30
l-23 804q-1 39 -10 65t-24 41t-35.5 21t-44.5 6q-38 0 -67 -21t-50 -50l-25 -866q0 -19 -5 -30t-19 -17t-39.5 -8t-67.5 -2t-67.5 2t-39 8t-18.5 17t-5 30zM645 1382q-22 0 -37.5 1.5t-29 7t-27 16t-31.5 28.5l-59 60q-17 17 -25 24t-15 7q-11 0 -18 -9.5t-20 -31.5l-33 -57
q-9 -16 -17 -25.5t-20 -14t-30.5 -5.5t-49.5 -1q-45 0 -62.5 7t-17.5 26q0 14 6.5 29.5t19.5 41.5l100 199q10 20 20.5 31.5t24 17.5t31.5 7.5t43 1.5h46q23 0 38.5 -2.5t26.5 -8t20 -13.5t20 -20l82 -87q11 -11 21 -21.5t19 -10.5q10 0 18.5 14t19.5 37l32 67q7 15 13.5 24
t18 13.5t30.5 6t51 1.5q60 0 85 -4.5t25 -26.5q0 -15 -6.5 -34t-21.5 -45l-105 -185q-11 -20 -21.5 -32.5t-23.5 -20t-29 -10.5t-39 -3h-73v0z" />
    <glyph glyph-name="tilde.cap" horiz-adv-x="1013" 
d="M590 1781q-22 0 -37 1.5t-28 7t-26.5 16t-31.5 28.5l-57 56q-17 17 -24 20.5t-13 3.5q-11 0 -18 -9.5t-20 -33.5l-25 -48q-8 -15 -15.5 -23.5t-19.5 -12t-31 -4.5t-50 -1q-45 0 -62.5 7t-17.5 26q0 14 6.5 29.5t17.5 38.5l78 177q9 21 21 32.5t26.5 17.5t32.5 7t39 1h58
q23 0 38.5 -2.5t26.5 -8t20.5 -14t20.5 -19.5l64 -67q19 -19 32 -29.5t24 -10.5q10 0 17.5 9.5t17.5 35.5l22 61q6 16 12.5 25.5t18 13.5t31 5t51.5 1q60 0 85 -4.5t25 -26.5q0 -15 -7 -33.5t-21 -45.5l-85 -168q-9 -18 -18.5 -29.5t-22 -18t-29 -9t-39.5 -2.5h-87v0z" />
    <glyph glyph-name="Atilde" unicode="&#xc3;" horiz-adv-x="1079" 
d="M288 1605q4 28 13.5 46t35 28t73.5 13.5t130 3.5q81 0 129 -3.5t73.5 -13.5t34.5 -28t14 -46l265 -1527q4 -27 -0.5 -42.5t-20 -23.5t-42.5 -10t-66 -2q-48 0 -76.5 2t-44.5 10t-23.5 23.5t-11.5 42.5l-41 239h-381l-41 -239q-5 -27 -12 -42.5t-23 -23.5t-44.5 -10
t-76.5 -2q-39 0 -65.5 2t-42.5 10t-21 23.5t0 42.5zM697 507l-153 887h-9l-153 -887h315zM638 1781q-22 0 -37 1.5t-28 7t-26.5 16t-31.5 28.5l-57 56q-17 17 -24 20.5t-13 3.5q-11 0 -18 -9.5t-20 -33.5l-25 -48q-8 -15 -15.5 -23.5t-19.5 -12t-31 -4.5t-50 -1
q-45 0 -62.5 7t-17.5 26q0 14 6.5 29.5t17.5 38.5l78 177q9 21 21 32.5t26.5 17.5t32.5 7t39 1h58q23 0 38.5 -2.5t26.5 -8t20.5 -14t20.5 -19.5l64 -67q19 -19 32 -29.5t24 -10.5q10 0 17.5 9.5t17.5 35.5l22 61q6 16 12.5 25.5t18 13.5t31 5t51.5 1q60 0 85 -4.5t25 -26.5
q0 -15 -7 -33.5t-21 -45.5l-85 -168q-9 -18 -18.5 -29.5t-22 -18t-29 -9t-39.5 -2.5h-87v0z" />
    <glyph glyph-name="onesuperior" unicode="&#xb9;" horiz-adv-x="614" 
d="M233 1382l-115 -114q-10 -10 -19.5 -15t-15.5 -5q-8 0 -15.5 6t-7.5 31v156q0 28 6.5 42.5t20.5 29.5l138 146l3 3q6 5 14.5 9t24 7t39 5t59.5 2q42 0 67.5 -3t39 -10t17.5 -18t4 -26l-26 -916q-1 -28 -23.5 -34.5t-78.5 -6.5q-38 0 -61 1t-36 5.5t-18 12.5t-5 22z" />
    <glyph glyph-name="circumflex.cap" horiz-adv-x="957" 
d="M207 1770q-55 0 -74 8t-19 28q0 16 13 34.5t37 53.5l116 162q15 21 28.5 33.5t28 18.5t31 8t37.5 2h155q17 0 31 -2t27.5 -8t27 -18.5t28.5 -33.5l119 -162q25 -35 37.5 -53.5t12.5 -34.5q0 -10 -3 -16.5t-13 -11t-28 -6.5t-49 -2q-26 0 -43.5 2.5t-31.5 9.5t-28.5 19
t-34.5 31l-92 86q-13 13 -22.5 19.5t-18.5 6.5t-19 -7t-24 -20l-89 -85q-21 -20 -34.5 -32t-27.5 -19t-32 -9t-46 -2z" />
    <glyph glyph-name="Acircumflex" unicode="&#xc2;" horiz-adv-x="1079" 
d="M288 1605q4 28 13.5 46t35 28t73.5 13.5t130 3.5q81 0 129 -3.5t73.5 -13.5t34.5 -28t14 -46l265 -1527q4 -27 -0.5 -42.5t-20 -23.5t-42.5 -10t-66 -2q-48 0 -76.5 2t-44.5 10t-23.5 23.5t-11.5 42.5l-41 239h-381l-41 -239q-5 -27 -12 -42.5t-23 -23.5t-44.5 -10
t-76.5 -2q-39 0 -65.5 2t-42.5 10t-21 23.5t0 42.5zM697 507l-153 887h-9l-153 -887h315zM269 1770q-55 0 -74 8t-19 28q0 16 13 34.5t37 53.5l116 162q15 21 28.5 33.5t28 18.5t31 8t37.5 2h155q17 0 31 -2t27.5 -8t27 -18.5t28.5 -33.5l119 -162q25 -35 37.5 -53.5
t12.5 -34.5q0 -10 -3 -16.5t-13 -11t-28 -6.5t-49 -2q-26 0 -43.5 2.5t-31.5 9.5t-28.5 19t-34.5 31l-92 86q-13 13 -22.5 19.5t-18.5 6.5t-19 -7t-24 -20l-89 -85q-21 -20 -34.5 -32t-27.5 -19t-32 -9t-46 -2z" />
    <glyph glyph-name="caron.cap" horiz-adv-x="982" 
d="M481 1784q-35 0 -57.5 1t-38 5.5t-28 13.5t-27.5 26l-165 175q-8 8 -16.5 18t-16.5 20t-13 20t-5 18q0 10 4.5 17t17.5 11.5t37 6.5t62 2q42 0 67 -1.5t41.5 -7t27.5 -16t24 -29.5l55 -79q14 -20 22.5 -29t18.5 -9q9 0 18 9t21 25l63 83q13 18 24.5 28.5t27.5 16.5
t39.5 7.5t62.5 1.5q38 0 62 -2t37 -6.5t17.5 -11.5t4.5 -17q0 -8 -5 -17.5t-12.5 -20t-16.5 -20.5t-17 -18l-167 -175q-16 -17 -28.5 -26t-28 -13.5t-38 -5.5t-58.5 -1h-16z" />
    <glyph glyph-name="Otilde" unicode="&#xd5;" horiz-adv-x="1208" 
d="M120 1365q-2 75 25 137t85.5 106t151 68.5t222.5 24.5q129 0 221.5 -24.5t151.5 -68.5t86 -106t25 -137l-29 -1060q-2 -65 -28 -123t-80.5 -101t-140 -68t-206.5 -25t-207 25t-140.5 68t-80.5 101t-28 123zM443 296q-1 -42 7.5 -70t28 -44.5t50.5 -23.5t75 -7t75 7
t50.5 23.5t28 44.5t7.5 70l-29 1100q-1 44 -10 70t-25.5 40t-40.5 18.5t-56 4.5t-56 -4.5t-40.5 -18.5t-25.5 -40t-10 -70zM702 1781q-22 0 -37 1.5t-28 7t-26.5 16t-31.5 28.5l-57 56q-17 17 -24 20.5t-13 3.5q-11 0 -18 -9.5t-20 -33.5l-25 -48q-8 -15 -15.5 -23.5
t-19.5 -12t-31 -4.5t-50 -1q-45 0 -62.5 7t-17.5 26q0 14 6.5 29.5t17.5 38.5l78 177q9 21 21 32.5t26.5 17.5t32.5 7t39 1h58q23 0 38.5 -2.5t26.5 -8t20.5 -14t20.5 -19.5l64 -67q19 -19 32 -29.5t24 -10.5q10 0 17.5 9.5t17.5 35.5l22 61q6 16 12.5 25.5t18 13.5t31 5
t51.5 1q60 0 85 -4.5t25 -26.5q0 -15 -7 -33.5t-21 -45.5l-85 -168q-9 -18 -18.5 -29.5t-22 -18t-29 -9t-39.5 -2.5h-87v0z" />
    <glyph glyph-name="Ocircumflex" unicode="&#xd4;" horiz-adv-x="1208" 
d="M120 1365q-2 75 25 137t85.5 106t151 68.5t222.5 24.5q129 0 221.5 -24.5t151.5 -68.5t86 -106t25 -137l-29 -1060q-2 -65 -28 -123t-80.5 -101t-140 -68t-206.5 -25t-207 25t-140.5 68t-80.5 101t-28 123zM443 296q-1 -42 7.5 -70t28 -44.5t50.5 -23.5t75 -7t75 7
t50.5 23.5t28 44.5t7.5 70l-29 1100q-1 44 -10 70t-25.5 40t-40.5 18.5t-56 4.5t-56 -4.5t-40.5 -18.5t-25.5 -40t-10 -70zM333 1770q-55 0 -74 8t-19 28q0 16 13 34.5t37 53.5l116 162q15 21 28.5 33.5t28 18.5t31 8t37.5 2h155q17 0 31 -2t27.5 -8t27 -18.5t28.5 -33.5
l119 -162q25 -35 37.5 -53.5t12.5 -34.5q0 -10 -3 -16.5t-13 -11t-28 -6.5t-49 -2q-26 0 -43.5 2.5t-31.5 9.5t-28.5 19t-34.5 31l-92 86q-13 13 -22.5 19.5t-18.5 6.5t-19 -7t-24 -20l-89 -85q-21 -20 -34.5 -32t-27.5 -19t-32 -9t-46 -2z" />
    <glyph glyph-name="Rcaron" unicode="&#x158;" horiz-adv-x="1140" 
d="M125 1607q-1 26 5 42t25.5 25t55.5 12.5t96 3.5h25h228q103 0 191.5 -18.5t153.5 -58t101.5 -101t33.5 -148.5l-13 -475q-1 -38 -11.5 -77t-32.5 -74.5t-56.5 -66.5t-84.5 -54l187 -475q14 -36 21.5 -58.5t7.5 -38.5q0 -12 -4 -20.5t-17.5 -14t-38.5 -8t-66 -2.5
q-40 0 -64.5 3.5t-40.5 12.5t-26.5 24.5t-22.5 39.5l-209 490h-110l-14 -502q0 -23 -4.5 -36.5t-19 -20.5t-41.5 -9t-73 -2t-73.5 2t-41.5 9t-18.5 20.5t-5.5 36.5zM539 733q48 0 80 7.5t50.5 24.5t26 45.5t6.5 70.5l-14 515q-1 39 -8 62.5t-25 36.5t-48.5 17.5t-78.5 4.5
h-42l-22 -784h75zM582 1784q-35 0 -57.5 1t-38 5.5t-28 13.5t-27.5 26l-165 175q-8 8 -16.5 18t-16.5 20t-13 20t-5 18q0 10 4.5 17t17.5 11.5t37 6.5t62 2q42 0 67 -1.5t41.5 -7t27.5 -16t24 -29.5l55 -79q14 -20 22.5 -29t18.5 -9q9 0 18 9t21 25l63 83q13 18 24.5 28.5
t27.5 16.5t39.5 7.5t62.5 1.5q38 0 62 -2t37 -6.5t17.5 -11.5t4.5 -17q0 -8 -5 -17.5t-12.5 -20t-16.5 -20.5t-17 -18l-167 -175q-16 -17 -28.5 -26t-28 -13.5t-38 -5.5t-58.5 -1h-16z" />
    <glyph glyph-name="Ucircumflex" unicode="&#xdb;" horiz-adv-x="1201" 
d="M110 1607q-1 26 5 42t25.5 25t56 12.5t95.5 3.5t95 -3.5t55.5 -12.5t26 -25t5.5 -42l-34 -1311q-1 -42 7.5 -70t28 -44.5t50.5 -23.5t75 -7t75 7t50.5 23.5t28 44.5t7.5 70l-35 1311q-1 26 5 42t25.5 25t55.5 12.5t96 3.5q59 0 95 -3.5t55.5 -12.5t26 -25t5.5 -42
l-35 -1302q-2 -65 -28 -123t-80.5 -101t-140 -68t-206.5 -25t-207 25t-140.5 68t-80.5 101t-27 123zM329 1770q-55 0 -74 8t-19 28q0 16 13 34.5t37 53.5l116 162q15 21 28.5 33.5t28 18.5t31 8t37.5 2h155q17 0 31 -2t27.5 -8t27 -18.5t28.5 -33.5l119 -162
q25 -35 37.5 -53.5t12.5 -34.5q0 -10 -3 -16.5t-13 -11t-28 -6.5t-49 -2q-26 0 -43.5 2.5t-31.5 9.5t-28.5 19t-34.5 31l-92 86q-13 13 -22.5 19.5t-18.5 6.5t-19 -7t-24 -20l-89 -85q-21 -20 -34.5 -32t-27.5 -19t-32 -9t-46 -2z" />
    <glyph glyph-name="Ecircumflex" unicode="&#xca;" horiz-adv-x="901" 
d="M125 1607q-1 26 5 42t25.5 25t55.5 12.5t96 3.5h32.5t29.5 -1h401q26 0 40.5 -4t21 -15t8 -30t1.5 -49t-1.5 -49.5t-8 -30t-21 -14.5t-40.5 -4h-284l-18 -614h241q26 0 40.5 -4t21 -14.5t8 -29t1.5 -47.5t-1.5 -47.5t-8 -29t-21 -14.5t-40.5 -4h-246l-15 -503h285
q26 0 40.5 -4.5t21 -15t8 -28.5t1.5 -45t-1.5 -45t-8 -28.5t-21 -15t-40.5 -4.5h-400h-26q-46 0 -73.5 2t-41.5 9t-18.5 20.5t-5.5 36.5zM211 1770q-55 0 -74 8t-19 28q0 16 13 34.5t37 53.5l116 162q15 21 28.5 33.5t28 18.5t31 8t37.5 2h155q17 0 31 -2t27.5 -8t27 -18.5
t28.5 -33.5l119 -162q25 -35 37.5 -53.5t12.5 -34.5q0 -10 -3 -16.5t-13 -11t-28 -6.5t-49 -2q-26 0 -43.5 2.5t-31.5 9.5t-28.5 19t-34.5 31l-92 86q-13 13 -22.5 19.5t-18.5 6.5t-19 -7t-24 -20l-89 -85q-21 -20 -34.5 -32t-27.5 -19t-32 -9t-46 -2z" />
    <glyph glyph-name="Ntilde" unicode="&#xd1;" horiz-adv-x="1234" 
d="M125 1607q-1 26 4 42t21.5 25t48 12.5t84.5 3.5q39 0 66.5 -2t44.5 -7.5t26.5 -14.5t12.5 -24l373 -1015h8l-47 980q-1 26 4.5 42t23 25t50 12.5t85.5 3.5q59 0 95 -3.5t54.5 -12.5t24.5 -25t5 -42l-44 -1509q-1 -23 -5 -41t-16 -31t-35.5 -19.5t-62.5 -6.5q-38 0 -62 5
t-35 25l-2 -2l-405 1035h-11l-8 -995q-1 -23 -5 -36.5t-16 -20.5t-35.5 -9t-62.5 -2q-45 0 -71.5 2t-40.5 9t-18.5 20.5t-5.5 36.5zM715 1781q-22 0 -37 1.5t-28 7t-26.5 16t-31.5 28.5l-57 56q-17 17 -24 20.5t-13 3.5q-11 0 -18 -9.5t-20 -33.5l-25 -48
q-8 -15 -15.5 -23.5t-19.5 -12t-31 -4.5t-50 -1q-45 0 -62.5 7t-17.5 26q0 14 6.5 29.5t17.5 38.5l78 177q9 21 21 32.5t26.5 17.5t32.5 7t39 1h58q23 0 38.5 -2.5t26.5 -8t20.5 -14t20.5 -19.5l64 -67q19 -19 32 -29.5t24 -10.5q10 0 17.5 9.5t17.5 35.5l22 61
q6 16 12.5 25.5t18 13.5t31 5t51.5 1q60 0 85 -4.5t25 -26.5q0 -15 -7 -33.5t-21 -45.5l-85 -168q-9 -18 -18.5 -29.5t-22 -18t-29 -9t-39.5 -2.5h-87v0z" />
    <glyph glyph-name="Jcircumflex" unicode="&#x134;" horiz-adv-x="1015" 
d="M50 696q0 30 6.5 48.5t24 28t47.5 12.5t76 3q52 0 84.5 -3t50 -12.5t23.5 -28t5 -48.5l-9 -400q-1 -42 4 -70t17.5 -44.5t32 -23.5t48.5 -7t49 7t32 23.5t17 44.5t4 70l-36 1311q-1 26 5 42t25.5 25t55.5 12.5t96 3.5q59 0 95 -3.5t55.5 -12.5t26 -25t5.5 -42l-36 -1302
q-2 -65 -24 -123t-69 -101t-121 -68t-180 -25q-105 0 -180 24.5t-123 67.5t-71 100.5t-25 122.5zM420 1770q-55 0 -74 8t-19 28q0 16 13 34.5t37 53.5l116 162q15 21 28.5 33.5t28 18.5t31 8t37.5 2h155q17 0 31 -2t27.5 -8t27 -18.5t28.5 -33.5l119 -162q25 -35 37.5 -53.5
t12.5 -34.5q0 -10 -3 -16.5t-13 -11t-28 -6.5t-49 -2q-26 0 -43.5 2.5t-31.5 9.5t-28.5 19t-34.5 31l-92 86q-13 13 -22.5 19.5t-18.5 6.5t-19 -7t-24 -20l-89 -85q-21 -20 -34.5 -32t-27.5 -19t-32 -9t-46 -2z" />
    <glyph glyph-name="Icircumflex" unicode="&#xce;" horiz-adv-x="614" 
d="M125 1607q-1 26 5 42t25.5 25t55.5 12.5t96 3.5q59 0 95 -3.5t55.5 -12.5t26 -25t5.5 -42l-44 -1539q0 -23 -4.5 -36.5t-19 -20.5t-41.5 -9t-73 -2t-73.5 2t-41.5 9t-18.5 20.5t-5.5 36.5zM37 1770q-55 0 -74 8t-19 28q0 16 13 34.5t37 53.5l116 162q15 21 28.5 33.5
t28 18.5t31 8t37.5 2h155q17 0 31 -2t27.5 -8t27 -18.5t28.5 -33.5l119 -162q25 -35 37.5 -53.5t12.5 -34.5q0 -10 -3 -16.5t-13 -11t-28 -6.5t-49 -2q-26 0 -43.5 2.5t-31.5 9.5t-28.5 19t-34.5 31l-92 86q-13 13 -22.5 19.5t-18.5 6.5t-19 -7t-24 -20l-89 -85
q-21 -20 -34.5 -32t-27.5 -19t-32 -9t-46 -2z" />
    <glyph glyph-name="Itilde" unicode="&#x128;" horiz-adv-x="614" 
d="M125 1607q-1 26 5 42t25.5 25t55.5 12.5t96 3.5q59 0 95 -3.5t55.5 -12.5t26 -25t5.5 -42l-44 -1539q0 -23 -4.5 -36.5t-19 -20.5t-41.5 -9t-73 -2t-73.5 2t-41.5 9t-18.5 20.5t-5.5 36.5zM406 1781q-22 0 -37 1.5t-28 7t-26.5 16t-31.5 28.5l-57 56q-17 17 -24 20.5
t-13 3.5q-11 0 -18 -9.5t-20 -33.5l-25 -48q-8 -15 -15.5 -23.5t-19.5 -12t-31 -4.5t-50 -1q-45 0 -62.5 7t-17.5 26q0 14 6.5 29.5t17.5 38.5l78 177q9 21 21 32.5t26.5 17.5t32.5 7t39 1h58q23 0 38.5 -2.5t26.5 -8t20.5 -14t20.5 -19.5l64 -67q19 -19 32 -29.5t24 -10.5
q10 0 17.5 9.5t17.5 35.5l22 61q6 16 12.5 25.5t18 13.5t31 5t51.5 1q60 0 85 -4.5t25 -26.5q0 -15 -7 -33.5t-21 -45.5l-85 -168q-9 -18 -18.5 -29.5t-22 -18t-29 -9t-39.5 -2.5h-87v0z" />
    <glyph glyph-name="ucircumflex" unicode="&#xfb;" horiz-adv-x="1086" 
d="M101 1129q0 21 4.5 35.5t21.5 22.5t49.5 11.5t86.5 3.5t86.5 -3.5t49.5 -11.5t21.5 -22.5t4.5 -35.5l-23 -816q-1 -44 10 -72t29.5 -44.5t41.5 -23t47 -6.5q43 0 77 18.5t60 41.5l-26 902q0 21 4.5 35.5t21.5 22.5t49.5 11.5t86.5 3.5t86.5 -3.5t49.5 -11.5t21.5 -22.5
t4.5 -35.5l-31 -1072q0 -19 -5 -30t-19 -17t-39.5 -8t-67.5 -2q-39 0 -62.5 2t-36 8t-17 17t-4.5 30l-2 47q-22 -20 -50 -41t-63.5 -37.5t-78 -27t-93.5 -10.5q-124 0 -195 71t-75 209z" />
    <glyph glyph-name="rcaron" unicode="&#x159;" horiz-adv-x="952" 
d="M121 1129q0 21 4.5 35.5t20 22.5t46 11.5t81.5 3.5t81 -3.5t46 -11.5t20.5 -22.5t4.5 -35.5v-59q28 31 57.5 57.5t62 45.5t69 30t78.5 11q48 0 89.5 -14t71 -45t45.5 -80.5t14 -120.5l-7 -230q0 -19 -5.5 -30t-20.5 -17t-42.5 -8t-72.5 -2t-72 2t-41.5 8t-19 17t-5.5 30
l-4 137q-1 39 -7 65t-16.5 41t-24.5 21t-32 6q-29 0 -55.5 -22t-47.5 -49l-25 -866q0 -19 -5 -30t-19 -17t-39.5 -8t-67.5 -2t-67.5 2t-39 8t-18.5 17t-5 30zM433 1382q-35 0 -56.5 2.5t-36 9.5t-25.5 18t-25 29l-182 230q-14 17 -28 38.5t-14 37.5q0 10 4.5 17t17.5 11.5
t37 6.5t62 2q42 0 67 -2t41 -9t26 -19t22 -32l66 -121q20 -38 34 -38q13 0 32 34l75 125q12 19 21 31.5t23.5 19t38.5 9t66 2.5q38 0 62 -2t37 -6.5t17.5 -11.5t4.5 -17q0 -16 -14 -37.5t-28 -38.5l-184 -230q-14 -18 -25 -29t-25.5 -18t-36.5 -9.5t-58 -2.5h-16z" />
    <glyph glyph-name="otilde" unicode="&#xf5;" horiz-adv-x="1081" 
d="M111 910q-3 80 32.5 137.5t96 94.5t139.5 54.5t162 17.5t162 -17.5t139.5 -54.5t96 -94.5t32.5 -137.5l-23 -633q-3 -82 -38 -137.5t-91 -89t-128 -48t-149 -14.5q-78 0 -150 14.5t-128.5 48t-91.5 88.5t-38 137zM408 268q-1 -38 6.5 -64t24 -42t42 -23t60.5 -7
q70 0 102.5 30t30.5 107l-20 658q-1 42 -9.5 68t-23.5 40t-35 18.5t-45 4.5t-45 -4.5t-35 -18.5t-23.5 -40t-9.5 -68zM637 1382q-22 0 -37.5 1.5t-29 7t-27 16t-31.5 28.5l-59 60q-17 17 -25 24t-15 7q-11 0 -18 -9.5t-20 -31.5l-33 -57q-9 -16 -17 -25.5t-20 -14
t-30.5 -5.5t-49.5 -1q-45 0 -62.5 7t-17.5 26q0 14 6.5 29.5t19.5 41.5l100 199q10 20 20.5 31.5t24 17.5t31.5 7.5t43 1.5h46q23 0 38.5 -2.5t26.5 -8t20 -13.5t20 -20l82 -87q11 -11 21 -21.5t19 -10.5q10 0 18.5 14t19.5 37l32 67q7 15 13.5 24t18 13.5t30.5 6t51 1.5
q60 0 85 -4.5t25 -26.5q0 -15 -6.5 -34t-21.5 -45l-105 -185q-11 -20 -21.5 -32.5t-23.5 -20t-29 -10.5t-39 -3h-73v0z" />
    <glyph glyph-name="ocircumflex" unicode="&#xf4;" horiz-adv-x="1081" 
d="M111 910q-3 80 32.5 137.5t96 94.5t139.5 54.5t162 17.5t162 -17.5t139.5 -54.5t96 -94.5t32.5 -137.5l-23 -633q-3 -82 -38 -137.5t-91 -89t-128 -48t-149 -14.5q-78 0 -150 14.5t-128.5 48t-91.5 88.5t-38 137zM408 268q-1 -38 6.5 -64t24 -42t42 -23t60.5 -7
q70 0 102.5 30t30.5 107l-20 658q-1 42 -9.5 68t-23.5 40t-35 18.5t-45 4.5t-45 -4.5t-35 -18.5t-23.5 -40t-9.5 -68z" />
    <glyph glyph-name="atilde" unicode="&#xe3;" horiz-adv-x="1086" 
d="M109 291q-1 56 24 98.5t64.5 74.5t89.5 54.5t99 38.5q63 21 133.5 36t137.5 26l-9 331q-2 55 -27.5 81.5t-80.5 26.5q-26 0 -47 -4t-36.5 -16t-24.5 -33t-10 -54l-7 -227q0 -19 -5.5 -30t-21.5 -17t-45.5 -8t-78.5 -2q-45 0 -73 2t-43 8t-20 17t-6 30l-8 213
q-2 53 18 94.5t54.5 72t79 51.5t93 34.5t96.5 19t88 5.5q86 0 163.5 -19.5t135.5 -56.5t91.5 -90.5t31.5 -122.5l-31 -868q-1 -19 -5.5 -30t-18.5 -17t-39.5 -8t-67.5 -2q-39 0 -62.5 2t-36 8t-17 17t-4.5 30l-1 35q-27 -20 -59 -38.5t-68 -33t-76.5 -23.5t-84.5 -9
q-70 0 -123 19.5t-88.5 53t-53.5 79t-19 97.5zM383 267q0 -30 9 -51.5t24 -35t35.5 -20t44.5 -6.5q58 0 100 19t72 44l-7 257q-54 -9 -95 -20.5t-73 -25.5q-50 -23 -80 -50.5t-30 -71.5v-39zM633 1382q-22 0 -37.5 1.5t-29 7t-27 16t-31.5 28.5l-59 60q-17 17 -25 24t-15 7
q-11 0 -18 -9.5t-20 -31.5l-33 -57q-9 -16 -17 -25.5t-20 -14t-30.5 -5.5t-49.5 -1q-45 0 -62.5 7t-17.5 26q0 14 6.5 29.5t19.5 41.5l100 199q10 20 20.5 31.5t24 17.5t31.5 7.5t43 1.5h46q23 0 38.5 -2.5t26.5 -8t20 -13.5t20 -20l82 -87q11 -11 21 -21.5t19 -10.5
q10 0 18.5 14t19.5 37l32 67q7 15 13.5 24t18 13.5t30.5 6t51 1.5q60 0 85 -4.5t25 -26.5q0 -15 -6.5 -34t-21.5 -45l-105 -185q-11 -20 -21.5 -32.5t-23.5 -20t-29 -10.5t-39 -3h-73v0z" />
    <glyph glyph-name="acircumflex" unicode="&#xe2;" horiz-adv-x="1086" 
d="M109 291q-1 56 24 98.5t64.5 74.5t89.5 54.5t99 38.5q63 21 133.5 36t137.5 26l-9 331q-2 55 -27.5 81.5t-80.5 26.5q-26 0 -47 -4t-36.5 -16t-24.5 -33t-10 -54l-7 -227q0 -19 -5.5 -30t-21.5 -17t-45.5 -8t-78.5 -2q-45 0 -73 2t-43 8t-20 17t-6 30l-8 213
q-2 53 18 94.5t54.5 72t79 51.5t93 34.5t96.5 19t88 5.5q86 0 163.5 -19.5t135.5 -56.5t91.5 -90.5t31.5 -122.5l-31 -868q-1 -19 -5.5 -30t-18.5 -17t-39.5 -8t-67.5 -2q-39 0 -62.5 2t-36 8t-17 17t-4.5 30l-1 35q-27 -20 -59 -38.5t-68 -33t-76.5 -23.5t-84.5 -9
q-70 0 -123 19.5t-88.5 53t-53.5 79t-19 97.5zM383 267q0 -30 9 -51.5t24 -35t35.5 -20t44.5 -6.5q58 0 100 19t72 44l-7 257q-54 -9 -95 -20.5t-73 -25.5q-50 -23 -80 -50.5t-30 -71.5v-39z" />
    <glyph glyph-name="ecircumflex" unicode="&#xea;" horiz-adv-x="1062" 
d="M111 910q-3 80 33.5 137.5t98 94.5t141 54.5t162.5 17.5q79 0 155 -17.5t135 -54.5t93.5 -94.5t31.5 -137.5l-15 -369q-1 -19 -6.5 -30t-20.5 -17t-42.5 -8t-72.5 -2h-390l-6 -216q-1 -38 7.5 -64t25.5 -42t42 -23t57 -7q64 0 94 28t30 99v31q0 19 5 31.5t19.5 20
t41.5 10.5t72 3q44 0 71 -3t41.5 -10.5t19 -19.5t4.5 -31v-44q0 -79 -34 -129t-89.5 -79t-127 -40t-146.5 -11q-76 0 -148 14.5t-128.5 48t-92 88.5t-38.5 137zM664 634l-10 293q-1 42 -9.5 68t-23 40t-34 18.5t-41.5 4.5q-25 0 -46 -4.5t-36.5 -18.5t-25 -40t-10.5 -68
l-9 -293h245z" />
    <glyph glyph-name="ordfeminine" unicode="&#xaa;" horiz-adv-x="957" 
d="M319 672q-53 0 -89.5 15t-58.5 40.5t-31.5 59.5t-9.5 71v32q0 39 21.5 69.5t52.5 53.5t65.5 38.5t61.5 24.5q61 17 119.5 27.5t110.5 15.5l-6 198q-2 44 -18 59.5t-54 15.5q-35 0 -55 -14t-22 -60l-5 -105q-1 -13 -5.5 -22t-18 -15t-38 -8.5t-65.5 -2.5q-40 0 -64.5 2.5
t-37.5 8t-17.5 14.5t-5.5 22l-6 124q-2 37 14 66t43.5 50.5t63.5 36.5t75 24t77.5 13t70.5 4q78 0 141.5 -13.5t108 -39.5t67.5 -64t22 -86l-25 -607q0 -13 -4.5 -21t-16.5 -12t-35 -5.5t-60 -1.5q-33 0 -53 1.5t-30.5 5.5t-14.5 12t-4 21l-1 27q-48 -28 -115 -51.5
t-148 -23.5zM453 823q32 0 61.5 7.5t55.5 18.5l-5 155q-20 -3 -42 -6.5t-40 -8.5q-54 -14 -76 -37t-22 -58t19.5 -53t48.5 -18z" />
    <glyph glyph-name="twosuperior" unicode="&#xb2;" horiz-adv-x="884" 
d="M177 680q-26 0 -35 7.5t-9 32.5v18q0 21 5 34t14 25l327 371q13 16 22 29.5t15 27.5t8 31t1 40l-6 173q-1 26 -6 41.5t-14 23.5t-22 10.5t-28 2.5q-18 0 -32.5 -2.5t-24.5 -11t-15.5 -24t-6.5 -41.5l-7 -209q-1 -18 -7 -29t-19.5 -17t-36.5 -7.5t-57 -1.5q-37 0 -61 2
t-38 7.5t-20.5 16.5t-7.5 29l-15 250q-3 45 20.5 80.5t68.5 60t110.5 38t148.5 13.5t149.5 -13t112.5 -38t70 -60.5t22 -80.5l-12 -256q-2 -41 -17.5 -72.5t-49.5 -68.5l-264 -256v-5h294q31 0 37.5 -23.5t6.5 -61.5q0 -44 -6.5 -65t-37.5 -21h-577v0z" />
    <glyph glyph-name="threesuperior" unicode="&#xb3;" horiz-adv-x="869" 
d="M430 672q-93 0 -156.5 12.5t-102 34t-55.5 50t-18 60.5l-2 95q0 18 5 29t20 17t42.5 8t71.5 2q38 0 63.5 -2t41.5 -7.5t22.5 -16.5t5.5 -29l-1 -46q-2 -39 17 -49.5t69 -10.5q14 0 27 3t22 12t14 26.5t3 46.5l-3 84q-2 36 -18 46.5t-48 10.5h-38q-16 0 -24.5 3.5
t-12.5 13t-5 25t-1 39.5q0 21 1 36t5 24.5t13 13.5t25 4h38q28 0 43 15t13 55l-8 191q-4 46 -17 63t-52 17q-44 0 -60.5 -16.5t-17.5 -63.5l-8 -145q0 -18 -6 -29t-19.5 -17t-36.5 -7.5t-57 -1.5q-37 0 -62 1.5t-40 7.5t-22 17t-7 29l-13 200q-1 50 32.5 84t85.5 54.5
t114 29.5t117 9q57 0 119.5 -9t114.5 -29.5t85.5 -54.5t32.5 -84l-8 -222q-1 -25 -5.5 -48t-21 -44t-47.5 -40t-84 -36v-5q44 -17 75 -32t50.5 -33t27.5 -40.5t7 -54.5l-4 -122q-1 -35 -18 -66.5t-57 -55.5t-105 -38t-162 -14z" />
    <glyph glyph-name="onehalf" unicode="&#xbd;" horiz-adv-x="1810" 
d="M1039 59q0 21 5 34t14 25l327 371q13 16 22 29.5t15 27.5t8 31t1 40l-6 173q-1 26 -6 41.5t-14 23.5t-22 10.5t-28 2.5q-18 0 -32.5 -2.5t-24.5 -11t-15.5 -24t-6.5 -41.5l-7 -209q-1 -18 -7 -29t-19.5 -17t-36.5 -7.5t-57 -1.5q-37 0 -61 2t-38 7.5t-20.5 16.5t-7.5 29
l-15 250q-3 45 20.5 80.5t68.5 60t110.5 38t148.5 13.5t149.5 -13t112.5 -38t70 -60.5t22 -80.5l-12 -256q-2 -41 -17.5 -72.5t-49.5 -68.5l-264 -256v-5h294q31 0 37.5 -23.5t6.5 -61.5q0 -44 -6.5 -65t-37.5 -21h-577q-26 0 -35 7.5t-9 32.5v18zM510 -1q-29 0 -47 2.5
t-26 9t-8.5 17.5t5.5 29l502 1558q6 20 12 33.5t18 22t33.5 12t58.5 3.5q39 0 63 -4t36.5 -12t14.5 -21.5t-4 -32.5l-563 -1568q-6 -17 -13 -27t-18 -15t-26.5 -6t-37.5 -1zM273 1382l-115 -114q-10 -10 -19.5 -15t-15.5 -5q-8 0 -15.5 6t-7.5 31v156q0 28 6.5 42.5
t20.5 29.5l138 146l3 3q6 5 14.5 9t24 7t39 5t59.5 2q42 0 67.5 -3t39 -10t17.5 -18t4 -26l-26 -916q-1 -28 -23.5 -34.5t-78.5 -6.5q-38 0 -61 1t-36 5.5t-18 12.5t-5 22z" />
    <glyph glyph-name="onequarter" unicode="&#xbc;" horiz-adv-x="1699" 
d="M927 275q0 18 5.5 35t12.5 35l230 631q7 19 18 30t31 17t50 8t74 2q75 0 100.5 -15t14.5 -47l-279 -582h198l-4 160q-1 31 29.5 40.5t100.5 9.5q42 0 65.5 -2t35.5 -7t15 -14.5t3 -25.5l-15 -510q-1 -28 -28 -34.5t-88 -6.5q-32 0 -52 1t-31.5 5.5t-16 12.5t-4.5 22
l-5 178h-370h-22q-9 0 -21 2t-22.5 6.5t-17.5 11.5t-7 17v20zM510 -1q-29 0 -47 2.5t-26 9t-8.5 17.5t5.5 29l502 1558q6 20 12 33.5t18 22t33.5 12t58.5 3.5q39 0 63 -4t36.5 -12t14.5 -21.5t-4 -32.5l-563 -1568q-6 -17 -13 -27t-18 -15t-26.5 -6t-37.5 -1zM273 1382
l-115 -114q-10 -10 -19.5 -15t-15.5 -5q-8 0 -15.5 6t-7.5 31v156q0 28 6.5 42.5t20.5 29.5l138 146l3 3q6 5 14.5 9t24 7t39 5t59.5 2q42 0 67.5 -3t39 -10t17.5 -18t4 -26l-26 -916q-1 -28 -23.5 -34.5t-78.5 -6.5q-38 0 -61 1t-36 5.5t-18 12.5t-5 22z" />
    <glyph glyph-name="threequarters" unicode="&#xbe;" horiz-adv-x="1948" 
d="M440 672q-93 0 -156.5 12.5t-102 34t-55.5 50t-18 60.5l-2 95q0 18 5 29t20 17t42.5 8t71.5 2q38 0 63.5 -2t41.5 -7.5t22.5 -16.5t5.5 -29l-1 -46q-2 -39 17 -49.5t69 -10.5q14 0 27 3t22 12t14 26.5t3 46.5l-3 84q-2 36 -18 46.5t-48 10.5h-38q-16 0 -24.5 3.5
t-12.5 13t-5 25t-1 39.5q0 21 1 36t5 24.5t13 13.5t25 4h38q28 0 43 15t13 55l-8 191q-4 46 -17 63t-52 17q-44 0 -60.5 -16.5t-17.5 -63.5l-8 -145q0 -18 -6 -29t-19.5 -17t-36.5 -7.5t-57 -1.5q-37 0 -62 1.5t-40 7.5t-22 17t-7 29l-13 200q-1 50 32.5 84t85.5 54.5
t114 29.5t117 9q57 0 119.5 -9t114.5 -29.5t85.5 -54.5t32.5 -84l-8 -222q-1 -25 -5.5 -48t-21 -44t-47.5 -40t-84 -36v-5q44 -17 75 -32t50.5 -33t27.5 -40.5t7 -54.5l-4 -122q-1 -35 -18 -66.5t-57 -55.5t-105 -38t-162 -14zM1167 275q0 18 5.5 35t12.5 35l230 631
q7 19 18 30t31 17t50 8t74 2q75 0 100.5 -15t14.5 -47l-279 -582h198l-4 160q-1 31 29.5 40.5t100.5 9.5q42 0 65.5 -2t35.5 -7t15 -14.5t3 -25.5l-15 -510q-1 -28 -28 -34.5t-88 -6.5q-32 0 -52 1t-31.5 5.5t-16 12.5t-4.5 22l-5 178h-370h-22q-9 0 -21 2t-22.5 6.5
t-17.5 11.5t-7 17v20zM759 -1q-29 0 -47 2.5t-26 9t-8.5 17.5t5.5 29l502 1558q6 20 12 33.5t18 22t33.5 12t58.5 3.5q39 0 63 -4t36.5 -12t14.5 -21.5t-4 -32.5l-563 -1568q-6 -17 -13 -27t-18 -15t-26.5 -6t-37.5 -1z" />
    <glyph glyph-name="ordmasculine" unicode="&#xba;" horiz-adv-x="954" 
d="M477 682q-64 0 -124 10t-106.5 33.5t-75.5 62.5t-31 96l-19 432q-2 56 27.5 96t79.5 66t115 38.5t134 12.5t134 -12.5t115 -38.5t79.5 -66t27.5 -96l-19 -432q-2 -57 -31 -96t-75.5 -62.5t-106.5 -33.5t-124 -10zM477 814q53 0 77.5 17.5t23.5 70.5l-16 405
q-3 30 -9.5 46.5t-17 25t-25 10.5t-33.5 2t-33.5 -2t-25 -10.5t-17 -25t-9.5 -46.5l-16 -405q-2 -53 23 -70.5t78 -17.5z" />
    <glyph glyph-name="ij" unicode="&#x133;" horiz-adv-x="1137" 
 />
    <glyph glyph-name="jcircumflex" unicode="&#x135;" horiz-adv-x="571" 
d="M123 1129q-1 21 4 35.5t22 22.5t49.5 11.5t86.5 3.5t86.5 -3.5t49.5 -11.5t22 -22.5t4 -35.5l-32 -1492q0 -19 -5 -30t-19 -17t-39 -8t-67 -2t-67.5 2t-39 8t-18 17t-4.5 30z" />
    <glyph glyph-name="fraction" unicode="&#x2044;" horiz-adv-x="500" 
d="M-40 -1q-29 0 -47 2.5t-26 9t-8.5 17.5t5.5 29l502 1558q6 20 12 33.5t18 22t33.5 12t58.5 3.5q39 0 63 -4t36.5 -12t14.5 -21.5t-4 -32.5l-563 -1568q-6 -17 -13 -27t-18 -15t-26.5 -6t-37.5 -1z" />
    <glyph glyph-name="dotaccent" unicode="&#x2d9;" horiz-adv-x="554" 
d="M277 1360q-49 0 -78.5 2t-45 8t-21 17t-5.5 30l-12 195q0 21 4.5 35.5t21.5 22.5t49.5 11.5t86.5 3.5t86.5 -3.5t49.5 -11.5t21.5 -22.5t4.5 -35.5l-11 -195q0 -19 -5.5 -30t-21.5 -17t-45.5 -8t-78.5 -2z" />
  </font>
</defs>
</svg>
