<svg xmlns="http://www.w3.org/2000/svg" width="52" height="48" viewBox="0 0 52 48">
  <metadata><?xpacket begin="﻿" id="W5M0MpCehiHzreSzNTczkc9d"?>
<x:xmpmeta xmlns:x="adobe:ns:meta/" x:xmptk="Adobe XMP Core 5.6-c138 79.159824, 2016/09/14-01:09:01        ">
   <rdf:RDF xmlns:rdf="http://www.w3.org/1999/02/22-rdf-syntax-ns#">
      <rdf:Description rdf:about=""/>
   </rdf:RDF>
</x:xmpmeta>
                                                                                                    
                                                                                                    
                                                                                                    
                                                                                                    
                                                                                                    
                                                                                                    
                                                                                                    
                                                                                                    
                                                                                                    
                                                                                                    
                                                                                                    
                                                                                                    
                                                                                                    
                                                                                                    
                                                                                                    
                                                                                                    
                                                                                                    
                                                                                                    
                                                                                                    
                                                                                                    
                           
<?xpacket end="w"?></metadata>
<defs>
    <style>
      .cls-1 {
        fill: #17505b;
      }

      .cls-1, .cls-2, .cls-3 {
        fill-rule: evenodd;
      }

      .cls-2 {
        fill: #fff;
      }

      .cls-3 {
        fill: #20d7e7;
      }
    </style>
  </defs>
  <path id="bg" class="cls-1" d="M31,7H47V5H15l5,17,4-11S25.429,7,31,7Zm2,22V24l5,4ZM29,43l1-3H47v3H29ZM5,42l1,1h5L5,25V42Z"/>
  <path id="vs" class="cls-2" d="M51,26v8s-0.714,4-4,4H33l-2-2,2-4,2-1,9-1L33,21l-2-2V18.333L28,16l2,5,0.87,7.826L24,46l-2,2H17l-2-2L1,5C-1,.286,2,0,2,0H6c2.857,0,5,3,5,3l9,27,6-17a7.378,7.378,0,0,1,4-4H49l2,1v4l-2,3-7,1S51,23.286,51,26Z"/>
  <path id="border" class="cls-3" d="M52,46a2,2,0,0,1-2,2H29V47.9a1.475,1.475,0,0,1-.5.1,1.5,1.5,0,0,1,0-3,1.475,1.475,0,0,1,.5.1V45H47a2,2,0,0,0,2-2h0.1a1.475,1.475,0,0,1-.1-0.5,1.5,1.5,0,1,1,3,0,1.475,1.475,0,0,1-.1.5H52v3ZM50.5,6a1.488,1.488,0,0,1-1.4-1H49a2,2,0,0,0-2-2H16V2.9a1.474,1.474,0,0,1-.5.1,1.5,1.5,0,0,1,0-3,1.474,1.474,0,0,1,.5.1V0H50a2,2,0,0,1,2,2V5H51.9A1.488,1.488,0,0,1,50.5,6ZM9.5,48A1.476,1.476,0,0,1,9,47.9V48H2a2,2,0,0,1-2-2V20H0.1A1.474,1.474,0,0,1,0,19.5a1.5,1.5,0,1,1,3,0,1.474,1.474,0,0,1-.1.5H3V43a2,2,0,0,0,2,2H9v0.1A1.476,1.476,0,0,1,9.5,45,1.5,1.5,0,1,1,9.5,48Zm41-48A1.5,1.5,0,0,1,52,1.5v3a1.5,1.5,0,1,1-3,0v-3A1.5,1.5,0,0,1,50.5,0Z"/>
</svg>
