<svg id="_2" data-name="2" xmlns="http://www.w3.org/2000/svg" width="24" height="36" viewBox="0 0 24 36">
  <metadata><?xpacket begin="﻿" id="W5M0MpCehiHzreSzNTczkc9d"?>
<x:xmpmeta xmlns:x="adobe:ns:meta/" x:xmptk="Adobe XMP Core 5.6-c138 79.159824, 2016/09/14-01:09:01        ">
   <rdf:RDF xmlns:rdf="http://www.w3.org/1999/02/22-rdf-syntax-ns#">
      <rdf:Description rdf:about=""/>
   </rdf:RDF>
</x:xmpmeta>
                                                                                                    
                                                                                                    
                                                                                                    
                                                                                                    
                                                                                                    
                                                                                                    
                                                                                                    
                                                                                                    
                                                                                                    
                                                                                                    
                                                                                                    
                                                                                                    
                                                                                                    
                                                                                                    
                                                                                                    
                                                                                                    
                                                                                                    
                                                                                                    
                                                                                                    
                                                                                                    
                           
<?xpacket end="w"?></metadata>
<defs>
    <style>
      .cls-1 {
        fill: #10303e;
      }

      .cls-1, .cls-2 {
        fill-rule: evenodd;
      }

      .cls-2 {
        fill: #62f2ff;
      }
    </style>
  </defs>
  <path id="_2_shadow" data-name="2 shadow" class="cls-1" d="M5,21H1L0,20V5S0.187,0,5,0H19s5-.063,5,5V20s-0.125,3.688-3,5l-3,2h4s2,0.25,2,2v5a2.032,2.032,0,0,1-2,2H2a2.072,2.072,0,0,1-2-2V29a6.159,6.159,0,0,1,3-5"/>
  <path id="_2-2" data-name="2" class="cls-2" d="M22,27v5H4a2.072,2.072,0,0,1-2-2V27a6.159,6.159,0,0,1,3-5l8-4a5.752,5.752,0,0,0,1-2.75A10.68,10.68,0,0,0,13,12H10v4L9,17H3L2,16V5S2.187,0,7,0H17s5-.063,5,5V17s-0.125,3.687-3,5l-8,4v1H22Z"/>
</svg>
