<svg id="_3" data-name="3" xmlns="http://www.w3.org/2000/svg" width="24" height="36" viewBox="0 0 24 36">
  <metadata><?xpacket begin="﻿" id="W5M0MpCehiHzreSzNTczkc9d"?>
<x:xmpmeta xmlns:x="adobe:ns:meta/" x:xmptk="Adobe XMP Core 5.6-c138 79.159824, 2016/09/14-01:09:01        ">
   <rdf:RDF xmlns:rdf="http://www.w3.org/1999/02/22-rdf-syntax-ns#">
      <rdf:Description rdf:about=""/>
   </rdf:RDF>
</x:xmpmeta>
                                                                                                    
                                                                                                    
                                                                                                    
                                                                                                    
                                                                                                    
                                                                                                    
                                                                                                    
                                                                                                    
                                                                                                    
                                                                                                    
                                                                                                    
                                                                                                    
                                                                                                    
                                                                                                    
                                                                                                    
                                                                                                    
                                                                                                    
                                                                                                    
                                                                                                    
                                                                                                    
                           
<?xpacket end="w"?></metadata>
<defs>
    <style>
      .cls-1 {
        fill: #163745;
      }

      .cls-1, .cls-2 {
        fill-rule: evenodd;
      }

      .cls-2 {
        fill: #62f2ff;
      }
    </style>
  </defs>
  <path id="_3shadow" data-name="3shadow" class="cls-1" d="M7,20H1L0,19V4A4.648,4.648,0,0,1,5,0H20s4,0.458,4,4V18s-0.062,1.688-4,3l2,2a6.106,6.106,0,0,1,2,4v6a2.938,2.938,0,0,1-3,3H3s-3-.25-3-3V25l1-1H7V20Z"/>
  <path id="_3-2" data-name="3" class="cls-2" d="M14,23H10L9,22V19l1-1h2a2.032,2.032,0,0,0,2-2V14c0-3.167-2-3-2-3H9v4L8,16H3L2,15V4A4.648,4.648,0,0,1,7,0H18s4,0.458,4,4V16s-0.062,1.688-4,3l2,2a6.106,6.106,0,0,1,2,4v4a2.938,2.938,0,0,1-3,3H5s-3-.25-3-3V25l1-1H8l1,1a1.893,1.893,0,0,0,2,2h1a1.893,1.893,0,0,0,2-2V23Z"/>
</svg>
