<svg id="banner" xmlns="http://www.w3.org/2000/svg" width="142" height="120" viewBox="0 0 142 120">
  <metadata><?xpacket begin="﻿" id="W5M0MpCehiHzreSzNTczkc9d"?>
<x:xmpmeta xmlns:x="adobe:ns:meta/" x:xmptk="Adobe XMP Core 5.6-c138 79.159824, 2016/09/14-01:09:01        ">
   <rdf:RDF xmlns:rdf="http://www.w3.org/1999/02/22-rdf-syntax-ns#">
      <rdf:Description rdf:about=""/>
   </rdf:RDF>
</x:xmpmeta>
                                                                                                    
                                                                                                    
                                                                                                    
                                                                                                    
                                                                                                    
                                                                                                    
                                                                                                    
                                                                                                    
                                                                                                    
                                                                                                    
                                                                                                    
                                                                                                    
                                                                                                    
                                                                                                    
                                                                                                    
                                                                                                    
                                                                                                    
                                                                                                    
                                                                                                    
                                                                                                    
                           
<?xpacket end="w"?></metadata>
<defs>
    <style>
      .cls-1 {
        fill: #2d899d;
      }

      .cls-1, .cls-2, .cls-3, .cls-4, .cls-5, .cls-6 {
        fill-rule: evenodd;
      }

      .cls-2 {
        fill: #166273;
      }

      .cls-3 {
        fill: #10303e;
      }

      .cls-4 {
        fill: #97dfe7;
      }

      .cls-5 {
        fill: #fff;
      }

      .cls-6 {
        fill: #163745;
      }
    </style>
  </defs>
  <g id="bg">
    <path class="cls-1" d="M96,6.481V32L73,38,50,43V0.519ZM92,42h1v66L73,95,53,108s-0.3-55.905,0-56Z"/>
    <path class="cls-2" d="M52,0.778V42.846L47,44V0.13Zm0,51.6V108L73,95l21,13V42h1c4.417,0,4,6,4,6v67l-5,5L73,105,52,120l-5-3V60S47.179,54.535,52,52.378ZM94,33.154V6.348L99,7V32Z"/>
    <path class="cls-3" d="M54,1.037V42.56l-3,.72V0.648ZM54,98l13-9c5-3.215,6-3,6-3v0.031s1.165-.42,6,2.994l13,8.983V42h3v68l-1,1L75,98c-1.688-1.312-2-1-2-1s-0.375-.25-2,1L52,111l-1-1V52.95l3-1.2V98Zm0,7,14-9s4.531-3.25,5-3c0.531-.25,5,3,5,3l14,9v-3L77,92.021s-3.125-2.028-4-2V90c-1,.031-4,2-4,2L54,102v3ZM92,33.44V5.979l3,0.438v26.3ZM90,89a2,2,0,1,1-2-2A2,2,0,0,1,90,89ZM59,4a2,2,0,1,1,2,2A2,2,0,0,1,59,4ZM58,91a2,2,0,1,1,2-2A2,2,0,0,1,58,91Z"/>
  </g>
  <g id="round">
    <path id="Shape_398_copy" data-name="Shape 398 copy" class="cls-4" d="M145.177,31.708L103.028,45.322,119,31.2v-13.1l13.061-4.219L127.829,26.8ZM27,36.667L3.787,41.831,16.066,27.87,6.1,19.879l37.16-8.266L27,24V36.667Z"/>
    <path class="cls-5" d="M117,6.5V29L31.252,49.463c-1.8.487-2.252-.429-2.252-1.295V26L114.581,5.577C117.12,4.928,117,5.756,117,6.5Z"/>
    <path id="starcade_copy_3" data-name="starcade copy 3" class="cls-6" d="M108.287,24.972a1.016,1.016,0,0,1-.739.854l-7.484,1.925h0l-2.1.541L98,27.619h0L98.684,15.1h0l0.074-1.347,1.4-.361h0l7.484-1.925a0.966,0.966,0,0,1,1.329.986Zm-3.814-6.11-0.379-.282-1.471.378-0.33,6.005,1.471-.379,0.421-.487Zm-57.9,22.588,0.117-.03-3.742.963L37.512,40.6,37.5,40.55a0.514,0.514,0,0,1-.407-0.505l-0.008,0L37.2,37.8a1.017,1.017,0,0,1,.739-0.854l4.981-1.281,0.42-.487,0.037-.662A0.839,0.839,0,0,1,43,34.236l-4.923.242c-0.387.1-.742,0.917-0.722,0.545l0.235-4.265a2.035,2.035,0,0,1,1.477-1.708l7.484-1.925a0.967,0.967,0,0,1,1.329.986l-0.437,7.942a1.018,1.018,0,0,1-.739.854l-3.275.842c-0.877.226-.726,0.63-0.726,0.63s4.49,2.207,4.476,2.473a1.122,1.122,0,0,1-.492.569m27.155-6.955h0l-5.379,1.384c-1.791.461-2.3-.149-2.228-1.419l0.614-11.169h0l0.074-1.347,1.4-.361h0l2.573-.662L70.251,32.734a0.322,0.322,0,0,0,.443.329l1.4-.361a0.678,0.678,0,0,0,.492-0.569L73.241,20.29l2.105-.541,1.17-.3,1.4-.361-0.8,14.536ZM59.916,37.533a2.388,2.388,0,0,0,1.97-2.277L62.439,25.21c0.109-1.979-.539-2.517-2.425-2.032L55.1,24.441a3.49,3.49,0,0,0-2.967,3.64L51.6,37.9c-0.062,1.135.309,1.691,1.772,1.315ZM57.1,30.125a0.805,0.805,0,0,1,1.108.822L58,34.707a1.7,1.7,0,0,1-1.231,1.423,0.806,0.806,0,0,1-1.108-.822l0.207-3.76A1.7,1.7,0,0,1,57.1,30.125ZM81.926,32.9l0.8-14.536,2.807-.722a1.381,1.381,0,0,1,1.785,1.09l1.91,7.2,0.516-9.373,4.444-1.143-0.8,14.536-5.146,1.323A1.413,1.413,0,0,1,86.7,29.9l-0.676-4.474-0.358,6.511Z"/>
  </g>
</svg>
