<svg id="_1" data-name="1" xmlns="http://www.w3.org/2000/svg" width="24" height="36" viewBox="0 0 24 36">
  <metadata><?xpacket begin="﻿" id="W5M0MpCehiHzreSzNTczkc9d"?>
<x:xmpmeta xmlns:x="adobe:ns:meta/" x:xmptk="Adobe XMP Core 5.6-c138 79.159824, 2016/09/14-01:09:01        ">
   <rdf:RDF xmlns:rdf="http://www.w3.org/1999/02/22-rdf-syntax-ns#">
      <rdf:Description rdf:about=""/>
   </rdf:RDF>
</x:xmpmeta>
                                                                                                    
                                                                                                    
                                                                                                    
                                                                                                    
                                                                                                    
                                                                                                    
                                                                                                    
                                                                                                    
                                                                                                    
                                                                                                    
                                                                                                    
                                                                                                    
                                                                                                    
                                                                                                    
                                                                                                    
                                                                                                    
                                                                                                    
                                                                                                    
                                                                                                    
                                                                                                    
                           
<?xpacket end="w"?></metadata>
<defs>
    <style>
      .cls-1 {
        fill: #163745;
      }

      .cls-1, .cls-2 {
        fill-rule: evenodd;
      }

      .cls-2 {
        fill: #62f2ff;
      }
    </style>
  </defs>
  <path id="_1shadow" data-name="1shadow" class="cls-1" d="M3.444,19.143L1,15.429,7.667,3.286A12.977,12.977,0,0,1,11.889,0h5.667A4.629,4.629,0,0,1,22,4.571V33.714A2.255,2.255,0,0,1,19.778,36H11.222A2.255,2.255,0,0,1,9,33.714V21H8A7.79,7.79,0,0,1,3.444,19.143Z"/>
  <path id="_1-2" data-name="1" class="cls-2" d="M16.556,0A3.477,3.477,0,0,1,20,3.571V29.714A2.255,2.255,0,0,1,17.778,32H13.222A2.255,2.255,0,0,1,11,29.714V14.476L8.889,17C7,19.658,5.444,17.143,5.444,17.143L3,12.429,9,1a6.511,6.511,0,0,1,2.889-1h4.667Z"/>
</svg>
