<svg xmlns="http://www.w3.org/2000/svg" width="770" height="420" viewBox="0 0 770 420">
  <defs>
    <style>
      .cls-1 {
        fill: #06161a;
        opacity: 0.5;
      }

      .cls-1, .cls-2 {
        fill-rule: evenodd;
      }

      .cls-2 {
        fill: #fff;
      }
    </style>
  </defs>
  <path id="menu_bg" class="cls-1" d="M398.056,407H769V13H395.056L385,5l-11.056,8H1V407H374.944L385,417Z"/>
  <path id="border" class="cls-2" d="M769,407.5a1.5,1.5,0,0,1-1.5,1.5H399l-3,2-10,8h-2l-8-7-1-1,4-3,6,6,10-7,5-3,26.571,2H767.5A1.5,1.5,0,0,1,769,407.5ZM391,407l-6-6-10,7-4,3-27.5-2H2.5a1.5,1.5,0,0,1,0-3H371l3-2,10-8h2l9,7v1l-1,1ZM769,13.5a1.5,1.5,0,0,1-1.5,1.5H399l-3,2-10,8h-2l-8-7-1-1,4-3,6,6,10-7,5-3,26.571,2H767.5A1.5,1.5,0,0,1,769,13.5ZM391,13l-6-6-10,7-4,3-27.5-2H2.5a1.5,1.5,0,0,1,0-3H371l3-2,10-8h2l9,7v1l-1,1Z"/>
</svg>
