<svg id="Layer_1" data-name="Layer 1" xmlns="http://www.w3.org/2000/svg" viewBox="0 0 79.66 51.14"><defs><style>.cls-1{fill:#fff;}</style></defs><title>Artboard 1</title><path class="cls-1" d="M45.28,29.37a32.25,32.25,0,0,1-9,8.81,19,19,0,0,1-8.65,3,44.14,44.14,0,0,1-6.25,5.69,25.1,25.1,0,0,1-6.41,3.54,11.23,11.23,0,0,1-6,.59,13.36,13.36,0,0,1-6-2.87A8.22,8.22,0,0,1,0,42.31,26.48,26.48,0,0,1,2.16,30.57,38.23,38.23,0,0,1,9.08,19.64,35.67,35.67,0,0,1,19.2,11.69,23.72,23.72,0,0,1,31,8.9q4.74.28,6.72,2.51a8,8,0,0,1,2,5.61,20.86,20.86,0,0,1-1.42,7.11,42.79,42.79,0,0,1-3.4,7.08q-1.4,2.4-3.07,4.74a17.27,17.27,0,0,0,5-2.18,21.09,21.09,0,0,0,4.74-4.13q.89-1.11,1.45-1.9.95-1.23,1.84-2.45a2.42,2.42,0,0,1,1.48-.75,1.18,1.18,0,0,1,1.17.42q.36.5-.2,1.51ZM10.58,45.83a7.9,7.9,0,0,0,5.3-1.14,25.57,25.57,0,0,0,5.69-4.49,11.91,11.91,0,0,1-5.91-4.63,7.87,7.87,0,0,1-1.06-6.47,33.7,33.7,0,0,0-5.69,10.6,9.6,9.6,0,0,0-.14,4A2.5,2.5,0,0,0,10.58,45.83ZM25.31,35.9a55.81,55.81,0,0,0,4.49-6.81,32.56,32.56,0,0,0,2.79-6.33,7.23,7.23,0,0,0,.28-4.43q-.59-1.56-3-1.12a14.09,14.09,0,0,0-4.46,1.84,13.55,13.55,0,0,0-5.94,5.86q-1.54,3.35.75,7.25A8.25,8.25,0,0,0,25.31,35.9Z"/><path class="cls-1" d="M77.07,25.3a2.44,2.44,0,0,1,1.51-.75,1.22,1.22,0,0,1,1.2.42q.36.5-.2,1.51-5,7.09-9.54,13.11a68.8,68.8,0,0,1-7.25,8.48,11.37,11.37,0,0,1-5.66,2.87,8.59,8.59,0,0,1-5.83-1l-.17-.17q-.5-.28-.95-.56a6.72,6.72,0,0,1-2.34-2.23,5.35,5.35,0,0,1-.33-4,43.21,43.21,0,0,1,4.24-9.18q3.4-6,7.31-12.24.67-1.17,1.45-2.4a33.18,33.18,0,0,0,2-3.12,1.33,1.33,0,0,0-.61-1.7,9.7,9.7,0,0,0-2.57-1.2l-.5-.22-1.12-.39-3.24,4.24Q51.19,20.84,48.29,25q-.95,1.28-1.84,2.57a2,2,0,0,1-.73.14,5.48,5.48,0,0,1-1.09-.06,2.22,2.22,0,0,1-.92-.31q-.33-.22,0-.61,4-5.47,7.64-10.49l3.57-4.91A7.93,7.93,0,0,1,51.58,8.6q-1.12-1.7.39-4.27a9.51,9.51,0,0,1,3.4-3A9.86,9.86,0,0,1,59.81,0a5,5,0,0,1,3.77,1.31,1.83,1.83,0,0,1,.36,1.92,9.21,9.21,0,0,1-1.23,2.4A29.65,29.65,0,0,1,60.9,8q-.56.73-1,1.34l.84.22q1.84.62,4,1.45a19.48,19.48,0,0,1,4,2.06A7.39,7.39,0,0,1,71.41,16a4.9,4.9,0,0,1-.08,4q-1.17,2.07-3.57,5.91-2.34,3.68-4.88,7.84t-4.27,7.59q-1.73,3.43-1.67,4.88.22,1.51,1.34,1.17a7.09,7.09,0,0,0,2.45-1.48,27.46,27.46,0,0,0,2.18-2q2.12-2.46,5.94-7.5T77.07,25.3Zm-18-19.52q.72-1.17.14-1.56a2,2,0,0,0-1.67-.06A3.2,3.2,0,0,0,55.77,5.5a1.41,1.41,0,0,0-.28.73,1.34,1.34,0,0,0,.31.95,4.14,4.14,0,0,0,1.42,1.06Q58.22,6.84,59.06,5.78Z"/></svg>