<svg id="rank-normal-shadow" xmlns="http://www.w3.org/2000/svg" width="30" height="54" viewBox="0 0 30 54">
  <defs>
    <style>
      .cls-1 {
        fill: #011417;
        opacity: 0.75;
      }

      .cls-1, .cls-2 {
        fill-rule: evenodd;
      }

      .cls-2 {
        fill: #fff;
      }
    </style>
  </defs>
  <g id="_14" data-name="14">
    <path id="shadow" class="cls-1" d="M15,2h9l1,1V5a3.188,3.188,0,0,0-1.962,1.925A20.818,20.818,0,0,0,22,11v7a11.173,11.173,0,0,1,6,10,9.721,9.721,0,0,0,1,3s-1.062,4.125-7,9v7s0.031,2.125,3,4l1,1v1l-1,1H15M15,2H6L5,3V5A3.188,3.188,0,0,1,6.963,6.925,20.815,20.815,0,0,1,8,11v7A11.173,11.173,0,0,0,2,28a9.721,9.721,0,0,1-1,3s1.063,4.125,7,9v7s-0.031,2.125-3,4L4,52v1l1,1H15"/>
    <path id="_14-2" data-name="14" class="cls-2" d="M7,51s3-1,3-6V40l4,1V51H7ZM7,3s3,1,3,6v7l4-1V3H7ZM23,51s-3-1-3-6V40l-4,1V51h7ZM23,3s-3,1-3,6v7l-4-1V3h7ZM15,31l-3,2,3.013,6.775S16.887,34.272,18,33Zm0-1-4-4,4-10,4,10Zm2,1,3-4,7,4-7,2Zm-4,0-3-4L3,31l7,2Zm13-3-2.9-1.45a8.259,8.259,0,0,0-4.3-5.859l-1.227-3.376A11.01,11.01,0,0,1,26,28h0ZM6.9,26.55L4,28H4a11.01,11.01,0,0,1,8.431-10.685L11.2,20.691A8.259,8.259,0,0,0,6.9,26.55Zm4.022,8.6,1.518,3.542A11.02,11.02,0,0,1,6.6,35.081l3.259-.652A8.333,8.333,0,0,0,10.922,35.151Zm8.157,0a8.328,8.328,0,0,0,1.067-.721l3.259,0.652a11.021,11.021,0,0,1-5.844,3.611Z"/>
  </g>
</svg>
